<svg width="38" height="52" viewBox="0 0 38 52" fill="none" xmlns="http://www.w3.org/2000/svg">
<path d="M6.59685 32.7658C6.99559 35.5056 8.36742 38.0102 10.4614 39.8214C12.5553 41.6327 15.2314 42.6295 18 42.6295M18 42.6295C20.7686 42.6295 23.4447 41.6327 25.5386 39.8214C27.6326 38.0102 29.0044 35.5056 29.4032 32.7658M18 42.6295V48.4001M18.0016 19.6001C16.6922 19.6001 15.4365 20.1203 14.5106 21.0462C13.5847 21.972 13.0645 23.2278 13.0645 24.5372V31.1201C13.0645 32.4295 13.5847 33.6853 14.5106 34.6112C15.4365 35.5371 16.6922 36.0572 18.0016 36.0572C19.3111 36.0572 20.5668 35.5371 21.4927 34.6112C22.4186 33.6853 22.9388 32.4295 22.9388 31.1201V24.5372C22.9388 23.2278 22.4186 21.972 21.4927 21.0462C20.5668 20.1203 19.3111 19.6001 18.0016 19.6001Z" stroke="#D4F1F4" stroke-width="2" stroke-linecap="round" stroke-linejoin="round"/>
<path d="M37.0527 15.709H32.6729V20.0762H31.3906V15.709H27.0107V14.4141H31.3906V10.0342H32.6729V14.4141H37.0527V15.709Z" fill="#D4F1F4"/>
</svg>
