<svg width="24" height="24" viewBox="0 0 24 24" fill="none" xmlns="http://www.w3.org/2000/svg">
<path d="M2.49298 13.3764C2.82542 15.6606 3.96914 17.7487 5.7149 19.2588C7.46066 20.7688 9.69174 21.5999 12 21.5999C14.3082 21.5999 16.5393 20.7688 18.2851 19.2588C20.0308 17.7487 21.1746 15.6606 21.507 13.3764M12.0014 2.3999C10.9097 2.3999 9.86271 2.83357 9.09078 3.6055C8.31884 4.37744 7.88518 5.4244 7.88518 6.51608V12.0043C7.88518 13.096 8.31884 14.143 9.09078 14.9149C9.86271 15.6868 10.9097 16.1205 12.0014 16.1205C13.093 16.1205 14.14 15.6868 14.9119 14.9149C15.6839 14.143 16.1175 13.096 16.1175 12.0043V6.51608C16.1175 5.4244 15.6839 4.37744 14.9119 3.6055C14.14 2.83357 13.093 2.3999 12.0014 2.3999Z" stroke="#464646" stroke-width="2" stroke-linecap="round" stroke-linejoin="round"/>
</svg>
