<svg width="393" height="433" viewBox="0 0 393 433" fill="none" xmlns="http://www.w3.org/2000/svg">
<path d="M71.7951 120.436L65.0325 169.996L143.184 180.66L149.946 131.099L71.7951 120.436Z" fill="#EBEBEB"/>
<path d="M71.796 120.426C74.5412 123.89 77.3644 127.207 80.1356 130.61C82.9068 134.014 85.7646 137.304 88.6051 140.612C91.5581 144.076 94.5372 147.54 97.5076 150.926C97.6028 151.03 97.6808 151.143 97.776 151.256C100.414 154.269 103.062 157.28 105.717 160.288L106.107 160.721L106.592 160.409C109.952 158.221 113.306 156.021 116.655 153.81C116.774 153.741 116.89 153.666 117.001 153.585C120.806 151.091 124.593 148.571 128.363 146.025C131.966 143.6 135.586 141.132 139.179 138.664C142.773 136.196 146.376 133.676 149.944 131.086C146.237 133.217 142.566 135.477 138.885 137.677C135.205 139.876 131.533 142.171 127.87 144.475C123.794 147.009 119.718 149.587 115.642 152.208C112.588 154.148 109.533 156.099 106.479 158.062C104.081 155.36 101.664 152.641 99.2396 149.965C96.018 146.374 92.7821 142.801 89.5317 139.244C86.6104 136.057 83.6804 132.882 80.7418 129.718C77.7195 126.635 74.7924 123.474 71.796 120.426Z" fill="white"/>
<path d="M115.356 153.325C115.387 153.355 115.416 153.387 115.442 153.421L116.534 154.633C118.266 156.555 120.058 158.409 121.885 160.227C124.12 162.462 126.415 164.635 128.727 166.792C131.039 168.948 133.395 171.026 135.811 173.07C138.227 175.114 140.66 177.14 143.206 179.028C141.119 176.629 138.876 174.36 136.685 172.1C134.494 169.84 132.148 167.692 129.853 165.545C127.558 163.397 125.168 161.293 122.76 159.24C120.846 157.603 118.889 155.993 116.871 154.451C116.409 154.087 115.942 153.732 115.468 153.386L115.356 153.325Z" fill="white"/>
<path d="M65.4309 168.428C68.4013 167.285 71.3024 165.995 74.1602 164.67C77.018 163.345 79.8498 161.925 82.673 160.504C85.4961 159.084 88.276 157.577 91.0212 156.019C93.2641 154.754 95.4811 153.421 97.6548 152.07C98.1311 151.775 98.59 151.481 99.049 151.204L99.1529 151.134C99.1103 151.145 99.0657 151.145 99.023 151.134L97.3776 151.801C95.0308 152.745 92.7272 153.784 90.4496 154.841C87.5832 156.174 84.76 157.577 81.9455 159.015C79.131 160.452 76.3512 161.942 73.5973 163.509C70.8434 165.077 68.0895 166.67 65.4309 168.428Z" fill="white"/>
<path d="M91.7114 48.7152L27.0783 65.1179L37.4802 106.105L102.113 89.7027L91.7114 48.7152Z" fill="#AAD6DE"/>
<path d="M27.0757 65.1145C30.3232 66.9505 33.5881 68.6651 36.8442 70.4491C40.1004 72.233 43.3739 73.9131 46.6473 75.6451C50.0594 77.429 53.4801 79.1697 56.9008 80.9104L57.2125 81.0836L66.2969 85.6474L66.7385 85.8639L67.0243 85.4655C68.9642 82.6857 70.8867 79.8972 72.8179 77.1086C72.8893 77.014 72.9557 76.9157 73.017 76.8142C75.2109 73.6619 77.3817 70.4866 79.5294 67.2882C81.5904 64.2485 83.6429 61.1656 85.678 58.0913C87.7131 55.017 89.7395 51.8994 91.74 48.7471C89.5057 51.5876 87.3493 54.5234 85.1584 57.4071C82.9674 60.2909 80.8284 63.2613 78.6807 66.223C76.2905 69.508 73.909 72.8219 71.5362 76.1647C69.7638 78.653 67.9885 81.15 66.2103 83.6556C63.4391 82.27 60.6852 80.9277 57.94 79.5941C54.2681 77.7928 50.5963 76.0146 46.9245 74.2595C43.6337 72.692 40.3342 71.1332 37.0347 69.6091C33.7353 68.0849 30.4012 66.5521 27.0757 65.1145Z" fill="white"/>
<path d="M71.6574 77.074C71.6873 77.0946 71.7192 77.112 71.7527 77.126L72.9911 77.7322C74.9598 78.6848 76.9487 79.5796 78.9578 80.4168C81.4172 81.4733 83.9027 82.4432 86.3967 83.3958C88.8908 84.3484 91.4022 85.2404 93.9396 86.0804C96.477 86.9204 99.0317 87.7345 101.63 88.4099C99.2309 87.1889 96.7887 86.1064 94.338 85.0585C91.8872 84.0107 89.3758 83.0407 86.8904 82.0881C84.4049 81.1355 81.8762 80.2349 79.3388 79.3949C77.3211 78.7194 75.2773 78.0699 73.2076 77.4983C72.7313 77.3598 72.255 77.2385 71.77 77.1086L71.6574 77.074Z" fill="white"/>
<path d="M37.3032 104.786C39.269 102.959 41.1309 101.028 42.9495 99.0704C44.7681 97.1132 46.5521 95.1214 48.3101 93.121C50.0681 91.1205 51.7741 89.0421 53.4281 86.9551C54.7878 85.2231 56.1214 83.4911 57.3858 81.7591L58.1911 80.6246C58.1911 80.6246 58.1911 80.564 58.2518 80.538L58.1652 80.6159C57.8014 80.9623 57.4377 81.3001 57.0827 81.6551C55.5412 83.136 54.0603 84.6775 52.5968 86.2449C50.7695 88.1934 49.0029 90.1939 47.2536 92.203C45.5042 94.2121 43.7896 96.2732 42.1355 98.3689C40.4814 100.465 38.8274 102.534 37.3032 104.786Z" fill="white"/>
<path d="M359.564 226.467L293.336 234.235L298.262 276.234L364.49 268.466L359.564 226.467Z" fill="#EBEBEB"/>
<path d="M293.327 234.253C296.306 236.496 299.32 238.626 302.308 240.835C305.296 243.043 308.327 245.121 311.349 247.234C314.371 249.347 317.662 251.625 320.823 253.799L321.109 254.006C323.897 255.917 326.697 257.826 329.509 259.731L329.925 259.999L330.254 259.644C332.563 257.144 334.843 254.636 337.095 252.119C337.182 252.038 337.263 251.951 337.338 251.859C339.918 249.018 342.487 246.155 345.045 243.268C347.487 240.532 349.92 237.743 352.345 234.963C354.77 232.183 357.186 229.36 359.559 226.485C356.961 229.014 354.45 231.681 351.895 234.218C349.34 236.756 346.829 239.414 344.309 242.108C341.509 245.04 338.717 248.011 335.935 251.019C333.848 253.253 331.769 255.505 329.682 257.748C327.136 256.016 324.59 254.327 322.044 252.647C318.649 250.378 315.243 248.132 311.825 245.909C308.777 243.918 305.714 241.949 302.637 240.003C299.493 238.089 296.428 236.115 293.327 234.253Z" fill="white"/>
<path d="M335.926 252.006L336.013 252.067C336.394 252.326 336.783 252.586 337.164 252.829C338.992 254.041 340.845 255.184 342.733 256.293C345.028 257.652 347.366 258.943 349.713 260.224C352.06 261.506 354.432 262.701 356.84 263.87C359.247 265.039 361.664 266.182 364.149 267.187C361.941 265.663 359.654 264.269 357.36 262.918C355.065 261.567 352.709 260.259 350.371 258.986C348.033 257.713 345.643 256.492 343.244 255.323C341.33 254.387 339.381 253.478 337.407 252.638C336.957 252.442 336.498 252.251 336.03 252.067L335.926 252.006Z" fill="white"/>
<path d="M298.255 274.894C300.446 273.336 302.585 271.664 304.603 269.975C306.621 268.287 308.69 266.511 310.665 264.779C312.639 263.047 314.631 261.203 316.554 259.341C318.121 257.834 319.663 256.301 321.152 254.708L322.105 253.686C322.13 253.662 322.153 253.636 322.174 253.608C322.146 253.634 322.114 253.655 322.079 253.669L320.875 254.535C319.143 255.808 317.48 257.133 315.817 258.492C313.748 260.224 311.739 261.956 309.755 263.688C307.772 265.42 305.789 267.265 303.867 269.127C301.944 270.989 300.056 272.894 298.255 274.894Z" fill="white"/>
<path d="M307.461 138.231C300.801 138.352 291.102 138.621 284.529 138.621H284.148V138.231L284.096 128.54V128.107H284.529C291.396 128.107 300.931 128.177 307.703 128.307C307.703 131.242 307.513 135.235 307.461 138.231ZM307.461 138.231C307.374 135.399 307.287 131.303 307.227 128.54L307.461 128.774C300.827 128.895 291.258 128.956 284.529 128.973L284.962 128.54V138.231L284.572 137.841C291.059 137.841 300.931 138.092 307.504 138.231H307.461Z" fill="#EBEBEB"/>
<path d="M294.67 150.45C288.01 150.571 278.311 150.84 271.738 150.84H271.357V150.45L271.314 140.76V140.292H271.747C278.614 140.292 288.149 140.361 294.921 140.491C294.921 143.427 294.73 147.419 294.678 150.416L294.67 150.45ZM294.67 150.45C294.583 147.618 294.497 143.522 294.436 140.76L294.67 140.993C288.036 141.115 278.467 141.175 271.738 141.193L272.171 140.76L272.119 150.45L271.738 150.06C278.224 150.06 288.097 150.312 294.67 150.45Z" fill="#EBEBEB"/>
<path d="M320.251 150.45C313.592 150.571 303.893 150.84 297.32 150.84H296.956V150.45L296.904 140.76V140.292H297.337C304.204 140.292 313.739 140.361 320.511 140.491C320.511 143.427 320.321 147.419 320.269 150.416L320.251 150.45ZM320.251 150.45C320.165 147.618 320.078 143.522 320.018 140.76L320.251 140.993C313.627 141.115 304.049 141.175 297.32 141.193L297.753 140.76L297.709 150.45L297.32 150.06C303.806 150.06 313.678 150.312 320.251 150.45Z" fill="#EBEBEB"/>
<path d="M363.941 50.4791C357.282 50.609 347.582 50.8688 341.009 50.8688H340.62V50.4791L340.576 40.7886V40.3556H341.018C347.877 40.3556 357.42 40.4249 364.184 40.5548C364.184 43.4905 364.002 47.4828 363.95 50.4791H363.941ZM363.941 50.4791C363.855 47.6473 363.759 43.5511 363.699 40.7886L363.941 41.0224C357.308 41.1437 347.738 41.2043 341.009 41.2216L341.434 40.7886L341.39 50.4791L341.009 50.0894C347.487 50.0894 357.368 50.3406 363.941 50.4791Z" fill="#EBEBEB"/>
<path d="M376.732 62.6984C370.072 62.8196 360.373 63.0881 353.8 63.0881H353.41V62.6984L353.367 53.0079V52.5749H353.8C360.659 52.5749 370.202 52.6441 376.966 52.774C376.966 55.7098 376.784 59.702 376.732 62.6984ZM376.732 62.6984C376.645 59.8666 376.55 55.7704 376.489 53.0079L376.732 53.2417C370.098 53.3629 360.529 53.4235 353.8 53.4409L354.233 53.0079L354.181 62.6984L353.8 62.3087C360.278 62.3087 370.159 62.5598 376.732 62.6984Z" fill="#EBEBEB"/>
<path d="M39.1998 50.488C32.5402 50.6179 22.841 50.8777 16.2681 50.8777H15.887V50.488L15.8351 40.7975V40.3645H16.2681C23.1355 40.3645 32.6701 40.4338 39.4422 40.5637C39.4422 43.5081 39.2517 47.4917 39.1998 50.488ZM39.1998 50.488C39.1132 47.6562 39.0266 43.56 38.9659 40.7975L39.1998 41.04C32.5749 41.1525 22.9969 41.2132 16.2681 41.2305L16.7011 40.7975L16.6578 50.488L16.2681 50.107C22.7544 50.107 32.6268 50.3581 39.1998 50.488Z" fill="#EBEBEB"/>
<path d="M353.8 275.83C360.46 275.7 370.159 275.44 376.732 275.44H377.113V275.83L377.165 285.52V285.953H376.732C369.865 285.953 360.33 285.884 353.558 285.754C353.558 282.81 353.748 278.826 353.8 275.83ZM353.8 275.83C353.887 278.661 353.973 282.758 354.034 285.52L353.8 285.278C360.425 285.165 370.003 285.105 376.732 285.087L376.299 285.52L376.342 275.83L376.732 276.211C370.246 276.211 360.373 275.96 353.8 275.83Z" fill="#EBEBEB"/>
<path d="M16.2681 275.83C22.9276 275.7 32.6268 275.44 39.1998 275.44H39.5895V275.83V285.52V285.953H39.1565C32.2977 285.953 22.7544 285.884 15.991 285.754C15.991 282.81 16.1728 278.826 16.2248 275.83H16.2681ZM16.2681 275.83C16.3547 278.661 16.4499 282.758 16.5106 285.52L16.2681 285.278C22.9016 285.165 32.4709 285.105 39.1998 285.087L38.7668 285.52L38.8187 275.83L39.1998 276.211C32.7221 276.211 22.841 275.96 16.2681 275.83Z" fill="#EBEBEB"/>
<path d="M29.0589 263.61C35.7185 263.48 45.4177 263.221 51.9906 263.221H52.3803V263.61V273.301V273.734H51.9386C45.0799 273.734 35.5366 273.665 28.7731 273.535C28.7731 270.59 28.955 266.607 29.007 263.61H29.0589ZM29.0589 263.61C29.1455 266.442 29.2408 270.538 29.3014 273.301L29.0589 273.058C35.6925 272.946 45.2618 272.885 51.9906 272.868L51.5663 273.301V263.61L51.9473 263.991C45.4696 263.991 35.5886 263.74 29.0156 263.61H29.0589Z" fill="#EBEBEB"/>
<path d="M14.64 388.427C131.169 387.899 261.883 387.899 378.412 388.427C261.883 388.964 131.169 388.955 14.64 388.427Z" fill="#263238"/>
<path d="M347.314 337.186C347.314 337.186 354.917 309.881 360.988 300.615C367.059 291.348 378.36 281.156 378.36 281.156C378.36 281.156 378.118 323.243 347.314 337.186Z" fill="#189AB4"/>
<path d="M344.95 339.645C344.95 339.645 358.624 314.471 354.649 290.067C350.674 265.663 346.431 256.968 346.431 256.968C346.431 256.968 324.945 294.925 344.95 339.645Z" fill="#189AB4"/>
<path d="M339.338 300.069C340.482 306.995 342.238 313.805 344.586 320.42C344.586 311.466 344.794 302.511 345.036 293.574C343.494 288.141 342.621 282.54 342.438 276.895C342.438 276.722 342.681 276.739 342.69 276.895C343.121 281.732 343.923 286.53 345.088 291.244C345.296 283.86 345.536 276.476 345.807 269.092C345.807 269.067 345.817 269.043 345.835 269.025C345.853 269.007 345.877 268.997 345.902 268.997C345.928 268.997 345.952 269.007 345.97 269.025C345.988 269.043 345.998 269.067 345.998 269.092C345.998 280.627 345.998 292.171 345.92 303.732C347.587 299.272 348.905 294.688 349.86 290.023C349.86 289.98 349.947 290.023 349.938 290.023C349.388 295.392 348.03 300.648 345.911 305.611C345.85 312.99 345.772 320.333 345.608 327.738C347.92 319.9 350.388 312.306 351.064 304.018C351.064 303.995 351.073 303.973 351.089 303.957C351.105 303.94 351.127 303.931 351.15 303.931C351.173 303.931 351.195 303.94 351.212 303.957C351.228 303.973 351.237 303.995 351.237 304.018C351.055 313.154 348.7 322.438 345.686 331.029C345.654 331.113 345.6 331.188 345.53 331.245C345.461 333.938 345.383 336.64 345.296 339.333C345.284 339.404 345.248 339.468 345.193 339.514C345.138 339.56 345.069 339.585 344.997 339.585C344.926 339.585 344.857 339.56 344.802 339.514C344.747 339.468 344.711 339.404 344.699 339.333C344.586 333.817 344.551 328.301 344.56 322.784C341.581 315.564 339.763 307.918 339.174 300.13C339.217 300.017 339.329 300 339.338 300.069Z" fill="#263238"/>
<path d="M340.256 296.172C340.733 298.36 341.052 300.58 341.209 302.814C341.204 302.827 341.195 302.839 341.183 302.847C341.172 302.855 341.158 302.859 341.144 302.859C341.129 302.859 341.116 302.855 341.104 302.847C341.092 302.839 341.084 302.827 341.079 302.814C340.547 300.635 340.171 298.421 339.953 296.189C339.962 296.042 340.256 296.007 340.256 296.172Z" fill="#263238"/>
<path d="M348.275 277.778C348.275 277.7 348.405 277.726 348.405 277.778C348.387 279.333 348.154 280.877 347.712 282.368C347.712 282.489 347.504 282.429 347.53 282.316C347.834 280.818 348.05 279.294 348.275 277.778Z" fill="#263238"/>
<path d="M339.97 341.568C339.97 341.568 340.524 315.293 332.99 302.234C325.456 289.175 312.951 282.515 312.951 282.515C312.951 282.515 317.991 328.838 339.97 341.568Z" fill="#189AB4"/>
<path d="M326.235 319.095C329.263 323.684 332.673 328.009 336.428 332.024C334.933 326.655 333.201 321.373 331.232 316.177C327.006 312.479 322.815 308.634 320.225 303.568C320.22 303.56 320.217 303.551 320.215 303.541C320.213 303.532 320.214 303.523 320.216 303.513C320.218 303.504 320.221 303.495 320.227 303.488C320.232 303.48 320.239 303.473 320.247 303.468C320.255 303.463 320.264 303.459 320.273 303.458C320.283 303.456 320.292 303.456 320.301 303.458C320.311 303.46 320.319 303.464 320.327 303.469C320.335 303.475 320.342 303.482 320.347 303.49C323.135 307.984 326.859 311.578 330.782 315.033C327.761 307.207 324.258 299.574 320.295 292.18C320.284 292.161 320.277 292.14 320.274 292.119C320.271 292.097 320.273 292.076 320.278 292.055C320.284 292.034 320.294 292.014 320.307 291.997C320.32 291.98 320.337 291.965 320.355 291.955C320.374 291.944 320.395 291.937 320.416 291.934C320.438 291.931 320.46 291.933 320.48 291.938C320.501 291.944 320.521 291.954 320.538 291.967C320.555 291.98 320.57 291.996 320.581 292.015C322.99 295.891 325.187 299.895 327.162 304.009C326.452 301.195 325.889 298.328 325.162 295.54C325.162 295.524 325.168 295.508 325.179 295.497C325.191 295.486 325.206 295.479 325.222 295.479C325.238 295.479 325.254 295.486 325.265 295.497C325.276 295.508 325.283 295.524 325.283 295.54C326.763 299.115 327.801 302.858 328.375 306.685C331.015 312.512 333.235 318.52 335.017 324.663C334.818 320.723 334.575 316.8 334.151 312.877C334.156 312.864 334.164 312.852 334.176 312.844C334.188 312.836 334.202 312.832 334.216 312.832C334.23 312.832 334.244 312.836 334.255 312.844C334.267 312.852 334.276 312.864 334.281 312.877C335.119 317.236 335.502 321.671 335.424 326.11C336.506 330.024 337.424 333.99 338.16 337.982C338.16 338.005 338.151 338.027 338.135 338.044C338.119 338.06 338.097 338.069 338.074 338.069C338.051 338.069 338.029 338.06 338.012 338.044C337.996 338.027 337.987 338.005 337.987 337.982C337.58 336.311 337.121 334.648 336.679 332.994C336.654 333.001 336.627 333.001 336.602 332.994C332.557 328.941 328.712 324.334 326.21 319.138C326.175 319.095 326.218 319.069 326.235 319.095Z" fill="#263238"/>
<path d="M362.365 338.364L361.412 350.808L358.546 388.427H333.579L330.73 350.808L329.786 338.364H362.382H362.365Z" fill="#455A64"/>
<path d="M362.365 338.364L361.412 350.808H330.73L329.786 338.364H362.382H362.365Z" fill="#37474F"/>
<path d="M327.552 341.802H364.582V332.258H327.552V341.802Z" fill="#455A64"/>
<path d="M309.236 50.4878H160.007C158.006 50.5059 156.028 50.9182 154.186 51.701C152.344 52.4839 150.675 53.622 149.273 55.0503C147.871 56.4786 146.764 58.1691 146.016 60.0253C145.268 61.8814 144.893 63.8668 144.912 65.868V373.047C144.878 377.087 146.448 380.976 149.278 383.859C152.108 386.743 155.967 388.386 160.007 388.427H309.236C313.278 388.388 317.14 386.747 319.973 383.863C322.807 380.979 324.38 377.089 324.348 373.047V65.868C324.382 61.8248 322.81 57.9333 319.976 55.0492C317.142 52.1651 313.279 50.5244 309.236 50.4878ZM314.9 363.547C314.9 371.635 308.838 378.174 301.381 378.174H167.922C160.431 378.174 154.378 371.635 154.378 363.547V77.507C154.378 61.053 160.44 60.187 167.922 60.187H194.664C196.214 60.187 197.487 61.919 197.487 64.1446V65.0886C197.487 70.2153 200.293 70.2326 203.74 70.2326H265.581C269.045 70.2326 271.842 70.2326 271.842 65.0886V64.1879C271.842 61.9969 273.098 60.2303 274.682 60.2303H301.416C308.881 60.2303 314.934 62.4213 314.934 77.5503L314.9 363.547Z" fill="#263238"/>
<path d="M314.908 77.507V363.547C314.908 371.635 308.846 378.174 301.39 378.174H167.922C160.431 378.174 154.378 371.635 154.378 363.547V77.507C154.378 61.053 160.44 60.187 167.922 60.187H194.664C196.214 60.187 197.487 61.919 197.487 64.1446V65.0886C197.487 70.2153 200.293 70.2326 203.74 70.2326H265.581C269.045 70.2326 271.842 70.2326 271.842 65.0886V64.1879C271.842 61.9969 273.098 60.2303 274.683 60.2303H301.416C308.855 60.2303 314.908 62.4213 314.908 77.507Z" fill="white"/>
<path d="M314.908 77.5156V103.496H154.352V77.5156C154.352 61.0616 160.414 60.1956 167.896 60.1956H194.638C196.188 60.1956 197.461 61.9276 197.461 64.1533V65.0972C197.461 70.2239 200.267 70.2412 203.714 70.2412H265.555C269.019 70.2412 271.816 70.2412 271.816 65.0972V64.1966C271.816 62.0056 273.072 60.2389 274.657 60.2389H301.39C308.855 60.2389 314.908 62.4299 314.908 77.5156Z" fill="#189AB4"/>
<path d="M243.065 63.625H226.195C226.058 63.625 225.922 63.5979 225.795 63.5451C225.669 63.4923 225.554 63.415 225.457 63.3176C225.361 63.2202 225.284 63.1046 225.233 62.9775C225.181 62.8504 225.155 62.7143 225.156 62.5772C225.156 62.4407 225.183 62.3055 225.235 62.1795C225.287 62.0534 225.364 61.9388 225.46 61.8423C225.557 61.7458 225.671 61.6693 225.797 61.6171C225.924 61.5648 226.059 61.5379 226.195 61.5379H243.065C243.201 61.5379 243.336 61.5648 243.462 61.6171C243.589 61.6693 243.703 61.7458 243.8 61.8423C243.896 61.9388 243.973 62.0534 244.025 62.1795C244.077 62.3055 244.104 62.4407 244.104 62.5772C244.104 62.8536 243.995 63.1188 243.8 63.3151C243.606 63.5113 243.341 63.6227 243.065 63.625Z" fill="white"/>
<path d="M178.747 84.6948H164.813V93.528H178.747V84.6948Z" fill="white"/>
<path d="M178.747 84.6948C178.184 85.2317 177.613 85.7513 177.015 86.2796C176.417 86.8078 175.872 87.3188 175.283 87.8297L173.482 89.4232L173.421 89.4751L171.819 90.8694L171.741 90.93L171.663 90.8694L170.061 89.4664H170L168.19 87.873L166.458 86.3229C165.896 85.7946 165.315 85.275 164.726 84.7381L166.51 86.1583C167.099 86.6433 167.688 87.1196 168.242 87.6132C168.797 88.1068 169.541 88.7044 170.2 89.2586L171.663 90.5057C172.148 90.09 172.633 89.6397 173.127 89.2586L175.084 87.6132L176.816 86.167C177.561 85.6387 178.149 85.1624 178.747 84.6948Z" fill="#189AB4"/>
<path d="M170.338 89.4145L170.122 89.5963C169.767 89.8908 169.411 90.1766 169.048 90.4623C168.684 90.7481 168.182 91.1205 167.697 91.4409C167.212 91.7613 166.779 92.0731 166.303 92.3762C165.826 92.6793 165.359 92.9737 164.865 93.2422C165.289 92.8698 165.731 92.5234 166.173 92.1857C166.614 91.8479 167.039 91.5275 167.524 91.2071C168.009 90.8867 168.45 90.5749 168.918 90.2718C169.386 89.9687 169.671 89.7955 170.061 89.5704L170.338 89.4232V89.4145Z" fill="#189AB4"/>
<path d="M178.721 93.2509C178.227 92.9824 177.751 92.688 177.283 92.3849C176.816 92.0818 176.348 91.77 175.889 91.4496C175.43 91.1292 175.023 90.8088 174.53 90.471C174.036 90.1333 173.811 89.9168 173.464 89.605L173.248 89.4232L173.525 89.579C173.906 89.8042 174.287 90.038 174.668 90.2805C175.136 90.5836 175.595 90.8954 176.054 91.2158C176.513 91.5362 176.963 91.8566 177.405 92.1944C177.846 92.5321 178.314 92.8785 178.721 93.2509Z" fill="#189AB4"/>
<path d="M181.778 84.6948C181.78 85.2878 181.605 85.8679 181.277 86.3618C180.949 86.8557 180.482 87.2411 179.934 87.4692C179.387 87.6974 178.784 87.7579 178.202 87.6433C177.621 87.5287 177.086 87.244 176.666 86.8253C176.246 86.4066 175.96 85.8727 175.843 85.2912C175.727 84.7097 175.786 84.1068 176.013 83.5588C176.239 83.0108 176.623 82.5423 177.116 82.2127C177.609 81.883 178.189 81.7071 178.782 81.7071C179.575 81.7071 180.336 82.0216 180.897 82.5816C181.459 83.1417 181.776 83.9016 181.778 84.6948Z" fill="#455A64"/>
<path d="M179.734 85.2923C179.734 85.3238 179.728 85.3549 179.716 85.3839C179.703 85.4128 179.685 85.439 179.663 85.4608C179.64 85.4826 179.613 85.4997 179.584 85.5109C179.554 85.5221 179.523 85.5273 179.492 85.5261H179.448V85.8552C179.45 85.8863 179.444 85.9172 179.433 85.9461C179.422 85.975 179.405 86.0013 179.383 86.0233C179.361 86.0452 179.334 86.0624 179.305 86.0737C179.277 86.085 179.246 86.0903 179.215 86.089C179.153 86.089 179.093 86.0644 179.049 86.0206C179.005 85.9767 178.981 85.9172 178.981 85.8552V85.5261H177.63C177.603 85.5284 177.576 85.5249 177.551 85.5159C177.525 85.507 177.502 85.4928 177.483 85.4742C177.439 85.4304 177.415 85.3713 177.415 85.3096C177.415 85.248 177.439 85.1889 177.483 85.1451L179.033 83.136H179.215V84.868H179.258C179.314 84.8048 179.393 84.7666 179.478 84.7617C179.562 84.7569 179.645 84.7857 179.708 84.842C179.771 84.8983 179.81 84.9773 179.814 85.0618C179.819 85.1462 179.79 85.2292 179.734 85.2923ZM178.981 83.9933L178.115 85.0585H178.981V83.9933Z" fill="white"/>
<path d="M190.014 66.4049L189.754 66.6647L189.607 66.8119C188.946 66.1525 188.05 65.7821 187.117 65.7821C186.183 65.7821 185.288 66.1525 184.627 66.8119C184.577 66.7671 184.53 66.7178 184.489 66.6647L184.229 66.4135L184.558 66.1191C185.063 65.7145 185.656 65.4355 186.29 65.3051C186.454 65.3051 186.628 65.3051 186.792 65.2358H187.225H187.572C187.886 65.2718 188.194 65.3475 188.489 65.4609C188.705 65.5384 188.914 65.634 189.113 65.7467C189.321 65.8673 189.518 66.0064 189.702 66.1624L189.979 66.4135L190.014 66.4049Z" fill="white"/>
<path d="M185.441 67.6259C185.311 67.4874 185.173 67.3575 185.034 67.2189C185.475 66.7515 186.061 66.4464 186.697 66.3529C187.153 66.2897 187.617 66.3352 188.052 66.4857C188.487 66.6362 188.88 66.8875 189.2 67.2189L188.784 67.6259C188.34 67.1849 187.739 66.9374 187.113 66.9374C186.486 66.9374 185.886 67.1849 185.441 67.6259Z" fill="white"/>
<path d="M188.377 68.033L187.97 68.44C187.858 68.3237 187.723 68.2312 187.574 68.168C187.425 68.1049 187.265 68.0723 187.104 68.0723C186.942 68.0723 186.782 68.1049 186.633 68.168C186.485 68.2312 186.35 68.3237 186.238 68.44L185.831 68.033C185.993 67.8571 186.19 67.7168 186.409 67.6209C186.628 67.5249 186.865 67.4754 187.104 67.4754C187.343 67.4754 187.58 67.5249 187.799 67.6209C188.018 67.7168 188.215 67.8571 188.377 68.033Z" fill="white"/>
<path d="M187.485 68.8037C187.493 68.8568 187.49 68.911 187.475 68.9626C187.46 69.0142 187.434 69.0621 187.399 69.1028C187.365 69.1435 187.321 69.1762 187.272 69.1987C187.224 69.2211 187.171 69.2327 187.117 69.2327C187.063 69.2327 187.01 69.2211 186.961 69.1987C186.913 69.1762 186.869 69.1435 186.834 69.1028C186.799 69.0621 186.774 69.0142 186.759 68.9626C186.744 68.911 186.741 68.8568 186.749 68.8037C186.762 68.7158 186.807 68.6356 186.874 68.5777C186.942 68.5198 187.028 68.4879 187.117 68.4879C187.206 68.4879 187.292 68.5198 187.359 68.5777C187.427 68.6356 187.471 68.7158 187.485 68.8037Z" fill="white"/>
<path d="M164.813 67.1843C164.813 66.9736 164.876 66.7676 164.993 66.5925C165.11 66.4173 165.276 66.2808 165.471 66.2002C165.665 66.1195 165.879 66.0984 166.086 66.1395C166.293 66.1806 166.483 66.2821 166.631 66.4311C166.78 66.58 166.882 66.7698 166.923 66.9765C166.964 67.1831 166.943 67.3972 166.862 67.5919C166.782 67.7865 166.645 67.9529 166.47 68.0699C166.295 68.187 166.089 68.2494 165.878 68.2494C165.738 68.2494 165.6 68.2219 165.471 68.1684C165.341 68.1148 165.224 68.0364 165.125 67.9375C165.026 67.8385 164.948 67.7211 164.894 67.5919C164.841 67.4627 164.813 67.3241 164.813 67.1843Z" fill="white"/>
<path d="M168.165 67.1843C168.165 66.9736 168.227 66.7676 168.344 66.5925C168.461 66.4173 168.627 66.2808 168.822 66.2002C169.017 66.1195 169.231 66.0984 169.438 66.1395C169.644 66.1806 169.834 66.2821 169.983 66.4311C170.132 66.58 170.233 66.7698 170.274 66.9765C170.316 67.1831 170.294 67.3972 170.214 67.5919C170.133 67.7865 169.997 67.9529 169.822 68.0699C169.646 68.187 169.44 68.2494 169.23 68.2494C169.09 68.2494 168.951 68.2219 168.822 68.1684C168.693 68.1148 168.575 68.0364 168.477 67.9375C168.378 67.8385 168.299 67.7211 168.246 67.5919C168.192 67.4627 168.165 67.3241 168.165 67.1843Z" fill="white"/>
<path d="M171.516 67.1843C171.516 66.9736 171.578 66.7676 171.695 66.5925C171.812 66.4173 171.979 66.2808 172.173 66.2002C172.368 66.1195 172.582 66.0984 172.789 66.1395C172.995 66.1806 173.185 66.2821 173.334 66.4311C173.483 66.58 173.585 66.7698 173.626 66.9765C173.667 67.1831 173.646 67.3972 173.565 67.5919C173.485 67.7865 173.348 67.9529 173.173 68.0699C172.998 68.187 172.792 68.2494 172.581 68.2494C172.299 68.2494 172.028 68.1372 171.828 67.9375C171.628 67.7377 171.516 67.4668 171.516 67.1843Z" fill="white"/>
<path d="M174.85 67.1843C174.85 66.9736 174.912 66.7676 175.029 66.5925C175.147 66.4173 175.313 66.2808 175.508 66.2002C175.702 66.1195 175.916 66.0984 176.123 66.1395C176.33 66.1806 176.519 66.2821 176.668 66.4311C176.817 66.58 176.919 66.7698 176.96 66.9765C177.001 67.1831 176.98 67.3972 176.899 67.5919C176.819 67.7865 176.682 67.9529 176.507 68.0699C176.332 68.187 176.126 68.2494 175.915 68.2494C175.633 68.2494 175.362 68.1372 175.162 67.9375C174.962 67.7377 174.85 67.4668 174.85 67.1843Z" fill="white"/>
<path d="M178.219 67.1843C178.219 66.9736 178.281 66.7676 178.398 66.5925C178.515 66.4173 178.682 66.2808 178.876 66.2002C179.071 66.1195 179.285 66.0984 179.492 66.1395C179.698 66.1806 179.888 66.2821 180.037 66.4311C180.186 66.58 180.288 66.7698 180.329 66.9765C180.37 67.1831 180.349 67.3972 180.268 67.5919C180.187 67.7865 180.051 67.9529 179.876 68.0699C179.701 68.187 179.495 68.2494 179.284 68.2494C179.144 68.2494 179.006 68.2219 178.876 68.1684C178.747 68.1148 178.63 68.0364 178.531 67.9375C178.432 67.8385 178.353 67.7211 178.3 67.5919C178.246 67.4627 178.219 67.3241 178.219 67.1843Z" fill="white"/>
<path d="M302.862 69.5138H294.202V65.4956H302.862V69.5138ZM294.644 69.0722H302.438V65.9372H294.644V69.0722Z" fill="white"/>
<path d="M300.507 66.1797H294.921V68.8297H300.507V66.1797Z" fill="white"/>
<path d="M303.642 66.4308H302.871V68.5785H303.642V66.4308Z" fill="white"/>
<path d="M220.817 86.4095C220.816 86.3409 220.829 86.2728 220.855 86.2093C220.88 86.1457 220.918 86.0879 220.967 86.0395C221.015 85.991 221.073 85.9527 221.137 85.927C221.2 85.9013 221.268 85.8887 221.337 85.8899C221.476 85.8899 221.609 85.9443 221.707 86.0415C221.806 86.1387 221.863 86.2709 221.865 86.4095V91.9605C221.863 92.0991 221.806 92.2313 221.707 92.3285C221.609 92.4257 221.476 92.4802 221.337 92.4801C221.268 92.4813 221.2 92.4687 221.137 92.443C221.073 92.4173 221.015 92.379 220.967 92.3306C220.918 92.2821 220.88 92.2243 220.855 92.1608C220.829 92.0972 220.816 92.0291 220.817 91.9605V86.4095Z" fill="white"/>
<path d="M224.662 91.9605C224.66 92.0962 224.606 92.2258 224.511 92.3225C224.416 92.4193 224.287 92.4757 224.151 92.4801C224.083 92.4801 224.016 92.4667 223.953 92.4406C223.89 92.4145 223.832 92.3762 223.784 92.328C223.736 92.2797 223.697 92.2224 223.671 92.1594C223.645 92.0963 223.632 92.0288 223.632 91.9605V86.4874C223.627 86.3772 223.657 86.2682 223.719 86.1768C223.781 86.0854 223.871 86.0165 223.975 85.9804C224.08 85.9443 224.193 85.943 224.298 85.9767C224.403 86.0103 224.494 86.0771 224.558 86.167L227.598 90.3758V86.4874C227.6 86.3549 227.654 86.2284 227.748 86.1347C227.841 86.041 227.968 85.9874 228.1 85.9851C228.235 85.9851 228.365 86.0374 228.462 86.1312C228.559 86.2249 228.615 86.3526 228.62 86.4874V91.9605C228.62 92.0983 228.565 92.2305 228.468 92.328C228.37 92.4254 228.238 92.4801 228.1 92.4801C228.027 92.4777 227.955 92.4594 227.889 92.4265C227.823 92.3936 227.765 92.3469 227.719 92.2896L227.667 92.2377L224.662 88.0549V91.9605Z" fill="white"/>
<path d="M230.889 91.9605V86.4095C230.888 86.3416 230.9 86.2743 230.925 86.2113C230.95 86.1483 230.988 86.0909 231.035 86.0426C231.083 85.9942 231.14 85.9558 231.202 85.9296C231.265 85.9033 231.332 85.8899 231.4 85.8899H232.742C233.215 85.8899 233.669 86.0778 234.004 86.4124C234.338 86.7469 234.526 87.2007 234.526 87.6738C234.531 88.0614 234.406 88.4395 234.171 88.7477C234.544 88.979 234.831 89.3256 234.989 89.735C235.148 90.1443 235.168 90.5941 235.048 91.0161C234.927 91.4381 234.673 91.8093 234.322 92.0735C233.972 92.3377 233.545 92.4805 233.106 92.4801H231.443C231.372 92.4849 231.301 92.4749 231.234 92.451C231.167 92.427 231.105 92.3895 231.053 92.3407C231.001 92.292 230.96 92.2331 230.931 92.1677C230.903 92.1023 230.889 92.0318 230.889 91.9605ZM231.928 88.4446H232.742C232.943 88.44 233.133 88.3565 233.273 88.2122C233.412 88.0679 233.489 87.8745 233.487 87.6738C233.487 87.5764 233.468 87.48 233.43 87.3901C233.392 87.3002 233.337 87.2187 233.268 87.1502C233.199 87.0818 233.117 87.0277 233.026 86.9913C232.936 86.9548 232.84 86.9366 232.742 86.9377H231.928V88.4446ZM231.928 91.4323H233.106C233.348 91.4094 233.574 91.2968 233.738 91.1167C233.902 90.9365 233.992 90.7016 233.992 90.458C233.992 90.2144 233.902 89.9795 233.738 89.7994C233.574 89.6192 233.348 89.5067 233.106 89.4838H231.928V91.4323Z" fill="white"/>
<path d="M241.679 86.7039C242.291 87.3477 242.632 88.2018 242.632 89.0897C242.632 89.9777 242.291 90.8318 241.679 91.4756C241.393 91.7881 241.045 92.0385 240.658 92.2113C240.27 92.3841 239.852 92.4756 239.428 92.4801C238.996 92.4771 238.569 92.3865 238.173 92.2138C237.777 92.0411 237.42 91.79 237.124 91.4756C236.522 90.8269 236.188 89.9747 236.188 89.0897C236.188 88.2048 236.522 87.3526 237.124 86.7039C237.422 86.3941 237.78 86.1484 238.176 85.9816C238.572 85.8148 238.998 85.7306 239.428 85.734C239.849 85.7326 240.267 85.8179 240.654 85.9848C241.042 86.1517 241.391 86.3964 241.679 86.7039ZM241.558 89.0854C241.554 88.4768 241.326 87.8911 240.917 87.44C240.726 87.2299 240.494 87.062 240.234 86.947C239.975 86.8321 239.694 86.7728 239.41 86.7728C239.127 86.7728 238.846 86.8321 238.586 86.947C238.327 87.062 238.094 87.2299 237.904 87.44C237.488 87.8866 237.258 88.4752 237.263 89.0854C237.256 89.6961 237.485 90.2857 237.904 90.7308C238.093 90.9434 238.325 91.1135 238.585 91.2299C238.844 91.3464 239.126 91.4066 239.41 91.4066C239.695 91.4066 239.976 91.3464 240.236 91.2299C240.496 91.1135 240.728 90.9434 240.917 90.7308C241.319 90.2776 241.538 89.6912 241.532 89.0854H241.558Z" fill="white"/>
<path d="M248.737 86.7818L246.944 89.198L248.737 91.6401C248.777 91.6951 248.805 91.7574 248.821 91.8234C248.836 91.8895 248.839 91.958 248.827 92.0249C248.816 92.0918 248.791 92.1558 248.755 92.2132C248.719 92.2705 248.672 92.32 248.616 92.3589C248.533 92.4262 248.429 92.4629 248.321 92.4628C248.239 92.4612 248.158 92.4408 248.084 92.4033C248.011 92.3658 247.947 92.3121 247.897 92.2463L246.312 90.064L244.719 92.2377C244.671 92.3017 244.61 92.3544 244.54 92.3918C244.469 92.4293 244.392 92.4506 244.312 92.4542C244.202 92.4556 244.095 92.4188 244.009 92.3502C243.953 92.3114 243.906 92.2618 243.869 92.2045C243.833 92.1472 243.809 92.0832 243.797 92.0163C243.786 91.9493 243.788 91.8809 243.804 91.8148C243.819 91.7487 243.848 91.6864 243.888 91.6314L245.671 89.1893L243.888 86.7559C243.848 86.7016 243.82 86.64 243.804 86.5746C243.789 86.5092 243.787 86.4414 243.798 86.3752C243.809 86.309 243.834 86.2457 243.87 86.1891C243.906 86.1325 243.953 86.0838 244.009 86.0457C244.061 86.0019 244.122 85.9699 244.188 85.9516C244.253 85.9334 244.322 85.9295 244.389 85.9402C244.457 85.9509 244.521 85.9759 244.578 86.0135C244.635 86.0511 244.683 86.1005 244.719 86.1583L246.312 88.3233L247.897 86.1583C247.934 86.1003 247.983 86.0508 248.041 86.0131C248.098 85.9754 248.163 85.9504 248.231 85.9398C248.299 85.9291 248.369 85.9331 248.435 85.9513C248.501 85.9696 248.563 86.0018 248.616 86.0457C248.675 86.0837 248.726 86.1337 248.764 86.1925C248.803 86.2512 248.829 86.3174 248.84 86.3868C248.852 86.4562 248.848 86.5272 248.831 86.5953C248.813 86.6633 248.781 86.7269 248.737 86.7818Z" fill="white"/>
<path d="M292.799 92.4282L291.708 93.2942L289.69 90.6269L288.946 89.6483C289.097 89.5906 289.24 89.5119 289.37 89.4145C289.617 89.2242 289.811 88.9738 289.933 88.687L290.721 89.7176L292.799 92.4282Z" fill="white"/>
<path d="M290.651 86.141C290.293 85.661 289.8 85.2987 289.234 85.1004C288.669 84.9021 288.057 84.8768 287.477 85.0278C286.898 85.1788 286.376 85.4991 285.979 85.9479C285.582 86.3968 285.328 86.9537 285.249 87.5476C285.171 88.1415 285.27 88.7454 285.536 89.2823C285.802 89.8191 286.222 90.2645 286.743 90.5615C287.263 90.8585 287.86 90.9937 288.458 90.9498C289.055 90.906 289.626 90.685 290.097 90.3151C290.337 90.1348 290.547 89.9187 290.721 89.6743C291.088 89.1551 291.279 88.532 291.267 87.8963C291.254 87.2605 291.039 86.6455 290.651 86.141ZM289.37 89.3712C289.24 89.4686 289.097 89.5473 288.945 89.605C288.573 89.7464 288.163 89.7552 287.785 89.6299C287.407 89.5045 287.084 89.2527 286.87 88.9169C286.656 88.581 286.564 88.1817 286.61 87.7861C286.656 87.3905 286.837 87.0228 287.122 86.7449C287.408 86.4671 287.78 86.2961 288.177 86.2607C288.573 86.2253 288.97 86.3278 289.3 86.5507C289.63 86.7737 289.873 87.1036 289.988 87.4848C290.104 87.866 290.084 88.2753 289.933 88.6438C289.811 88.9305 289.617 89.181 289.37 89.3712Z" fill="white"/>
<path d="M277.982 85.1538H270.067V93.069H277.982V85.1538Z" fill="white"/>
<path d="M274.457 86.626H273.591V91.6055H274.457V86.626Z" fill="#189AB4"/>
<path d="M271.539 88.6871V89.5531H276.518V88.6871H271.539Z" fill="#189AB4"/>
<path d="M302.854 85.6647C302.854 85.8 302.813 85.9323 302.738 86.0448C302.663 86.1573 302.556 86.245 302.431 86.2968C302.306 86.3485 302.169 86.3621 302.036 86.3357C301.903 86.3093 301.781 86.2441 301.686 86.1485C301.59 86.0528 301.525 85.9309 301.498 85.7982C301.472 85.6655 301.486 85.5279 301.537 85.4029C301.589 85.2779 301.677 85.171 301.789 85.0959C301.902 85.0207 302.034 84.9806 302.169 84.9806C302.259 84.9806 302.348 84.9983 302.431 85.0326C302.514 85.067 302.59 85.1174 302.653 85.1809C302.717 85.2445 302.767 85.3199 302.801 85.4029C302.836 85.4859 302.854 85.5749 302.854 85.6647Z" fill="white"/>
<path d="M302.854 89.198C302.854 89.3333 302.813 89.4656 302.738 89.5781C302.663 89.6906 302.556 89.7783 302.431 89.8301C302.306 89.8818 302.169 89.8954 302.036 89.869C301.903 89.8426 301.781 89.7774 301.686 89.6818C301.59 89.5861 301.525 89.4642 301.498 89.3315C301.472 89.1988 301.486 89.0612 301.537 88.9362C301.589 88.8112 301.677 88.7043 301.789 88.6292C301.902 88.554 302.034 88.5139 302.169 88.5139C302.351 88.5139 302.525 88.5859 302.653 88.7142C302.781 88.8425 302.854 89.0166 302.854 89.198Z" fill="white"/>
<path d="M302.854 92.7659C302.854 92.9012 302.813 93.0335 302.738 93.146C302.663 93.2585 302.556 93.3462 302.431 93.398C302.306 93.4498 302.169 93.4633 302.036 93.4369C301.903 93.4105 301.781 93.3454 301.686 93.2497C301.59 93.154 301.525 93.0321 301.498 92.8994C301.472 92.7667 301.486 92.6291 301.537 92.5041C301.589 92.3791 301.677 92.2723 301.789 92.1971C301.902 92.1219 302.034 92.0818 302.169 92.0818C302.351 92.0818 302.525 92.1539 302.653 92.2822C302.781 92.4105 302.854 92.5845 302.854 92.7659Z" fill="white"/>
<path d="M314.908 277.025H154.352V301.818H314.908V277.025Z" fill="#189AB4"/>
<path opacity="0.7" d="M314.908 277.025H154.352V301.818H314.908V277.025Z" fill="white"/>
<path d="M314.908 227.438H154.352V252.231H314.908V227.438Z" fill="#189AB4"/>
<path opacity="0.7" d="M314.908 227.438H154.352V252.231H314.908V227.438Z" fill="white"/>
<path d="M314.908 103.461H154.352V128.255H314.908V103.461Z" fill="#EBEBEB"/>
<path d="M180.444 120.651C179.945 120.963 179.398 121.191 178.825 121.327C177.451 121.661 176.001 121.464 174.765 120.776C173.529 120.089 172.598 118.96 172.157 117.616C171.716 116.272 171.799 114.811 172.387 113.525C172.976 112.239 174.028 111.223 175.334 110.678C176.639 110.134 178.102 110.101 179.43 110.588C180.758 111.074 181.854 112.043 182.499 113.302C183.144 114.561 183.291 116.017 182.91 117.379C182.529 118.741 181.649 119.909 180.444 120.651Z" fill="#189AB4"/>
<path d="M179.18 115.178C179.18 115.521 179.078 115.855 178.888 116.14C178.698 116.425 178.427 116.647 178.111 116.778C177.794 116.909 177.446 116.944 177.11 116.877C176.774 116.81 176.466 116.645 176.223 116.403C175.981 116.16 175.816 115.852 175.749 115.516C175.683 115.18 175.717 114.832 175.848 114.515C175.979 114.199 176.201 113.928 176.486 113.738C176.771 113.548 177.106 113.446 177.448 113.446C177.907 113.446 178.348 113.628 178.673 113.953C178.998 114.278 179.18 114.719 179.18 115.178Z" fill="white"/>
<path d="M180.444 119.941V120.651C179.945 120.963 179.398 121.191 178.825 121.327C178.095 121.509 177.335 121.543 176.592 121.427C175.848 121.311 175.135 121.047 174.495 120.651V119.941C174.495 119.156 174.807 118.402 175.362 117.847C175.918 117.291 176.671 116.979 177.457 116.979C178.242 116.979 178.996 117.291 179.551 117.847C180.106 118.402 180.418 119.156 180.418 119.941H180.444Z" fill="white"/>
<path d="M212.85 119.586H205.402L208.433 115.862L205.402 112.138H212.85L215.881 115.862L212.85 119.586Z" fill="white"/>
<path d="M193.712 112.138L194.915 114.589L197.626 114.979L195.669 116.893L196.128 119.586L193.712 118.313L191.287 119.586L191.754 116.893L189.789 114.979L192.499 114.589L193.712 112.138Z" fill="#189AB4"/>
<path d="M265.165 114.347H221.224V117.378H265.165V114.347Z" fill="#263238"/>
<path d="M300.507 114.347H283.282V117.378H300.507V114.347Z" fill="#455A64"/>
<path d="M180.444 145.488C179.945 145.8 179.398 146.028 178.825 146.163C177.451 146.498 176.001 146.301 174.765 145.613C173.529 144.926 172.598 143.797 172.157 142.453C171.716 141.109 171.799 139.648 172.387 138.362C172.976 137.076 174.028 136.059 175.334 135.515C176.639 134.97 178.102 134.938 179.43 135.425C180.758 135.911 181.854 136.88 182.499 138.139C183.144 139.398 183.291 140.854 182.91 142.216C182.529 143.578 181.649 144.746 180.444 145.488Z" fill="#455A64"/>
<path d="M179.18 140.015C179.18 140.357 179.078 140.692 178.888 140.977C178.698 141.262 178.427 141.484 178.111 141.615C177.794 141.746 177.446 141.78 177.11 141.714C176.774 141.647 176.466 141.482 176.223 141.24C175.981 140.997 175.816 140.689 175.749 140.353C175.683 140.017 175.717 139.669 175.848 139.352C175.979 139.036 176.201 138.765 176.486 138.575C176.771 138.384 177.106 138.283 177.448 138.283C177.907 138.283 178.348 138.465 178.673 138.79C178.998 139.115 179.18 139.556 179.18 140.015Z" fill="white"/>
<path d="M180.444 144.735V145.488C179.945 145.8 179.398 146.028 178.825 146.163C178.095 146.348 177.335 146.383 176.591 146.267C175.847 146.151 175.134 145.886 174.495 145.488V144.778C174.495 143.992 174.807 143.239 175.362 142.684C175.918 142.128 176.671 141.816 177.457 141.816C178.242 141.816 178.996 142.128 179.551 142.684C180.106 143.239 180.418 143.992 180.418 144.778L180.444 144.735Z" fill="white"/>
<path d="M212.85 144.38H205.402L208.433 140.656L205.402 136.932H212.85L215.881 140.656L212.85 144.38Z" fill="white"/>
<path d="M212.954 144.622H204.943L208.156 140.682L204.943 136.741H212.954L216.167 140.682L212.954 144.622ZM205.853 144.189H212.781L215.639 140.682L212.781 137.218H205.853L208.719 140.682L205.853 144.189Z" fill="#EBEBEB"/>
<path d="M193.712 136.932L194.915 139.383L197.626 139.772L195.669 141.686L196.128 144.38L193.712 143.106L191.287 144.38L191.754 141.686L189.789 139.772L192.499 139.383L193.712 136.932Z" fill="#189AB4"/>
<path d="M265.165 139.14H221.224V142.171H265.165V139.14Z" fill="#263238"/>
<path d="M300.507 139.14H283.282V142.171H300.507V139.14Z" fill="#455A64"/>
<path d="M289.145 153.048H154.343V177.85H289.145V153.048Z" fill="#189AB4"/>
<path opacity="0.7" d="M289.145 153.048H154.343V177.85H289.145V153.048Z" fill="white"/>
<path d="M187.849 163.934H154.343V166.965H187.849V163.934Z" fill="#189AB4"/>
<path d="M223.19 163.934H205.965V166.965H223.19V163.934Z" fill="#189AB4"/>
<path d="M180.444 195.032C179.433 195.656 178.25 195.945 177.064 195.855C175.879 195.766 174.752 195.304 173.846 194.535C172.939 193.766 172.299 192.73 172.018 191.575C171.737 190.42 171.828 189.206 172.279 188.106C172.73 187.006 173.518 186.078 174.529 185.453C175.541 184.828 176.724 184.54 177.909 184.629C179.094 184.718 180.221 185.181 181.128 185.949C182.034 186.718 182.674 187.754 182.956 188.909C183.237 190.064 183.146 191.279 182.695 192.379C182.244 193.478 181.456 194.407 180.444 195.032Z" fill="#A6A6A6"/>
<path d="M179.18 189.602C179.18 189.945 179.078 190.279 178.888 190.564C178.698 190.849 178.427 191.071 178.111 191.202C177.794 191.333 177.446 191.368 177.11 191.301C176.774 191.234 176.466 191.069 176.223 190.827C175.981 190.585 175.816 190.276 175.749 189.94C175.683 189.604 175.717 189.256 175.848 188.939C175.979 188.623 176.201 188.352 176.486 188.162C176.771 187.972 177.106 187.87 177.448 187.87C177.907 187.87 178.348 188.053 178.673 188.377C178.998 188.702 179.18 189.143 179.18 189.602Z" fill="white"/>
<path d="M180.444 194.33V195.032C179.556 195.585 178.53 195.879 177.483 195.879C176.436 195.879 175.41 195.585 174.521 195.032V194.33C174.521 193.545 174.833 192.792 175.388 192.236C175.944 191.681 176.697 191.369 177.483 191.369C178.268 191.369 179.021 191.681 179.577 192.236C180.132 192.792 180.444 193.545 180.444 194.33Z" fill="white"/>
<path d="M212.85 193.967H205.402L208.433 190.243L205.402 186.519H212.85L215.881 190.243L212.85 193.967Z" fill="white"/>
<path d="M212.954 194.183H204.943L208.156 190.243L204.943 186.303H212.954L216.167 190.243L212.954 194.183ZM205.853 193.75H212.781L215.639 190.286L212.781 186.779H205.853L208.719 190.286L205.853 193.75Z" fill="#EBEBEB"/>
<path d="M193.712 186.519L194.915 188.97L197.626 189.368L195.669 191.273L196.128 193.967L193.712 192.694L191.287 193.967L191.754 191.273L189.789 189.368L192.499 188.97L193.712 186.519Z" fill="#189AB4"/>
<path d="M265.165 188.727H221.224V191.758H265.165V188.727Z" fill="#DBDBDB"/>
<path d="M300.507 188.727H283.282V191.758H300.507V188.727Z" fill="#C7C7C7"/>
<path d="M314.908 202.644H154.352V227.438H314.908V202.644Z" fill="#EBEBEB"/>
<path d="M180.444 219.825C179.433 220.45 178.25 220.738 177.064 220.649C175.879 220.56 174.752 220.098 173.846 219.329C172.939 218.56 172.299 217.524 172.018 216.369C171.737 215.214 171.828 214 172.279 212.9C172.73 211.8 173.518 210.871 174.529 210.247C175.541 209.622 176.724 209.334 177.909 209.423C179.094 209.512 180.221 209.974 181.128 210.743C182.034 211.512 182.674 212.548 182.956 213.703C183.237 214.858 183.146 216.072 182.695 217.172C182.244 218.272 181.456 219.201 180.444 219.825Z" fill="#37474F"/>
<path d="M179.18 214.396C179.18 214.738 179.078 215.073 178.888 215.358C178.698 215.643 178.427 215.865 178.111 215.996C177.794 216.127 177.446 216.161 177.11 216.094C176.774 216.028 176.466 215.863 176.223 215.62C175.981 215.378 175.816 215.069 175.749 214.734C175.683 214.398 175.717 214.049 175.848 213.733C175.979 213.416 176.201 213.146 176.486 212.956C176.771 212.765 177.106 212.664 177.448 212.664C177.907 212.664 178.348 212.846 178.673 213.171C178.998 213.496 179.18 213.936 179.18 214.396Z" fill="white"/>
<path d="M180.444 219.098V219.799C179.556 220.353 178.53 220.646 177.483 220.646C176.436 220.646 175.41 220.353 174.521 219.799V219.098C174.521 218.313 174.833 217.559 175.388 217.004C175.944 216.448 176.697 216.136 177.483 216.136C178.268 216.136 179.021 216.448 179.577 217.004C180.132 217.559 180.444 218.313 180.444 219.098Z" fill="white"/>
<path d="M212.85 218.76H205.402L208.433 215.036L205.402 211.313H212.85L215.881 215.036L212.85 218.76Z" fill="white"/>
<path d="M193.712 211.313L194.915 213.763L197.626 214.162L195.669 216.067L196.128 218.76L193.712 217.487L191.287 218.76L191.754 216.067L189.789 214.162L192.499 213.763L193.712 211.313Z" fill="#189AB4"/>
<path d="M265.165 213.521H221.224V216.552H265.165V213.521Z" fill="#DBDBDB"/>
<path d="M300.507 213.521H283.282V216.552H300.507V213.521Z" fill="#C7C7C7"/>
<path d="M314.908 301.818H154.352V326.612H314.908V301.818Z" fill="#EBEBEB"/>
<path d="M180.444 319.008C179.945 319.321 179.398 319.549 178.825 319.684C177.451 320.018 176.001 319.822 174.765 319.134C173.529 318.446 172.598 317.318 172.157 315.973C171.716 314.629 171.799 313.169 172.387 311.883C172.976 310.597 174.028 309.58 175.334 309.035C176.639 308.491 178.102 308.459 179.43 308.945C180.758 309.431 181.854 310.401 182.499 311.659C183.144 312.918 183.291 314.374 182.91 315.736C182.529 317.098 181.649 318.267 180.444 319.008Z" fill="#37474F"/>
<path d="M179.18 313.57C179.18 313.913 179.078 314.247 178.888 314.532C178.698 314.817 178.427 315.039 178.111 315.17C177.794 315.301 177.446 315.336 177.11 315.269C176.774 315.202 176.466 315.037 176.223 314.795C175.981 314.552 175.816 314.244 175.749 313.908C175.683 313.572 175.717 313.224 175.848 312.907C175.979 312.591 176.201 312.32 176.486 312.13C176.771 311.94 177.106 311.838 177.448 311.838C177.907 311.838 178.348 312.02 178.673 312.345C178.998 312.67 179.18 313.111 179.18 313.57Z" fill="white"/>
<path d="M180.444 318.298V319.008C179.945 319.321 179.398 319.549 178.825 319.684C178.094 319.867 177.334 319.9 176.59 319.783C175.846 319.665 175.134 319.399 174.495 319V318.298C174.495 317.513 174.807 316.759 175.362 316.204C175.918 315.649 176.671 315.337 177.457 315.337C178.242 315.337 178.996 315.649 179.551 316.204C180.106 316.759 180.418 317.513 180.418 318.298H180.444Z" fill="white"/>
<path d="M212.85 317.943H205.402L208.433 314.219L205.402 310.496H212.85L215.881 314.219L212.85 317.943Z" fill="white"/>
<path d="M193.712 310.496L194.915 312.946L197.626 313.336L195.669 315.241L196.128 317.943L193.712 316.67L191.287 317.943L191.754 315.241L189.789 313.336L192.499 312.946L193.712 310.496Z" fill="#189AB4"/>
<path d="M265.165 312.704H221.224V315.735H265.165V312.704Z" fill="#DBDBDB"/>
<path d="M300.507 312.704H283.282V315.735H300.507V312.704Z" fill="#C7C7C7"/>
<path d="M314.908 351.406V363.53C314.952 366.035 314.361 368.51 313.19 370.725C312.02 372.94 310.308 374.823 308.214 376.199H161.089C158.989 374.831 157.27 372.953 156.092 370.74C154.914 368.528 154.315 366.053 154.352 363.547V351.423L314.908 351.406Z" fill="#EBEBEB"/>
<path d="M180.444 368.596C179.433 369.22 178.25 369.508 177.064 369.419C175.879 369.33 174.752 368.868 173.846 368.099C172.939 367.33 172.299 366.294 172.018 365.139C171.737 363.984 171.828 362.77 172.279 361.67C172.73 360.57 173.518 359.641 174.529 359.017C175.541 358.392 176.724 358.104 177.909 358.193C179.094 358.282 180.221 358.744 181.128 359.513C182.034 360.282 182.674 361.318 182.956 362.473C183.237 363.628 183.146 364.842 182.695 365.942C182.244 367.042 181.456 367.971 180.444 368.596Z" fill="#189AB4"/>
<path d="M179.18 363.166C179.18 363.508 179.078 363.843 178.888 364.128C178.698 364.413 178.427 364.635 178.111 364.766C177.794 364.897 177.446 364.931 177.11 364.864C176.774 364.798 176.466 364.633 176.223 364.39C175.981 364.148 175.816 363.84 175.749 363.504C175.683 363.168 175.717 362.819 175.848 362.503C175.979 362.186 176.201 361.916 176.486 361.726C176.771 361.535 177.106 361.434 177.448 361.434C177.907 361.434 178.348 361.616 178.673 361.941C178.998 362.266 179.18 362.706 179.18 363.166Z" fill="white"/>
<path d="M180.444 367.885V368.596C179.556 369.149 178.53 369.442 177.483 369.442C176.436 369.442 175.41 369.149 174.521 368.596V367.885C174.521 367.1 174.833 366.347 175.388 365.791C175.944 365.236 176.697 364.924 177.483 364.924C178.268 364.924 179.021 365.236 179.577 365.791C180.132 366.347 180.444 367.1 180.444 367.885Z" fill="white"/>
<path d="M212.85 367.53H205.402L208.433 363.807L205.402 360.083H212.85L215.881 363.807L212.85 367.53Z" fill="white"/>
<path d="M193.712 360.083L194.915 362.534L197.626 362.923L195.669 364.837L196.128 367.53L193.712 366.257L191.287 367.53L191.754 364.837L189.789 362.923L192.499 362.534L193.712 360.083Z" fill="#189AB4"/>
<path d="M265.165 362.291H221.224V365.322H265.165V362.291Z" fill="#DBDBDB"/>
<path d="M300.507 362.291H283.282V365.322H300.507V362.291Z" fill="#C7C7C7"/>
<path d="M187.849 238.315H154.343V241.346H187.849V238.315Z" fill="#189AB4"/>
<path d="M223.19 238.315H205.965V241.346H223.19V238.315Z" fill="#189AB4"/>
<path d="M314.908 252.231H154.352V277.025H314.908V252.231Z" fill="#EBEBEB"/>
<path d="M180.444 269.421C179.433 270.045 178.25 270.333 177.065 270.244C175.88 270.154 174.754 269.692 173.848 268.924C172.942 268.155 172.302 267.119 172.02 265.965C171.739 264.811 171.829 263.597 172.28 262.497C172.73 261.397 173.517 260.469 174.528 259.843C175.538 259.218 176.721 258.929 177.906 259.017C179.091 259.105 180.217 259.566 181.125 260.333C182.032 261.101 182.673 262.136 182.956 263.29C183.242 264.446 183.153 265.664 182.702 266.766C182.25 267.868 181.46 268.798 180.444 269.421Z" fill="#189AB4"/>
<path d="M179.18 263.983C179.18 264.325 179.078 264.66 178.888 264.945C178.698 265.23 178.427 265.452 178.111 265.583C177.794 265.714 177.446 265.748 177.11 265.681C176.774 265.615 176.466 265.45 176.223 265.207C175.981 264.965 175.816 264.657 175.749 264.321C175.683 263.985 175.717 263.636 175.848 263.32C175.979 263.003 176.201 262.733 176.486 262.543C176.771 262.352 177.106 262.251 177.448 262.251C177.907 262.251 178.348 262.433 178.673 262.758C178.998 263.083 179.18 263.523 179.18 263.983Z" fill="white"/>
<path d="M180.444 268.711V269.421C179.554 269.971 178.529 270.262 177.483 270.262C176.436 270.262 175.411 269.971 174.521 269.421V268.72C174.521 267.934 174.833 267.181 175.388 266.626C175.944 266.07 176.697 265.758 177.483 265.758C178.268 265.758 179.021 266.07 179.577 266.626C180.132 267.181 180.444 267.934 180.444 268.72V268.711Z" fill="white"/>
<path d="M212.85 268.356H205.402L208.433 264.624L205.402 260.9H212.85L215.881 264.624L212.85 268.356Z" fill="white"/>
<path d="M193.712 260.9L194.915 263.359L197.626 263.749L195.669 265.654L196.128 268.356L193.712 267.083L191.287 268.356L191.754 265.654L189.789 263.749L192.499 263.359L193.712 260.9Z" fill="#189AB4"/>
<path d="M265.165 263.117H221.224V266.148H265.165V263.117Z" fill="#263238"/>
<path d="M300.507 263.117H283.282V266.148H300.507V263.117Z" fill="#455A64"/>
<path d="M187.849 287.91H154.343V290.941H187.849V287.91Z" fill="#189AB4"/>
<path d="M223.19 287.91H205.965V290.941H223.19V287.91Z" fill="#189AB4"/>
<path d="M180.444 343.802C179.945 344.114 179.398 344.342 178.825 344.477C177.451 344.812 176.001 344.615 174.765 343.927C173.529 343.24 172.598 342.111 172.157 340.767C171.716 339.423 171.799 337.962 172.387 336.676C172.976 335.39 174.028 334.373 175.334 333.829C176.639 333.284 178.102 333.252 179.43 333.739C180.758 334.225 181.854 335.194 182.499 336.453C183.144 337.712 183.291 339.168 182.91 340.53C182.529 341.892 181.649 343.06 180.444 343.802Z" fill="#A6A6A6"/>
<path d="M179.18 338.372C179.18 338.715 179.078 339.05 178.888 339.334C178.698 339.619 178.427 339.841 178.111 339.972C177.794 340.103 177.446 340.138 177.11 340.071C176.774 340.004 176.466 339.839 176.223 339.597C175.981 339.355 175.816 339.046 175.749 338.71C175.683 338.374 175.717 338.026 175.848 337.709C175.979 337.393 176.201 337.122 176.486 336.932C176.771 336.742 177.106 336.64 177.448 336.64C177.907 336.64 178.348 336.823 178.673 337.147C178.998 337.472 179.18 337.913 179.18 338.372Z" fill="white"/>
<path d="M180.444 343.092V343.802C179.945 344.114 179.398 344.342 178.825 344.477C178.095 344.662 177.335 344.697 176.591 344.581C175.847 344.465 175.134 344.2 174.495 343.802V343.092C174.495 342.306 174.807 341.553 175.362 340.998C175.918 340.442 176.671 340.13 177.457 340.13C178.242 340.13 178.996 340.442 179.551 340.998C180.106 341.553 180.418 342.306 180.418 343.092H180.444Z" fill="white"/>
<path d="M212.85 342.737H205.402L208.433 339.013L205.402 335.289H212.85L215.881 339.013L212.85 342.737Z" fill="white"/>
<path d="M212.954 342.936H204.943L208.156 338.996L204.943 335.055H212.954L216.167 338.996L212.954 342.936ZM205.853 342.503H212.781L215.639 339.039L212.781 335.532H205.853L208.719 339.039L205.853 342.503Z" fill="#EBEBEB"/>
<path d="M193.712 335.289L194.915 337.74L197.626 338.13L195.669 340.044L196.128 342.737L193.712 341.464L191.287 342.737L191.754 340.044L189.789 338.13L192.499 337.74L193.712 335.289Z" fill="white"/>
<path d="M196.413 343.135L193.712 341.706L191.001 343.135L191.521 340.113L189.33 337.982L192.352 337.541L193.712 334.796L195.063 337.541L198.094 337.982L195.903 340.113L196.413 343.135ZM190.256 338.286L191.988 339.966L191.581 342.338L193.72 341.221L195.851 342.338L195.444 339.966L197.176 338.286L194.794 337.939L193.729 335.774L192.664 337.939L190.256 338.286Z" fill="#EBEBEB"/>
<path d="M265.165 337.498H221.224V340.529H265.165V337.498Z" fill="#DBDBDB"/>
<path d="M300.507 337.498H283.282V340.529H300.507V337.498Z" fill="#C7C7C7"/>
<path opacity="0.3" d="M263.364 153.048H237.592V177.842H263.364V153.048Z" fill="#189AB4"/>
<path d="M250.478 160.946C249.585 160.946 248.713 161.211 247.971 161.706C247.229 162.202 246.651 162.907 246.309 163.731C245.968 164.556 245.879 165.463 246.053 166.338C246.227 167.213 246.656 168.017 247.287 168.648C247.918 169.279 248.722 169.709 249.598 169.883C250.473 170.057 251.38 169.968 252.204 169.626C253.029 169.285 253.733 168.707 254.229 167.965C254.725 167.223 254.99 166.35 254.99 165.458C254.991 164.865 254.875 164.278 254.649 163.73C254.422 163.182 254.09 162.684 253.671 162.265C253.252 161.846 252.754 161.514 252.206 161.287C251.658 161.061 251.071 160.945 250.478 160.946ZM248.373 165.908C248.254 165.908 248.139 165.861 248.055 165.776C247.971 165.692 247.923 165.577 247.923 165.458C247.904 165.391 247.901 165.32 247.913 165.252C247.926 165.183 247.955 165.119 247.997 165.063C248.039 165.007 248.093 164.962 248.155 164.931C248.218 164.9 248.286 164.884 248.356 164.884C248.426 164.884 248.495 164.9 248.557 164.931C248.619 164.962 248.674 165.007 248.716 165.063C248.758 165.119 248.786 165.183 248.799 165.252C248.812 165.32 248.808 165.391 248.789 165.458C248.789 165.572 248.747 165.681 248.67 165.765C248.593 165.848 248.487 165.9 248.373 165.908ZM250.478 165.908C250.359 165.906 250.246 165.858 250.162 165.774C250.078 165.69 250.03 165.577 250.027 165.458C250.027 165.339 250.075 165.224 250.159 165.14C250.244 165.055 250.358 165.008 250.478 165.008C250.597 165.008 250.712 165.055 250.796 165.14C250.881 165.224 250.928 165.339 250.928 165.458C250.928 165.517 250.916 165.576 250.894 165.63C250.871 165.685 250.838 165.735 250.796 165.776C250.754 165.818 250.705 165.851 250.65 165.874C250.595 165.897 250.537 165.908 250.478 165.908ZM252.591 165.908C252.471 165.908 252.357 165.861 252.272 165.776C252.188 165.692 252.141 165.577 252.141 165.458C252.121 165.391 252.118 165.32 252.131 165.252C252.144 165.183 252.172 165.119 252.214 165.063C252.256 165.007 252.31 164.962 252.373 164.931C252.435 164.9 252.504 164.884 252.574 164.884C252.643 164.884 252.712 164.9 252.774 164.931C252.837 164.962 252.891 165.007 252.933 165.063C252.975 165.119 253.003 165.183 253.016 165.252C253.029 165.32 253.026 165.391 253.007 165.458C253.007 165.572 252.964 165.681 252.887 165.765C252.81 165.848 252.704 165.9 252.591 165.908Z" fill="white"/>
<path opacity="0.1" d="M289.136 153.048H263.364V177.842H289.136V153.048Z" fill="#189AB4"/>
<path d="M272.743 160.937H272.214V169.953H272.743V160.937Z" fill="white"/>
<path d="M272.483 161.353C275.254 160.617 278.034 162.089 280.814 161.353V167.493C278.034 168.229 275.254 166.757 272.483 167.493V161.353Z" fill="white"/>
<path d="M314.908 153.048H289.136V177.842H314.908V153.048Z" fill="#189AB4"/>
<path d="M304.923 170.065H299.199L298.853 162.462H305.192L304.923 170.065Z" fill="white"/>
<path d="M306.014 161.916H298.047V162.47H306.014V161.916Z" fill="white"/>
<path d="M303.451 162.184H303.035V161.249H301.017V162.184H300.602V160.833H303.451V162.184Z" fill="white"/>
<path d="M302.23 163.198H301.814V169.147H302.23V163.198Z" fill="#189AB4"/>
<path d="M300.677 163.164L300.262 163.181L300.513 169.134L300.929 169.116L300.677 163.164Z" fill="#189AB4"/>
<path d="M303.367 163.175L303.111 169.127L303.527 169.145L303.782 163.193L303.367 163.175Z" fill="#189AB4"/>
<path opacity="0.3" d="M263.364 227.438H237.592V252.231H263.364V227.438Z" fill="#189AB4"/>
<path d="M250.478 235.327C249.585 235.327 248.713 235.591 247.971 236.087C247.229 236.583 246.651 237.288 246.309 238.112C245.968 238.937 245.879 239.844 246.053 240.719C246.227 241.594 246.656 242.398 247.287 243.029C247.918 243.66 248.722 244.09 249.598 244.264C250.473 244.438 251.38 244.349 252.204 244.007C253.029 243.666 253.733 243.087 254.229 242.345C254.725 241.603 254.99 240.731 254.99 239.839C254.991 239.246 254.875 238.659 254.649 238.111C254.422 237.563 254.09 237.065 253.671 236.646C253.252 236.227 252.754 235.894 252.206 235.668C251.658 235.442 251.071 235.326 250.478 235.327ZM248.373 240.289C248.254 240.289 248.139 240.242 248.055 240.157C247.971 240.073 247.923 239.958 247.923 239.839C247.904 239.772 247.901 239.701 247.913 239.633C247.926 239.564 247.955 239.499 247.997 239.444C248.039 239.388 248.093 239.343 248.155 239.312C248.218 239.281 248.286 239.265 248.356 239.265C248.426 239.265 248.495 239.281 248.557 239.312C248.619 239.343 248.674 239.388 248.716 239.444C248.758 239.499 248.786 239.564 248.799 239.633C248.812 239.701 248.808 239.772 248.789 239.839C248.789 239.952 248.747 240.062 248.67 240.146C248.593 240.229 248.487 240.28 248.373 240.289ZM250.478 240.289C250.359 240.287 250.246 240.239 250.162 240.155C250.078 240.071 250.03 239.957 250.027 239.839C250.027 239.719 250.075 239.605 250.159 239.52C250.244 239.436 250.358 239.388 250.478 239.388C250.597 239.388 250.712 239.436 250.796 239.52C250.881 239.605 250.928 239.719 250.928 239.839C250.928 239.958 250.881 240.073 250.796 240.157C250.712 240.242 250.597 240.289 250.478 240.289ZM252.591 240.289C252.471 240.289 252.357 240.242 252.272 240.157C252.188 240.073 252.141 239.958 252.141 239.839C252.121 239.772 252.118 239.701 252.131 239.633C252.144 239.564 252.172 239.499 252.214 239.444C252.256 239.388 252.31 239.343 252.373 239.312C252.435 239.281 252.504 239.265 252.574 239.265C252.643 239.265 252.712 239.281 252.774 239.312C252.837 239.343 252.891 239.388 252.933 239.444C252.975 239.499 253.003 239.564 253.016 239.633C253.029 239.701 253.026 239.772 253.007 239.839C253.007 239.952 252.964 240.062 252.887 240.146C252.81 240.229 252.704 240.28 252.591 240.289Z" fill="white"/>
<path opacity="0.1" d="M289.136 227.438H263.364V252.231H289.136V227.438Z" fill="#189AB4"/>
<path d="M272.743 235.327H272.214V244.342H272.743V235.327Z" fill="white"/>
<path d="M272.483 235.743C275.254 234.998 278.034 236.479 280.814 235.743V241.874C278.034 242.61 275.254 241.138 272.483 241.874V235.743Z" fill="white"/>
<path d="M314.908 227.438H289.136V252.231H314.908V227.438Z" fill="#189AB4"/>
<path d="M304.923 244.454H299.199L298.853 236.851H305.192L304.923 244.454Z" fill="white"/>
<path d="M306.014 236.297H298.047V236.851H306.014V236.297Z" fill="white"/>
<path d="M303.451 236.574H303.035V235.63H301.017V236.574H300.602V235.214H303.451V236.574Z" fill="white"/>
<path d="M302.23 237.578H301.814V243.528H302.23V237.578Z" fill="#189AB4"/>
<path d="M300.683 237.547L300.268 237.565L300.519 243.518L300.934 243.5L300.683 237.547Z" fill="#189AB4"/>
<path d="M303.373 237.56L303.119 243.513L303.534 243.53L303.789 237.578L303.373 237.56Z" fill="#189AB4"/>
<path opacity="0.3" d="M263.364 277.025H237.592V301.818H263.364V277.025Z" fill="#189AB4"/>
<path d="M250.478 284.914C249.585 284.914 248.713 285.179 247.971 285.674C247.229 286.17 246.651 286.875 246.309 287.699C245.968 288.524 245.879 289.431 246.053 290.306C246.227 291.181 246.656 291.985 247.287 292.616C247.918 293.247 248.722 293.677 249.598 293.851C250.473 294.025 251.38 293.936 252.204 293.594C253.029 293.253 253.733 292.674 254.229 291.933C254.725 291.191 254.99 290.318 254.99 289.426C254.991 288.833 254.875 288.246 254.649 287.698C254.422 287.15 254.09 286.652 253.671 286.233C253.252 285.814 252.754 285.481 252.206 285.255C251.658 285.029 251.071 284.913 250.478 284.914ZM248.373 289.876C248.254 289.876 248.139 289.829 248.055 289.744C247.971 289.66 247.923 289.545 247.923 289.426C247.904 289.359 247.901 289.288 247.913 289.22C247.926 289.151 247.955 289.087 247.997 289.031C248.039 288.975 248.093 288.93 248.155 288.899C248.218 288.868 248.286 288.852 248.356 288.852C248.426 288.852 248.495 288.868 248.557 288.899C248.619 288.93 248.674 288.975 248.716 289.031C248.758 289.087 248.786 289.151 248.799 289.22C248.812 289.288 248.808 289.359 248.789 289.426C248.789 289.54 248.747 289.649 248.67 289.733C248.593 289.816 248.487 289.867 248.373 289.876ZM250.478 289.876C250.359 289.874 250.246 289.826 250.162 289.742C250.078 289.658 250.03 289.545 250.027 289.426C250.027 289.306 250.075 289.192 250.159 289.107C250.244 289.023 250.358 288.976 250.478 288.976C250.597 288.976 250.712 289.023 250.796 289.107C250.881 289.192 250.928 289.306 250.928 289.426C250.928 289.545 250.881 289.66 250.796 289.744C250.712 289.829 250.597 289.876 250.478 289.876ZM252.591 289.876C252.471 289.876 252.357 289.829 252.272 289.744C252.188 289.66 252.141 289.545 252.141 289.426C252.121 289.359 252.118 289.288 252.131 289.22C252.144 289.151 252.172 289.087 252.214 289.031C252.256 288.975 252.31 288.93 252.373 288.899C252.435 288.868 252.504 288.852 252.574 288.852C252.643 288.852 252.712 288.868 252.774 288.899C252.837 288.93 252.891 288.975 252.933 289.031C252.975 289.087 253.003 289.151 253.016 289.22C253.029 289.288 253.026 289.359 253.007 289.426C253.007 289.54 252.964 289.649 252.887 289.733C252.81 289.816 252.704 289.867 252.591 289.876Z" fill="white"/>
<path opacity="0.1" d="M289.136 277.025H263.364V301.818H289.136V277.025Z" fill="#189AB4"/>
<path d="M272.743 284.914H272.214V293.929H272.743V284.914Z" fill="white"/>
<path d="M272.483 285.33C275.254 284.594 278.034 286.066 280.814 285.33V291.461C278.034 292.197 275.254 290.725 272.483 291.461V285.33Z" fill="white"/>
<path d="M314.908 277.025H289.136V301.818H314.908V277.025Z" fill="#189AB4"/>
<path d="M304.923 294.042H299.199L298.853 286.438H305.192L304.923 294.042Z" fill="white"/>
<path d="M306.014 285.884H298.047V286.438H306.014V285.884Z" fill="white"/>
<path d="M303.451 286.161H303.035V285.217H301.017V286.161H300.602V284.801H303.451V286.161Z" fill="white"/>
<path d="M302.23 287.174H301.814V293.124H302.23V287.174Z" fill="#189AB4"/>
<path d="M300.69 287.134L300.274 287.151L300.526 293.104L300.941 293.086L300.69 287.134Z" fill="#189AB4"/>
<path d="M303.357 287.138L303.101 293.09L303.516 293.108L303.772 287.155L303.357 287.138Z" fill="#189AB4"/>
<path d="M56.7103 226.823C59.7771 230.575 63.2639 233.963 67.1023 236.92C63.0061 224.502 69.4578 199.907 69.4751 203.623C69.5531 221.376 76.1173 242.255 79.9624 244.056C79.9624 244.056 79.9624 244.056 80.0317 244.056C90.5882 247.867 101.101 247.104 110.342 244.316C110.342 244.316 110.342 244.316 110.342 244.255C104.687 229.984 110.584 204.835 110.809 206.498C113.347 224.303 123.964 236.721 126.172 237.18C136.062 231.161 142.107 224.32 141.111 223.272C133.906 215.651 129.957 199.215 126.908 182.085C123.877 165.198 123.869 149.766 117.867 133.962C112.359 119.499 96.3471 113.463 85.5654 117.863C57.2385 129.432 52.3716 221.566 56.7103 226.823Z" fill="#263238"/>
<path d="M87.4446 117.239C85.0914 117.853 82.8992 118.97 81.0189 120.513C79.1046 122.011 77.3307 123.681 75.719 125.501C72.5864 129.213 69.8576 133.248 67.5786 137.538C62.8762 146.051 59.7846 155.36 57.5243 164.765C55.4053 174.217 54.0958 183.833 53.61 193.508C53.4541 195.924 53.4368 198.34 53.3502 200.756L53.3069 208.005L53.5494 215.236L53.9997 222.458V215.227L54.1296 208.005L54.398 200.791C54.5626 198.392 54.6492 195.984 54.8743 193.594C55.5532 184.011 56.9719 174.494 59.1177 165.129C61.1574 155.756 64.3574 146.674 68.6437 138.092C70.7809 133.802 73.3488 129.739 76.3078 125.968C77.8062 124.088 79.4729 122.349 81.2873 120.772C82.2054 120.004 83.1779 119.304 84.1971 118.677C85.2021 118.039 86.2967 117.554 87.4446 117.239Z" fill="#263238"/>
<path d="M142.652 220.969C140.78 217.237 139.097 213.413 137.612 209.511C136.07 205.632 134.676 201.717 133.472 197.716C132.269 193.716 131.186 189.715 130.355 185.653C129.524 181.592 128.831 177.443 128.069 173.339C126.449 165.129 124.838 156.885 122.743 148.787C121.669 144.735 120.526 140.699 119.114 136.741C118.402 134.763 117.581 132.826 116.655 130.939C115.804 129.011 114.562 127.28 113.009 125.856C114.42 127.387 115.526 129.174 116.265 131.121C117.071 133.039 117.773 134.999 118.369 136.993C119.616 140.967 120.621 145.02 121.539 149.117C123.375 157.257 125.003 165.449 126.484 173.668C127.298 177.772 128.034 181.869 128.926 185.991C129.814 190.094 130.938 194.142 132.295 198.115C134.94 206.073 138.411 213.733 142.652 220.969Z" fill="#263238"/>
<path d="M161.73 388.427H93.9743C93.3969 386.17 92.8196 383.906 92.2423 381.638C91.867 380.148 91.4888 378.661 91.1078 377.178C91.1078 377.082 91.0645 376.996 91.0385 376.901L89.5577 371.081C89.5057 370.89 89.4537 370.7 89.4104 370.509C89.038 369.029 88.657 367.548 88.2933 366.084C87.3465 362.407 86.417 358.766 85.5048 355.164C85.1584 353.796 84.812 352.419 84.4569 351.068C84.4476 351.003 84.4331 350.939 84.4136 350.877C84.1971 350.011 83.9719 349.145 83.7554 348.279C82.3439 342.754 80.9843 337.394 79.6853 332.267C79.5294 331.661 79.3735 331.08 79.2176 330.492C78.0745 325.98 76.9833 321.684 75.9528 317.649L75.5198 315.917C75.2687 314.921 75.0262 313.951 74.775 312.998C74.5499 312.132 74.3334 311.284 74.1255 310.452C73.502 308.002 72.9045 305.698 72.3935 303.524C72.3069 303.169 72.2117 302.832 72.1337 302.494C71.3543 299.471 70.6702 296.761 70.0727 294.423C69.9601 294.007 69.8648 293.609 69.7609 293.219C69.5444 292.353 69.3365 291.556 69.1547 290.82C69.0594 290.448 68.9728 290.093 68.8776 289.755L67.6046 284.758H132.156C132.156 284.758 147.562 337.861 161.73 388.427Z" fill="#37474F"/>
<path d="M104.704 388.427H102.799C101.644 383.883 100.513 379.34 99.4041 374.796L98.1051 369.6C97.1352 365.68 96.1595 361.748 95.178 357.805C95.178 357.632 95.1001 357.45 95.0568 357.277C90.415 338.476 85.8598 319.632 81.7377 300.71C81.6857 300.485 81.6338 300.259 81.5905 300.034C81.5905 300.009 81.6005 299.985 81.6184 299.967C81.6362 299.949 81.6605 299.939 81.6857 299.939C81.711 299.939 81.7352 299.949 81.7531 299.967C81.7709 299.985 81.781 300.009 81.781 300.034L81.8416 300.26C87.0376 318.801 91.8959 337.497 96.5636 356.186C96.6589 356.506 96.7368 356.835 96.8147 357.156C97.2044 358.697 97.5855 360.221 97.9752 361.754C98.5121 363.928 99.0663 366.084 99.6119 368.275C101.332 374.978 103.03 381.695 104.704 388.427Z" fill="#263238"/>
<path d="M130.06 284.793L120.89 330.691L120.474 332.743L119.824 336.008L118.785 341.204L117.824 346.045V346.261L117.642 347.127L109.424 388.314H93.9743C93.3969 386.057 92.8196 383.794 92.2423 381.525C91.867 380.035 91.4888 378.549 91.1078 377.065C91.1078 376.97 91.0645 376.883 91.0385 376.788C90.5362 374.848 90.0513 372.908 89.5577 370.968C89.5057 370.778 89.4537 370.587 89.4104 370.397C89.038 368.916 88.657 367.435 88.2933 365.972C87.3465 362.294 86.417 358.654 85.5048 355.051C85.1584 353.683 84.812 352.306 84.4569 350.955C84.4476 350.891 84.4331 350.827 84.4136 350.765C84.1971 349.899 83.9719 349.033 83.7554 348.167C82.3439 342.642 80.9843 337.281 79.6853 332.154L79.2176 330.379C78.0745 325.867 76.9833 321.572 75.9528 317.536C75.8056 316.956 75.667 316.384 75.5198 315.804C75.2687 314.808 75.0262 313.838 74.775 312.886C74.5499 312.02 74.3334 311.171 74.1255 310.34C73.502 307.889 72.9045 305.585 72.3935 303.412C72.3069 303.057 72.2117 302.719 72.1337 302.381C71.3543 299.359 70.6702 296.648 70.0727 294.31C69.9601 293.894 69.8648 293.496 69.7609 293.106C69.5444 292.24 69.3365 291.444 69.1547 290.708C69.0594 290.335 68.9728 289.98 68.8776 289.642L67.6046 284.646L130.06 284.793Z" fill="#263238"/>
<path d="M130.069 284.767C130.069 285.131 129.801 288.958 129.203 294.804C127.97 307.1 125.945 319.304 123.141 331.34C122.431 334.276 121.652 337.177 120.803 340C120.231 341.957 119.608 343.897 118.941 345.733L118.889 345.898L117.763 346.322C111.675 348.836 105.789 351.815 100.157 355.233C100.157 355.233 100.157 355.363 100.157 355.597C100.114 356.879 99.9323 361.477 99.6725 368.215C99.5859 370.224 99.508 372.423 99.4127 374.779C99.2569 378.892 99.075 383.499 98.8931 388.41H34.0124C34.8784 377.507 35.6924 366.439 36.5238 355.71C36.5238 355.71 30.4618 338.727 31.12 330.145C32.7567 309.361 42.0749 284.775 42.0749 284.775L130.069 284.767Z" fill="#37474F"/>
<path d="M107.934 330.396L108.012 325.2C108.064 322.031 108.281 318.861 108.402 315.674C108.679 308.495 108.999 301.29 109.606 294.128C109.606 293.955 109.909 293.955 109.917 294.128C110.021 296.977 110.082 299.818 110.073 302.667C110.065 305.516 110.16 308.365 110.151 311.206C110.151 316.852 110.151 322.464 109.917 328.145C109.839 330.318 109.051 334.311 112.186 334.553C114.68 334.744 116.127 332.12 116.568 330.033C116.977 327.429 117.174 324.796 117.157 322.161C117.267 319.274 117.327 316.408 117.339 313.561C117.339 307.317 117.486 301.091 117.651 294.856C117.651 294.674 117.936 294.691 117.962 294.856C118.68 301.145 119.081 307.466 119.166 313.795C119.166 316.826 119.166 319.857 119.036 322.897C118.941 325.729 118.993 328.751 118.118 331.479C117.434 333.618 115.884 335.67 113.615 336.233C113.569 336.229 113.523 336.229 113.477 336.233C113.507 336.25 113.533 336.273 113.553 336.302C113.572 336.33 113.585 336.363 113.589 336.398C113.684 337.394 113.849 338.39 113.875 339.394C113.901 340.399 113.875 341.395 113.788 342.382C113.745 343.397 113.623 344.408 113.425 345.404C113.337 345.882 113.218 346.353 113.07 346.816C112.914 347.301 112.654 347.682 112.455 348.158C112.438 348.194 112.409 348.224 112.374 348.243C112.338 348.262 112.298 348.268 112.258 348.261C112.219 348.254 112.182 348.234 112.155 348.205C112.128 348.175 112.112 348.137 112.108 348.097C112.108 347.933 112.108 347.768 112.056 347.612C112.061 347.584 112.061 347.555 112.056 347.526C112.019 347.239 111.999 346.949 111.996 346.66C111.996 346.175 112.048 345.69 112.082 345.205C112.16 344.235 112.29 343.256 112.42 342.295C112.55 341.334 112.619 340.355 112.732 339.385C112.844 338.415 113.035 337.402 113.121 336.398C113.131 336.36 113.152 336.327 113.182 336.302C112.288 336.469 111.365 336.358 110.536 335.983C109.708 335.608 109.014 334.988 108.549 334.207C108.022 333.01 107.811 331.698 107.934 330.396Z" fill="#263238"/>
<path d="M94.6411 357.597C96.6776 356.039 98.822 354.627 101.058 353.371C103.411 351.947 105.856 350.68 108.376 349.578C113.312 347.439 118.404 345.976 123.496 344.287C123.643 344.235 123.747 344.495 123.6 344.547C118.664 346.513 113.936 349.119 109.173 351.475C106.826 352.626 104.453 353.718 102.063 354.774C99.6725 355.831 97.2824 357.06 94.8316 357.961C94.6411 358.004 94.4938 357.719 94.6411 357.597Z" fill="#263238"/>
<path d="M56.1301 314.583C59.5941 314.583 69.8562 314.713 75.1821 309.725C77.4337 307.612 78.6461 304.529 79.6246 301.714C80.7409 298.536 81.6436 295.288 82.3266 291.989C82.3266 291.825 82.595 291.885 82.6037 292.033C82.6813 295.772 82.1997 299.503 81.1748 303.1C80.3088 306.14 79.209 309.543 76.7495 311.682C74.2901 313.821 70.6356 314.722 67.3188 315.146C63.5953 315.579 59.8314 315.527 56.1214 314.99C56.0674 314.989 56.0161 314.966 55.9788 314.928C55.9414 314.889 55.9211 314.836 55.9222 314.782C55.9234 314.728 55.9459 314.677 55.9849 314.64C56.0239 314.602 56.0761 314.582 56.1301 314.583Z" fill="#263238"/>
<path d="M139.275 314.107C137.716 314.211 133.1 314.696 130.338 309.915C129.168 307.88 128.398 304.849 127.74 302.078C126.986 298.943 126.363 295.739 125.791 292.466C125.791 292.31 125.661 292.37 125.67 292.517C125.912 296.203 126.401 299.869 127.133 303.49C127.74 306.495 128.51 309.846 129.775 311.899C130.248 312.72 130.898 313.426 131.679 313.963C132.46 314.501 133.35 314.858 134.287 315.008C135.98 315.319 137.726 315.135 139.318 314.479C139.413 314.436 139.387 314.098 139.275 314.107Z" fill="#263238"/>
<path d="M51.445 290.249C51.3584 290.569 42.9149 322.394 43.3046 330.085C43.6943 337.775 48.2061 353.337 48.2235 353.467C48.2408 353.596 47.4181 367.227 46.197 388.401H44.5516L46.5694 353.657C46.3789 352.505 42.0316 337.723 41.6505 330.188C41.2348 322.204 49.4445 291.115 49.8342 289.798C49.9302 289.636 50.0764 289.51 50.2507 289.439C50.4249 289.367 50.6177 289.354 50.7998 289.402C50.9819 289.45 51.1433 289.556 51.2598 289.704C51.3762 289.852 51.4412 290.034 51.445 290.223V290.249Z" fill="#263238"/>
<path d="M108.973 192.59C142.254 221.921 173.17 254.076 175.742 270.677C179.31 293.626 165.246 300.164 158.916 300.294C141.665 300.658 109.554 231.109 98.3475 204.541C87.4792 178.751 101.664 186.19 108.973 192.59Z" fill="#189AB4"/>
<path d="M131.767 284.767L127.125 255.6C127.125 255.6 138.677 243.649 132.702 231.127C129.688 224.779 109.173 193.889 98.2177 186.095C87.9382 178.803 75.7536 184.856 71.1898 192.746C59.672 212.655 48.7344 235.552 42.0749 284.793L131.767 284.767Z" fill="#189AB4"/>
<path d="M113.442 251.833C108.766 252.339 104.135 253.193 99.5859 254.388C97.3343 255.011 95.1347 255.738 92.9351 256.509C91.8439 256.89 90.7354 257.237 89.6269 257.583C88.4777 257.973 87.2855 258.223 86.0763 258.328C86.059 258.334 86.0439 258.345 86.0332 258.359C86.0225 258.374 86.0168 258.392 86.0168 258.41C86.0168 258.428 86.0225 258.446 86.0332 258.461C86.0439 258.476 86.059 258.487 86.0763 258.492C87.2326 258.528 88.39 258.485 89.5403 258.362C90.6429 258.209 91.7336 257.98 92.8052 257.678C95.0914 257.063 97.343 256.353 99.6292 255.721C104.219 254.439 108.818 253.123 113.485 252.214C113.728 252.171 113.658 251.807 113.442 251.833Z" fill="#263238"/>
<path d="M125.064 255.738C121.21 255.412 117.342 255.303 113.477 255.409C111.537 255.47 109.623 255.643 107.7 255.868C106.782 255.981 105.864 256.102 104.946 256.241C104.029 256.379 102.955 256.674 101.95 256.804C101.846 256.804 101.846 256.986 101.95 256.968C102.903 256.873 103.873 256.968 104.834 256.89L107.718 256.76C109.649 256.674 111.58 256.604 113.503 256.501C117.365 256.293 121.201 256.128 125.064 256.059C125.1 256.05 125.132 256.03 125.155 256.001C125.178 255.972 125.191 255.936 125.191 255.899C125.191 255.862 125.178 255.826 125.155 255.796C125.132 255.767 125.1 255.747 125.064 255.738Z" fill="#263238"/>
<path d="M70.064 189.732C39.0439 214.067 8.57799 256.128 8.37015 279.649C8.14499 302.866 16.2334 300.615 18.5283 300.433C32.5575 299.515 65.5954 234.885 75.6843 208.541C85.652 182.423 77.6848 183.713 70.064 189.732Z" fill="#189AB4"/>
<path d="M37.156 282.316C38.7841 279.389 40.4555 276.496 42.0316 273.552L46.8639 264.762C50.0507 258.891 53.2896 253.045 56.3899 247.122C59.4901 241.198 62.6857 235.344 65.734 229.403C67.2755 226.442 68.7766 223.46 70.2372 220.458C71.7527 217.479 73.1296 214.439 74.5672 211.399C72.3564 217.723 69.7948 223.919 66.8944 229.958C64.054 236.02 60.9623 241.969 57.8621 247.901C54.7618 253.833 51.4104 259.635 47.9897 265.386C44.569 271.136 41.0184 276.843 37.156 282.316Z" fill="#263238"/>
<path d="M71.2677 219.185C71.8405 218.132 72.4797 217.116 73.1816 216.145C73.528 215.669 73.857 215.184 74.2294 214.725C74.6018 214.266 74.9482 213.772 75.3639 213.313C75.086 214.505 74.5673 215.628 73.8397 216.613C73.1477 217.621 72.2758 218.493 71.2677 219.185Z" fill="#263238"/>
<path d="M166.034 236.686C164.406 225.784 161.15 210.585 157.218 207.442C153.079 204.142 138.088 193.109 133.776 191.672C129.463 190.234 110.238 183.159 106.739 185.229C103.942 186.891 107.363 194.261 116.516 197.708C124.553 200.739 128.71 203.597 131.013 204.567C133.317 205.536 139.058 213.045 137.56 216.413C136.694 218.397 130.97 220.743 127.385 219.193C123.799 217.643 122.838 210.533 118.725 207.277C114.611 204.021 107.423 204.48 107.025 206.411C106.626 208.342 109.017 209.234 112.766 215.799C115.183 220.016 115.451 230.2 120.898 237.449C123.635 241.086 128.45 250.802 128.45 250.802L166.034 236.686Z" fill="#F9BFB7"/>
<path d="M114.88 204.315C113.564 204.134 112.325 203.588 111.303 202.739C110.979 202.446 110.731 202.078 110.58 201.668C110.429 201.258 110.38 200.817 110.437 200.384C110.444 200.064 110.563 199.757 110.775 199.518C110.844 199.466 110.775 199.379 110.705 199.448C110.606 199.603 110.496 199.751 110.376 199.89C110.296 200.019 110.229 200.155 110.177 200.297C110.079 200.575 110.032 200.868 110.039 201.163C110.066 201.832 110.323 202.471 110.766 202.973C111.294 203.514 111.94 203.925 112.654 204.173C113.368 204.421 114.13 204.5 114.88 204.402C114.94 204.419 114.94 204.324 114.88 204.315Z" fill="#263238"/>
<path d="M157.218 207.442C153.685 202.029 144.705 192.304 135.871 189.022C129.905 186.796 109.545 196.98 110.186 200.886C110.827 204.792 114.317 204.766 119.487 204.09C121.366 203.848 131.299 200.167 133.022 202.237C135.499 205.216 138.712 215.461 138.712 215.461L157.218 207.442Z" fill="#F9BFB7"/>
<path d="M110.679 199.353C113.165 195.136 118.69 192.841 124.206 191.022C124.22 191.027 124.231 191.036 124.239 191.048C124.247 191.059 124.251 191.073 124.251 191.087C124.251 191.101 124.247 191.115 124.239 191.127C124.231 191.138 124.22 191.147 124.206 191.152C122.803 191.62 113.814 195.855 110.697 199.414C110.705 199.457 110.653 199.388 110.679 199.353Z" fill="#263238"/>
<path d="M157.218 207.442C153.685 202.029 144.705 192.304 135.871 189.022C129.905 186.796 113.849 199.717 114.49 203.623C115.131 207.528 120.153 207.788 125.678 205.796C127.462 205.155 133.472 200.86 135.153 202.93C137.629 205.909 143.665 213.322 143.665 213.322L157.218 207.442Z" fill="#F9BFB7"/>
<path d="M140.21 208.706C139.638 207.84 139.448 207.554 138.868 206.714C138.287 205.874 137.69 205.034 137.058 204.246C136.554 203.502 135.924 202.851 135.196 202.324C134.446 201.911 133.583 201.753 132.736 201.873C130.814 202.072 129.091 203.311 127.471 204.263C125.661 205.329 121.894 207.061 119.002 206.783C118.204 206.751 117.422 206.551 116.707 206.195C116.166 205.952 115.693 205.58 115.33 205.112C114.048 202.999 115.59 200.548 117.174 198.808C120.136 195.569 124.102 193.205 128.008 191.247C128.961 190.771 129.922 190.312 130.892 189.862C131.959 189.272 133.14 188.918 134.356 188.823C136.365 188.779 139.682 190.788 140.712 191.421C140.79 191.464 140.851 191.334 140.773 191.291C139.526 190.529 136.443 188.052 133.195 188.251C132.012 188.442 130.871 188.84 129.827 189.429C128.701 189.922 127.592 190.459 126.493 191.022C124.351 192.106 122.296 193.35 120.344 194.746C118.396 196.043 116.699 197.683 115.338 199.587C114.77 200.436 114.442 201.423 114.39 202.443C114.338 203.463 114.564 204.479 115.044 205.381C115.91 206.844 117.841 207.182 118.716 207.277C119.564 207.39 120.423 207.39 121.271 207.277C123.159 206.829 125.014 206.251 126.822 205.545C128.554 204.826 130.147 203.623 131.948 203.06C132.799 202.767 133.731 202.816 134.546 203.198C135.289 203.688 135.955 204.287 136.521 204.974C137.748 206.151 138.861 207.441 139.846 208.827C140.149 209.208 140.418 209.087 140.21 208.706Z" fill="#263238"/>
<path d="M159.842 212.17C158.535 209.572 156.274 198.929 154.179 195.673C152.083 192.417 142.548 181.185 138.158 181.721C132.641 182.397 138.504 192.295 141.44 196.365C144.375 200.436 143.96 207.407 143.96 207.407L159.842 212.17Z" fill="#F9BFB7"/>
<path d="M137.335 189.654C138.374 190.936 139.301 192.365 140.21 193.75C141.143 195.036 141.982 196.388 142.721 197.794C143.341 199.236 143.721 200.768 143.847 202.332C143.925 203.103 143.96 203.865 143.977 204.636C143.994 205.407 143.916 206.368 143.977 207.173C143.977 207.26 143.839 207.277 143.839 207.173C143.717 205.637 143.5 204.11 143.189 202.601C142.901 201.032 142.421 199.505 141.76 198.054C140.435 195.17 138.521 192.616 137.17 189.749C137.092 189.593 137.257 189.515 137.335 189.654Z" fill="#263238"/>
<path d="M143.899 208.576C144.28 211.226 143.518 213.911 142.566 216.37C142.078 217.612 141.499 218.816 140.834 219.973C140.156 221.115 139.404 222.212 138.582 223.255C136.999 225.243 135.672 227.422 134.633 229.741C133.651 232.125 132.965 234.621 132.589 237.171C132.368 234.522 132.662 231.854 133.455 229.317C134.317 226.778 135.603 224.404 137.257 222.294C138.831 220.285 140.195 218.12 141.327 215.833C142.462 213.521 143.605 211.183 143.899 208.576Z" fill="#263238"/>
<path d="M157.314 299.497C146.54 298.043 139.5 280.03 127.203 248.403C125.038 242.844 153.183 208.663 157.01 213.763C161.834 220.189 174.824 255.964 176.184 265.723C178.877 284.914 169.888 301.195 157.314 299.497Z" fill="#F9BFB7"/>
<path d="M133.689 266.035L168.407 232.305C168.407 232.305 178.271 261.333 177.344 273.5C176.417 285.667 172.148 299.532 157.53 300.294C146.566 300.866 133.689 266.035 133.689 266.035Z" fill="#189AB4"/>
<path d="M144.921 289.383C143.665 287.607 142.548 285.745 141.457 283.875C140.366 282.004 139.361 280.09 138.383 278.159C137.404 276.228 136.504 274.245 135.707 272.227C134.853 270.227 134.178 268.155 133.689 266.035C134.607 268.001 135.577 269.924 136.555 271.846L139.474 277.614C140.418 279.553 141.379 281.485 142.28 283.442C143.18 285.399 144.107 287.365 144.921 289.383Z" fill="#263238"/>
<path d="M141.171 271.924C142.851 270.071 144.705 268.356 146.488 266.615C148.272 264.875 150.091 263.151 151.927 261.419C155.581 258.007 159.268 254.624 162.986 251.27C164.008 250.352 165.032 249.443 166.06 248.542C167.169 247.581 168.398 246.758 169.524 245.788C169.543 245.779 169.564 245.776 169.585 245.78C169.605 245.784 169.624 245.795 169.638 245.811C169.652 245.827 169.66 245.847 169.661 245.867C169.663 245.888 169.657 245.909 169.645 245.927C168.779 246.793 167.991 247.754 167.125 248.629C166.259 249.503 165.307 250.421 164.38 251.305C162.573 253.037 160.754 254.754 158.924 256.457C155.261 259.869 151.589 263.273 147.822 266.572C145.692 268.434 143.605 270.374 141.37 272.106C141.346 272.132 141.313 272.148 141.277 272.15C141.241 272.151 141.206 272.139 141.18 272.115C141.153 272.09 141.138 272.057 141.136 272.021C141.135 271.985 141.147 271.95 141.171 271.924Z" fill="#263238"/>
<path d="M79.2349 187.056C79.4861 188.788 86.8038 200.999 96.503 200.41C102.106 200.046 98.2956 188.788 98.2956 188.788L103.171 173.408L84.5782 159.197C84.5782 159.197 79.1397 186.303 79.2349 187.056Z" fill="#F9BFB7"/>
<path d="M82.5864 169.355C83.8321 173.388 85.8942 177.121 88.6444 180.322C91.3946 183.524 94.7741 186.126 98.5727 187.965L103.18 173.451L84.5782 159.24C84.5782 159.24 83.6775 163.804 82.5864 169.355Z" fill="#263238"/>
<path d="M125.09 151.853C125.644 178.266 109.883 181.583 104.184 181.695C98.9884 181.799 81.3913 181.488 78.1091 155.265C74.827 129.043 86.9423 120.435 98.7546 119.577C110.567 118.72 124.544 125.431 125.09 151.853Z" fill="#F9BFB7"/>
<path d="M118.898 149.731C118.312 149.594 117.734 149.426 117.166 149.229C116.508 149.142 115.898 148.837 115.434 148.363C115.319 148.19 115.266 147.984 115.281 147.777C115.297 147.57 115.381 147.374 115.52 147.22C115.841 146.957 116.225 146.784 116.635 146.718C117.044 146.653 117.463 146.698 117.85 146.848C118.682 147.034 119.416 147.522 119.911 148.216C120.011 148.38 120.062 148.568 120.058 148.76C120.054 148.952 119.995 149.138 119.888 149.297C119.782 149.457 119.632 149.582 119.456 149.659C119.281 149.736 119.087 149.761 118.898 149.731Z" fill="#263238"/>
<path d="M100.79 148.952C101.397 148.903 102.002 148.819 102.6 148.701C103.25 148.709 103.884 148.498 104.401 148.103C104.54 147.949 104.624 147.754 104.64 147.547C104.656 147.34 104.602 147.133 104.487 146.96C104.211 146.65 103.855 146.421 103.459 146.296C103.063 146.171 102.64 146.155 102.236 146.25C101.385 146.302 100.586 146.677 100.002 147.298C99.8764 147.446 99.7965 147.626 99.7716 147.818C99.7466 148.01 99.7776 148.205 99.8609 148.38C99.9441 148.554 100.076 148.701 100.241 148.803C100.406 148.904 100.596 148.956 100.79 148.952Z" fill="#263238"/>
<path d="M104.063 155.88C104.063 155.811 103.925 155.958 103.916 156.036C103.916 157.828 103.544 159.89 101.889 160.366C101.838 160.366 101.838 160.47 101.889 160.47C103.899 160.305 104.323 157.612 104.063 155.88Z" fill="#263238"/>
<path d="M102.556 153.906C99.6812 153.533 99.153 159.327 101.82 159.664C104.488 160.002 104.972 154.209 102.556 153.906Z" fill="#263238"/>
<path d="M101.396 154.148C100.859 154.434 100.313 154.962 99.6639 155.014C99.0144 155.066 98.4688 154.365 98.0618 153.741C98.0185 153.68 97.9665 153.741 97.9579 153.802C97.8453 154.91 98.1657 156.079 99.3435 156.356C100.521 156.633 101.275 155.689 101.656 154.624C101.76 154.313 101.612 153.992 101.396 154.148Z" fill="#263238"/>
<path d="M114.931 156.045C114.931 155.975 115.061 156.148 115.053 156.218C114.819 158.002 114.854 160.089 116.421 160.842C116.464 160.842 116.421 160.955 116.421 160.937C114.438 160.47 114.421 157.699 114.931 156.045Z" fill="#263238"/>
<path d="M116.715 154.33C119.616 154.399 119.313 160.193 116.585 160.141C113.858 160.089 114.282 154.278 116.715 154.33Z" fill="#263238"/>
<path d="M117.902 154.789C118.344 155.118 118.768 155.707 119.305 155.776C119.842 155.845 120.448 155.248 120.89 154.676C120.933 154.616 120.976 154.676 120.976 154.746C120.976 155.854 120.5 156.988 119.426 157.136C118.352 157.283 117.781 156.27 117.581 155.161C117.547 154.953 117.694 154.65 117.902 154.789Z" fill="#263238"/>
<path d="M104.037 169.684C104.41 170.16 104.756 170.793 105.397 170.931C106.06 171.009 106.733 170.947 107.371 170.749C107.432 170.749 107.484 170.801 107.441 170.844C107.138 171.161 106.755 171.391 106.333 171.508C105.911 171.625 105.465 171.626 105.042 171.511C104.687 171.368 104.384 171.123 104.169 170.807C103.955 170.491 103.84 170.118 103.838 169.736C103.838 169.632 103.985 169.615 104.037 169.684Z" fill="#263238"/>
<path d="M112.048 163.787C112.048 163.787 112.212 166.488 112.108 167.753C112.108 167.874 111.788 167.909 111.364 167.9H111.312C110.211 168.009 109.101 167.815 108.103 167.339C107.105 166.863 106.256 166.122 105.648 165.198C105.57 165.068 105.743 164.947 105.847 165.034C107.374 166.262 109.258 166.963 111.216 167.034C111.329 166.696 110.783 162.41 110.991 162.41C111.964 162.569 112.911 162.861 113.806 163.276C113.641 157.621 112.559 152.018 112.481 146.415C112.473 146.371 112.482 146.326 112.507 146.289C112.533 146.253 112.571 146.228 112.615 146.22C112.659 146.212 112.704 146.221 112.74 146.247C112.777 146.272 112.802 146.31 112.81 146.354C114.351 152.122 114.689 158.625 115.018 164.453C115.096 165.189 112.541 164.038 112.048 163.787Z" fill="#263238"/>
<path d="M78.724 154.659C85.2276 155.525 90.4669 135.971 91.0818 133.563C90.7787 135.105 89.1679 143.245 89.7308 143.678C90.4244 143.796 91.133 143.796 91.8265 143.678C91.9964 142.7 92.2396 141.736 92.554 140.794C92.6839 140.353 92.554 141.807 92.554 143.617C92.935 143.617 93.3507 143.522 93.801 143.488C94.085 141.385 94.647 139.329 95.4724 137.374C95.7928 136.637 95.4118 140.145 95.6369 143.306C100.296 142.855 107.008 142.37 113.061 143.184C114.689 143.401 116.075 143.652 117.296 143.921C117.711 141.513 117.867 138.889 117.954 139.478C118.189 141.016 118.273 142.574 118.205 144.128C118.863 144.284 119.469 144.431 120.015 144.579C120.76 141.201 120.058 135.477 120.465 136.404C121.65 139.246 122.285 142.288 122.336 145.367C124.587 146.233 125.15 146.77 125.323 146.181C125.618 145.107 125.904 135.338 119.651 127.077C112.862 118.105 97.0658 113.463 85.9984 123.613C85.9984 123.613 77.6848 127.233 75.1734 134.871C72.662 142.509 74.9569 154.148 78.724 154.659Z" fill="#263238"/>
<path d="M82.595 155.404C82.595 155.404 77.399 146.796 73.5107 148.606C69.6224 150.416 73.1816 162.626 77.4597 164.549C77.9915 164.832 78.5753 165.005 79.1758 165.058C79.7763 165.11 80.3811 165.04 80.9539 164.852C81.5267 164.664 82.0556 164.363 82.5088 163.965C82.962 163.568 83.3301 163.083 83.5909 162.54L82.595 155.404Z" fill="#F9BFB7"/>
<path d="M74.6105 152.078C74.5993 152.083 74.5896 152.091 74.5828 152.101C74.576 152.111 74.5724 152.122 74.5724 152.135C74.5724 152.147 74.576 152.158 74.5828 152.169C74.5896 152.179 74.5993 152.186 74.6105 152.191C77.6069 153.646 79.0358 156.599 79.9797 159.63C79.1137 158.435 77.936 157.725 76.3425 158.712C76.2559 158.764 76.3425 158.894 76.4118 158.885C76.9627 158.748 77.5425 158.785 78.0713 158.992C78.6002 159.198 79.0521 159.563 79.3648 160.037C79.8818 160.836 80.3143 161.686 80.6552 162.574C80.7764 162.86 81.2874 162.747 81.2008 162.427C81.1967 162.401 81.1967 162.375 81.2008 162.349C81.4779 158.478 78.7933 152.754 74.6105 152.078Z" fill="#263238"/>
<path d="M105.501 199.466L90.848 244.775C90.2677 246.091 90.848 247.234 92.2076 247.321L115.979 248.88C116.709 248.872 117.421 248.659 118.034 248.263C118.647 247.868 119.136 247.307 119.443 246.645L134.07 201.336C134.65 200.011 134.07 198.868 132.719 198.738L108.947 197.18C108.215 197.194 107.502 197.416 106.891 197.821C106.281 198.226 105.798 198.797 105.501 199.466Z" fill="#37474F"/>
<path d="M108.324 199.622L93.6971 244.931C93.1169 246.256 93.6971 247.399 95.0568 247.485L118.828 249.044C119.558 249.037 120.27 248.823 120.883 248.428C121.496 248.032 121.985 247.472 122.292 246.81L136.919 201.492C137.499 200.176 136.919 199.033 135.568 198.946L111.797 197.387C111.065 197.391 110.35 197.603 109.735 197.999C109.12 198.395 108.63 198.958 108.324 199.622Z" fill="#455A64"/>
<path d="M114.706 202.15C114.672 202.55 114.52 202.93 114.27 203.243C114.02 203.557 113.682 203.788 113.3 203.91C112.918 204.031 112.509 204.036 112.124 203.925C111.738 203.813 111.395 203.59 111.137 203.283C110.879 202.977 110.717 202.6 110.673 202.202C110.629 201.803 110.704 201.401 110.888 201.045C111.073 200.689 111.359 200.396 111.71 200.203C112.062 200.01 112.462 199.925 112.862 199.959C113.397 200.006 113.891 200.262 114.237 200.673C114.583 201.084 114.752 201.615 114.706 202.15Z" fill="#263238"/>
<path d="M15.3068 300.415C25.6988 301.844 38.6282 293.782 72.1857 269.283C76.8275 265.897 61.7158 226.693 56.5977 230.053C50.12 234.296 25.8893 252.145 24.2872 253.677C10.7084 266.572 8.26624 299.445 15.3068 300.415Z" fill="#F9BFB7"/>
<path d="M44.5862 241.908C44.5862 241.908 54.1122 228.503 61.3433 223.012C70.9906 215.66 82.3438 213.278 87.1588 212.568C97.2131 211.088 122.552 214.465 122.855 221.93C123.132 228.693 97.4036 223.939 97.4036 223.939C97.4036 223.939 124.431 224.459 123.271 232.66C122.111 240.861 92.58 233.638 92.58 233.638C92.58 233.638 120.344 234.79 117.807 243.06C115.884 249.304 88.7522 244.273 88.7522 244.273C88.7522 244.273 112.602 245.433 110.905 251.945C109.025 259.133 83.6948 256.059 83.6948 256.059C76.5936 271.881 66.3748 276.332 59.0051 278.791C57.1779 279.389 44.5862 241.908 44.5862 241.908Z" fill="#F9BFB7"/>
<path d="M88.0681 223.16C91.2463 223.099 94.4592 223.03 97.5941 223.255C100.729 223.48 103.933 223.826 107.068 224.346C111.181 224.951 115.21 226.023 119.08 227.541C112.013 225.351 100.677 224.355 97.5075 224.121C94.338 223.887 91.1857 223.506 87.9815 223.255C87.9729 223.272 87.9902 223.16 88.0681 223.16Z" fill="#263238"/>
<path d="M87.0289 234.591C91.0904 234.703 95.126 234.66 99.1529 234.946C103.18 235.232 106.99 235.855 111 236.418C111.303 236.461 111.182 236.609 110.87 236.574C106.843 236.176 103.076 236.115 99.0576 235.76C95.0394 235.405 91.0125 234.894 86.9856 234.686C86.9596 234.686 86.9683 234.591 87.0289 234.591Z" fill="#263238"/>
<path d="M84.379 244.212C90.5969 244.056 96.8234 245.078 102.92 246.169C103.223 246.23 103.041 246.403 102.73 246.368C96.5723 245.598 91.7573 244.957 84.3876 244.429C84.2664 244.454 84.2491 244.212 84.379 244.212Z" fill="#263238"/>
<path d="M44.5863 236.583L57.8101 284.767C57.8101 284.767 22.3041 305.646 14.5101 300.13C6.71607 294.613 11.7908 266.78 20.702 256.171C24.3565 251.746 44.5863 236.583 44.5863 236.583Z" fill="#189AB4"/>
<path d="M45.0279 238.15L44.5083 236.565L44.6382 236.617C41.2868 239.354 37.9267 242.064 34.6099 244.827C31.2931 247.589 27.9677 250.343 24.8155 253.262C23.2181 254.676 21.7139 256.191 20.3123 257.8C18.9712 259.455 17.7746 261.222 16.7357 263.082C14.6756 266.871 13.2315 270.963 12.4576 275.206C12.7994 270.849 13.9754 266.597 15.9216 262.684C16.8995 260.716 18.0839 258.858 19.4549 257.141C20.8651 255.465 22.3839 253.882 24.0014 252.404C27.2143 249.486 30.583 246.749 33.9951 244.091C37.4071 241.432 40.9231 238.895 44.5429 236.513L44.6469 236.444V236.557L45.0279 238.15Z" fill="#263238"/>
<path d="M36.8183 248.542C37.6236 250.906 38.2385 253.348 38.9053 255.756C39.5721 258.163 40.2216 260.588 40.8365 263.022C42.0662 267.871 43.27 272.729 44.4044 277.605C44.7162 278.939 45.0279 280.272 45.2704 281.615C45.5129 282.957 45.7121 284.516 46.0325 285.945C46.0353 285.956 46.0359 285.968 46.0342 285.979C46.0325 285.991 46.0285 286.002 46.0224 286.012C46.0103 286.032 45.9905 286.047 45.9675 286.053C45.9446 286.059 45.9203 286.055 45.9 286.043C45.8797 286.031 45.865 286.011 45.8593 285.988C45.5389 284.801 45.0453 283.658 44.6989 282.472C44.3525 281.285 43.9974 280.021 43.677 278.783C43.0361 276.364 42.4068 273.942 41.7891 271.517C40.5507 266.667 39.3383 261.809 38.2645 256.916C37.6583 254.162 36.9655 251.391 36.5325 248.603C36.5285 248.584 36.5283 248.564 36.5318 248.546C36.5353 248.527 36.5424 248.509 36.5529 248.493C36.5634 248.477 36.5769 248.463 36.5927 248.452C36.6085 248.441 36.6263 248.433 36.6451 248.429C36.6638 248.425 36.6832 248.425 36.702 248.429C36.7209 248.432 36.7389 248.439 36.755 248.45C36.7711 248.46 36.7849 248.474 36.7958 248.49C36.8066 248.505 36.8143 248.523 36.8183 248.542Z" fill="#263238"/>
<path d="M57.8101 284.767C58.0439 285.217 58.0266 284.836 57.9746 284.559C57.9227 284.282 57.3771 281.961 56.8661 280.489C56.8142 280.342 56.589 280.082 56.6756 280.61C56.9797 282.015 57.3584 283.402 57.8101 284.767Z" fill="#263238"/>
</svg>
