<svg width="393" height="408" viewBox="0 0 393 408" fill="none" xmlns="http://www.w3.org/2000/svg">
<path d="M40.9563 138.32C40.3688 138.32 39.8955 132.151 39.8955 124.538C39.8955 116.925 40.3688 110.756 40.9563 110.756C41.5438 110.756 42.0253 116.925 42.0253 124.538C42.0253 132.151 41.5438 138.32 40.9563 138.32Z" fill="#E0E0E0"/>
<path d="M33.3594 130.715C32.7718 130.715 32.2986 127.777 32.2986 124.187C32.2986 120.597 32.7718 117.659 33.3594 117.659C33.9469 117.659 34.4202 120.597 34.4202 124.187C34.4202 127.777 33.9469 130.715 33.3594 130.715Z" fill="#E0E0E0"/>
<path d="M25.7298 128.593C25.1504 128.593 24.5955 127.108 24.5058 125.207C24.416 123.306 24.8158 121.755 25.3952 121.723C25.9746 121.69 26.5376 123.208 26.6274 125.109C26.7171 127.01 26.3173 128.561 25.7298 128.593Z" fill="#E0E0E0"/>
<path d="M48.896 131.637C48.3085 131.637 47.9086 128.112 47.9902 123.779C48.0718 119.446 48.6186 115.945 49.2061 115.962C49.7936 115.978 50.2016 119.487 50.1118 123.82C50.0221 128.153 49.4835 131.653 48.896 131.637Z" fill="#E0E0E0"/>
<path d="M57.5293 128.757C56.9418 128.757 56.4603 127.223 56.4603 125.329C56.4603 123.436 56.9418 121.894 57.5293 121.894C58.1168 121.894 58.5901 123.428 58.5901 125.329C58.5901 127.231 58.1168 128.757 57.5293 128.757Z" fill="#E0E0E0"/>
<path d="M68.2515 125.329C68.2515 125.329 68.2515 125.174 68.2515 124.889C68.2515 124.603 68.2026 124.146 68.1618 123.591C68.1618 123.306 68.1618 122.988 68.1046 122.637C68.0475 122.286 67.9904 121.91 67.9333 121.494C67.812 120.546 67.6211 119.608 67.3621 118.687C66.727 116.135 65.7061 113.694 64.3347 111.449C62.3515 108.151 59.6936 105.309 56.5351 103.109C53.3767 100.91 49.789 99.4028 46.0074 98.687C44.8748 98.4814 43.7299 98.3505 42.5802 98.2953C41.9926 98.2953 41.4051 98.2137 40.8094 98.2301L39.0142 98.3198C38.7123 98.3198 38.4104 98.3198 38.1085 98.3769L37.2027 98.5157C36.5989 98.6217 35.9869 98.687 35.383 98.8176C34.1556 99.0897 32.948 99.4441 31.7682 99.8784C30.5555 100.312 29.3749 100.83 28.2349 101.429C27.6637 101.739 27.117 102.098 26.5458 102.441C25.9749 102.776 25.4295 103.152 24.9138 103.567C23.8314 104.365 22.8062 105.237 21.8456 106.178C20.8619 107.168 19.9485 108.226 19.112 109.344C17.4303 111.606 16.1243 114.124 15.2442 116.802C13.3838 122.349 13.3838 128.351 15.2442 133.897C16.1251 136.57 17.4311 139.083 19.112 141.339C19.9252 142.442 20.8111 143.489 21.764 144.473C22.7312 145.412 23.7589 146.287 24.8403 147.092C25.36 147.502 25.9051 147.878 26.4723 148.218C27.0435 148.553 27.5902 148.912 28.1614 149.222C29.3029 149.82 30.4833 150.341 31.6947 150.78C32.8757 151.211 34.0832 151.565 35.3096 151.841C35.9134 151.964 36.5336 152.037 37.1374 152.135L38.035 152.274C38.337 152.274 38.6389 152.274 38.9408 152.339L40.736 152.429C41.3317 152.429 41.9192 152.38 42.5067 152.364C43.657 152.31 44.8022 152.177 45.9339 151.964C49.717 151.252 53.3063 149.746 56.4653 147.547C59.6243 145.347 62.2813 142.503 64.2613 139.201C65.631 136.959 66.6518 134.521 67.2886 131.972C67.5485 131.049 67.7394 130.108 67.8598 129.156C67.917 128.748 67.9986 128.34 68.0312 128.014C68.0638 127.688 68.072 127.353 68.0883 127.068C68.0883 126.504 68.1536 126.08 68.1781 125.77C68.2026 125.46 68.1781 125.329 68.1781 125.329C68.1781 125.329 68.1781 125.476 68.1781 125.77C68.1781 126.064 68.1781 126.513 68.1781 127.068C68.1781 127.353 68.1781 127.68 68.1781 128.03C68.1781 128.381 68.0802 128.757 68.023 129.173C67.9183 130.131 67.741 131.081 67.4926 132.012C66.8782 134.599 65.871 137.075 64.5061 139.356C62.5225 142.702 59.8502 145.587 56.6666 147.821C53.4829 150.055 49.8606 151.587 46.04 152.315C44.892 152.53 43.7305 152.666 42.5638 152.723C41.9763 152.723 41.3806 152.804 40.7768 152.796L38.9571 152.706C38.6552 152.706 38.3451 152.706 38.035 152.649L37.1211 152.51C36.5091 152.412 35.889 152.339 35.2688 152.217C34.0252 151.942 32.8012 151.585 31.605 151.148C30.3748 150.705 29.1754 150.182 28.0146 149.581C27.4352 149.263 26.8722 148.896 26.301 148.561C25.7311 148.218 25.1858 147.837 24.669 147.419C23.5722 146.605 22.5309 145.719 21.5518 144.767C20.5804 143.768 19.678 142.705 18.8509 141.584C17.1402 139.284 15.8095 136.725 14.9096 134.004C13.011 128.374 13.011 122.277 14.9096 116.647C15.8033 113.925 17.1315 111.365 18.8427 109.067C19.6698 107.946 20.5722 106.882 21.5437 105.884C22.5228 104.935 23.5642 104.051 24.6608 103.24C25.1776 102.822 25.7229 102.44 26.2928 102.098C26.8722 101.755 27.427 101.388 28.0064 101.078C29.1667 100.487 30.3663 99.9775 31.5968 99.552C32.7931 99.1149 34.017 98.7578 35.2606 98.483C35.8808 98.3525 36.501 98.2872 37.113 98.1811L38.0269 98.0424C38.337 98.0424 38.6389 98.0424 38.949 97.9853L40.7686 97.8955C41.3643 97.8955 41.9682 97.9526 42.5557 97.9689C43.7222 98.0317 44.8834 98.1708 46.0318 98.3851C49.8544 99.1159 53.4778 100.651 56.6616 102.89C59.8453 105.128 62.5165 108.018 64.4979 111.368C65.8623 113.649 66.8695 116.126 67.4845 118.712C67.7321 119.641 67.9094 120.587 68.0149 121.543C68.072 121.959 68.1373 122.359 68.1699 122.694C68.2026 123.028 68.1699 123.363 68.1699 123.648C68.1699 124.212 68.1699 124.644 68.1699 124.954C68.1699 125.264 68.2515 125.329 68.2515 125.329Z" fill="#E0E0E0"/>
<path d="M236.086 67.1894C234.535 67.1894 232.998 66.8838 231.565 66.29C230.131 65.6962 228.829 64.8259 227.731 63.7287C226.634 62.6315 225.764 61.329 225.17 59.8954C224.576 58.4619 224.271 56.9254 224.271 55.3738V41.5018C224.27 39.9494 224.574 38.4121 225.168 36.9776C225.761 35.5431 226.631 34.2396 227.729 33.1415C228.826 32.0435 230.129 31.1724 231.563 30.5781C232.997 29.9838 234.534 29.6779 236.086 29.6779C239.22 29.6779 242.225 30.9228 244.441 33.1387C246.657 35.3545 247.902 38.3599 247.902 41.4936V55.3656C247.903 56.9179 247.598 58.4553 247.005 59.8898C246.412 61.3243 245.542 62.6278 244.444 63.7258C243.347 64.8239 242.044 65.6949 240.61 66.2892C239.176 66.8835 237.639 67.1894 236.086 67.1894Z" fill="#F5F5F5"/>
<path d="M236.086 74.3866C231.461 74.3823 227.026 72.5428 223.755 69.272C220.484 66.0011 218.645 61.5662 218.64 56.9405H220.329C220.334 61.1182 221.995 65.1235 224.949 68.0776C227.903 71.0316 231.909 72.6931 236.086 72.6974C245.356 72.6974 251.835 66.1695 251.835 56.9405H253.532C253.532 67.2058 246.352 74.3784 236.086 74.3866Z" fill="#F5F5F5"/>
<path d="M236.927 73.5379H235.238V82.0814H236.927V73.5379Z" fill="#F5F5F5"/>
<path d="M246.401 80.8575H225.772V82.5466H246.401V80.8575Z" fill="#F5F5F5"/>
<path d="M218.665 37.4054C217.6 37.2579 216.568 36.9295 215.613 36.4344C213.1 35.3654 212.251 34.8024 212.553 33.9211L212.667 33.5702L213.067 33.3662C213.948 32.9664 216.184 33.8885 216.617 34.0762C217.049 34.2638 219.269 35.2349 219.595 36.1488L219.717 36.4915L219.546 36.8995C219.468 37.0638 219.342 37.2003 219.185 37.2907C219.027 37.3812 218.846 37.4212 218.665 37.4054Z" fill="#F5F5F5"/>
<path d="M225.413 28.56C224.875 28.56 224.059 27.9562 222.361 25.655C220.346 22.9133 220.444 22.2523 220.484 22.032L220.533 21.6893L221.129 21.216L221.529 21.2568C221.749 21.2568 222.418 21.3955 224.426 24.1291C226.784 27.3278 226.515 27.9317 225.944 28.3478C225.795 28.475 225.608 28.5495 225.413 28.56Z" fill="#F5F5F5"/>
<path d="M235.825 25.3613L235.499 25.0838C235.336 24.9288 234.854 24.4718 234.887 21.2486C234.92 18.0254 235.417 17.5766 235.58 17.4216L235.858 17.1768H236.282C236.796 17.2176 237.506 17.2747 237.457 21.2568C237.408 25.2389 236.707 25.296 236.192 25.3368L235.825 25.3613Z" fill="#F5F5F5"/>
<path d="M246.188 27.6543L245.838 27.3768C245.095 26.6914 245.764 25.7448 247.217 23.7783C248.669 21.8117 249.42 20.9304 250.293 21.4527L250.619 21.6485L250.734 22.0891C250.938 23.0928 249.444 25.1002 249.273 25.3531C249.102 25.6061 247.584 27.5645 246.572 27.6543H246.188Z" fill="#F5F5F5"/>
<path d="M253.834 37.2749C253.666 37.2902 253.497 37.2529 253.351 37.1681C253.205 37.0833 253.089 36.9553 253.018 36.8016C252.561 35.9856 253.435 35.3246 253.834 34.9982C254.446 34.5387 255.087 34.1189 255.752 33.7416C258.885 31.9627 259.465 32.3626 259.783 32.9256C260.24 33.7416 259.367 34.4026 258.967 34.729C258.357 35.1884 257.716 35.6055 257.049 35.9774C255.344 36.9566 254.397 37.2749 253.834 37.2749Z" fill="#F5F5F5"/>
<path d="M285.128 381.888C270.677 375.36 264.728 359.277 262.427 344.262C262.043 341.757 261.284 339.187 262.06 336.78C262.835 334.372 265.324 332.373 267.772 333.01C269.779 333.532 270.987 335.531 272.349 337.09C274.167 339.208 276.55 340.765 279.22 341.578C280.958 342.108 283.015 342.247 284.418 341.096C286.352 339.513 286.05 336.494 285.577 334.021C284.69 329.414 283.803 324.803 282.917 320.19C282.309 317.743 282.1 315.213 282.296 312.699C282.631 310.211 283.928 307.705 286.164 306.612C288.4 305.519 291.558 306.326 292.505 308.66C292.79 309.667 293.005 310.692 293.149 311.728C293.41 312.748 294.104 313.793 295.132 313.899C296.16 314.005 297.033 313.083 297.637 312.267C299.726 309.289 300.901 305.739 301.889 302.246C302.876 298.754 303.88 295.172 305.691 292.014C307.503 288.856 310.31 286.098 313.851 285.241C317.393 284.384 321.546 285.861 323.088 289.182C324.631 292.503 323.26 296.42 321.571 299.66C319.05 304.478 315.846 308.906 312.056 312.805C311.293 313.435 310.752 314.293 310.514 315.253C310.285 317.008 312.146 318.354 313.884 318.591C315.842 318.868 317.809 318.305 319.784 318.167C321.758 318.028 324.01 318.501 325.079 320.19C326.564 322.532 324.941 325.576 323.178 327.706C319.651 331.958 315.419 335.574 310.669 338.395C308.972 339.399 307.16 340.345 305.928 341.896C304.696 343.446 304.222 345.837 305.438 347.42C306.654 349.003 309.029 349.134 310.873 348.424C312.717 347.714 314.227 346.359 315.924 345.339C319.082 343.422 323.521 342.842 326.246 345.38C327.101 346.267 327.738 347.341 328.106 348.516C328.474 349.692 328.564 350.937 328.368 352.153C327.961 354.576 327.074 356.893 325.757 358.967C321.565 366.431 315.469 372.651 308.09 376.992C300.705 381.194 293.533 383.292 285.152 381.888" fill="#EBEBEB"/>
<path d="M286.401 384.605C285.846 378.591 286.45 379.766 287.266 371.835C288.238 363.249 289.703 354.727 291.656 346.31C292.154 344.075 292.652 341.855 293.141 339.676C293.631 337.498 294.128 335.343 294.732 333.263C295.912 329.272 297.309 325.349 298.918 321.512C300.436 317.832 302.003 314.405 303.488 311.206C304.973 308.007 306.442 305.053 307.878 302.418C310.129 298.249 312.708 294.265 315.589 290.504C316.601 289.174 317.425 288.17 317.988 287.493L318.641 286.726C318.711 286.636 318.79 286.554 318.878 286.481C318.815 286.578 318.747 286.67 318.674 286.759C318.527 286.955 318.323 287.224 318.062 287.575C317.523 288.268 316.724 289.296 315.728 290.643C312.914 294.436 310.388 298.435 308.172 302.605C306.752 305.241 305.316 308.195 303.839 311.394C302.362 314.592 300.812 318.028 299.31 321.7C297.72 325.528 296.339 329.44 295.173 333.418C294.569 335.49 294.088 337.628 293.59 339.807C293.092 341.986 292.611 344.197 292.105 346.441C290.164 354.841 288.695 363.344 287.707 371.908C286.891 379.807 286.23 378.608 286.744 384.597" fill="#E0E0E0"/>
<path d="M294.847 333.222C294.661 332.902 294.514 332.563 294.406 332.21C294.153 331.549 293.81 330.578 293.41 329.387C292.594 326.939 291.599 323.626 290.505 319.929C289.412 316.233 288.367 312.895 287.519 310.512C287.103 309.321 286.76 308.358 286.507 307.697C286.355 307.363 286.243 307.013 286.172 306.653C286.373 306.961 286.539 307.289 286.67 307.632C286.972 308.277 287.372 309.223 287.829 310.398C288.751 312.765 289.853 316.11 290.946 319.799C292.039 323.487 292.978 326.759 293.72 329.28C294.055 330.423 294.349 331.386 294.577 332.153C294.708 332.497 294.799 332.856 294.847 333.222Z" fill="#E0E0E0"/>
<path d="M325.577 321.357C325.177 321.527 324.762 321.658 324.337 321.749C323.521 321.969 322.37 322.287 320.942 322.728C318.086 323.585 314.178 324.907 309.934 326.555C305.691 328.203 301.913 329.868 299.212 331.149C297.866 331.777 296.764 332.316 296.03 332.683C295.654 332.902 295.258 333.082 294.847 333.222C295.191 332.956 295.56 332.723 295.948 332.528C296.674 332.104 297.735 331.516 299.073 330.847C301.742 329.493 305.512 327.771 309.763 326.114C313.394 324.692 317.095 323.455 320.852 322.41C322.289 322.01 323.472 321.741 324.296 321.594C324.715 321.476 325.144 321.397 325.577 321.357Z" fill="#E0E0E0"/>
<path d="M287.576 371.174C287.576 371.174 287.462 371.068 287.282 370.831L286.523 369.779C285.871 368.865 284.957 367.51 283.855 365.829C281.636 362.467 278.731 357.726 275.589 352.455C272.447 347.184 269.575 342.418 267.429 339.015L264.883 334.993L264.198 333.891C264.106 333.77 264.034 333.635 263.985 333.491C264.094 333.596 264.19 333.714 264.271 333.842C264.483 334.128 264.728 334.47 265.03 334.895C265.691 335.809 266.597 337.155 267.706 338.836C269.918 342.198 272.831 346.939 275.972 352.218C279.114 357.498 281.978 362.247 284.132 365.65L286.678 369.673L287.372 370.774C287.452 370.901 287.521 371.035 287.576 371.174Z" fill="#E0E0E0"/>
<path d="M327.323 349.68C327.206 349.784 327.074 349.869 326.932 349.933L325.781 350.57L321.522 352.879C317.931 354.838 312.994 357.588 307.552 360.631C302.109 363.675 297.131 366.392 293.5 368.269C291.68 369.207 290.236 369.95 289.167 370.448L287.976 371.011C287.844 371.087 287.7 371.142 287.552 371.174C287.667 371.072 287.796 370.987 287.935 370.921L289.086 370.284L293.345 367.975C296.944 366.025 301.872 363.275 307.323 360.223C312.774 357.171 317.735 354.462 321.367 352.585C323.186 351.647 324.631 350.904 325.7 350.415L326.891 349.852C327.027 349.777 327.173 349.719 327.323 349.68Z" fill="#E0E0E0"/>
<path d="M385.839 384.564C385.839 384.687 301.285 384.777 197.008 384.777C92.7315 384.777 8.16128 384.687 8.16128 384.564C8.16128 384.442 92.6989 384.336 197 384.336C301.301 384.336 385.839 384.45 385.839 384.564Z" fill="#263238"/>
<path d="M55.2037 360.672C56.0197 357.294 53.8246 353.924 51.3358 351.492C48.847 349.06 45.8686 346.882 44.5549 343.65C42.4414 338.428 45.2077 331.622 41.6173 327.265C39.512 324.711 35.7421 323.87 33.8653 321.129C32.9968 319.617 32.4184 317.957 32.1598 316.233C30.1284 307.534 25.8 299.539 19.6261 293.083C19.2521 300.846 20.9772 308.567 24.62 315.433C26.0806 318.175 27.884 320.843 28.3654 323.911C29.1814 328.889 26.4152 334.038 27.6637 338.917C29.0998 344.507 35.4075 348.22 35.7339 353.973C36.0114 358.869 31.7926 363.144 32.1354 368.008C32.4031 370.076 33.1582 372.05 34.3386 373.769C38.1411 380.003 43.6981 384.287 52.0784 384.099L62.36 384.336L55.2037 360.672Z" fill="#05445E"/>
<g opacity="0.3">
<path d="M55.2037 360.672C56.0197 357.294 53.8246 353.924 51.3358 351.492C48.847 349.06 45.8686 346.882 44.5549 343.65C42.4414 338.428 45.2077 331.622 41.6173 327.265C39.512 324.711 35.7421 323.87 33.8653 321.129C32.9968 319.617 32.4184 317.957 32.1598 316.233C30.1284 307.534 25.8 299.539 19.6261 293.083C19.2521 300.846 20.9772 308.567 24.62 315.433C26.0806 318.175 27.884 320.843 28.3654 323.911C29.1814 328.889 26.4152 334.038 27.6637 338.917C29.0998 344.507 35.4075 348.22 35.7339 353.973C36.0114 358.869 31.7926 363.144 32.1354 368.008C32.4031 370.076 33.1582 372.05 34.3386 373.769C38.1411 380.003 43.6981 384.287 52.0784 384.099L62.36 384.336L55.2037 360.672Z" fill="#05445E"/>
</g>
<path d="M64.4245 384.622C64.4245 384.622 64.6774 384.622 65.1426 384.622C65.8514 384.611 66.5583 384.543 67.256 384.418C68.3696 384.221 69.4624 383.92 70.52 383.52C71.9738 382.984 73.328 382.209 74.5266 381.227C75.2281 380.648 75.7725 379.901 76.1096 379.056C76.3944 378.087 76.5373 377.081 76.5339 376.07C76.5333 374.946 76.5987 373.824 76.7298 372.708C76.9184 371.493 77.3425 370.326 77.9782 369.273C79.2022 367.078 81.1443 365.07 81.7237 362.304C82.303 359.538 81.8542 356.592 81.3402 353.475C80.8261 350.358 80.312 346.947 81.5034 343.593C82.6947 340.239 84.8408 337.343 85.8853 333.842C86.9298 330.341 86.3994 326.457 86.6034 322.491C86.6652 320.452 87.1195 318.443 87.9416 316.575C88.7576 314.69 89.9326 312.969 90.7894 311.1C92.5194 307.355 92.8213 303.038 93.2864 298.721C93.5149 296.559 93.7434 294.364 93.98 292.152C94.1174 289.892 94.4921 287.652 95.0979 285.469C95.7854 283.277 96.6028 281.127 97.5459 279.031C98.0142 277.996 98.3936 276.923 98.6802 275.824C98.8403 274.688 98.9411 273.544 98.9821 272.397C99.0779 270.059 98.9742 267.717 98.672 265.396C98.3782 263.054 97.9376 260.704 97.6683 258.305C97.6683 258.166 97.6683 258.019 97.6194 257.889L98.0845 258.15C96.0048 259.227 94.2011 260.768 92.8131 262.654C91.4458 264.529 90.3472 266.587 89.5491 268.766C87.9171 273.099 87.297 277.677 86.4483 282.116C85.5997 286.555 84.5144 290.986 82.2051 294.772C81.0546 296.649 79.7 298.33 78.5331 300.084C77.3124 301.752 76.4763 303.669 76.0851 305.698C75.4894 309.778 77.8885 313.564 77.4152 317.669C77.1737 319.637 76.5173 321.531 75.4894 323.226C74.5347 324.907 73.4331 326.441 72.405 327.967C71.3658 329.427 70.4618 330.978 69.704 332.602C69.01 334.179 68.6011 335.867 68.4963 337.587C68.2515 340.974 68.7493 344.262 68.4963 347.436C68.2085 350.444 67.3353 353.365 65.9259 356.037C64.6693 358.583 63.2902 360.868 62.1315 363.071C61.5618 364.132 61.047 365.221 60.5893 366.335C60.1785 367.358 59.8803 368.422 59.6998 369.509C59.3883 371.42 59.3553 373.366 59.6019 375.287C59.8539 377.969 60.8298 380.533 62.4253 382.704C63.0183 383.425 63.6887 384.079 64.4245 384.654C64.4245 384.654 64.2205 384.532 63.837 384.246C63.5915 384.084 63.3645 383.895 63.1597 383.683C62.8643 383.406 62.5914 383.106 62.3437 382.786C60.6773 380.624 59.646 378.042 59.3653 375.327C59.0804 373.385 59.0804 371.411 59.3653 369.468C59.5428 368.352 59.8383 367.258 60.2466 366.204C60.7054 365.091 61.2201 364.002 61.7888 362.94C62.9312 360.721 64.3021 358.428 65.5261 355.898C66.8844 353.267 67.7159 350.395 67.9741 347.445C68.2107 344.336 67.6966 341.055 67.9741 337.596C68.0721 335.816 68.4895 334.07 69.2062 332.438C69.9698 330.774 70.8819 329.182 71.9317 327.681C72.9598 326.147 74.0533 324.621 74.9754 322.973C75.9613 321.345 76.5899 319.526 76.8195 317.636C77.2928 313.785 74.8774 309.982 75.465 305.641C75.855 303.522 76.7137 301.518 77.9782 299.774C79.1533 297.979 80.5078 296.306 81.6258 294.47C83.8616 290.79 84.955 286.44 85.771 282.026C86.587 277.611 87.2072 272.985 88.8963 268.562C89.7143 266.319 90.8462 264.204 92.2582 262.279C93.7038 260.31 95.5865 258.704 97.7581 257.587L98.1742 257.375L98.2232 257.848C98.2232 257.97 98.2232 258.117 98.2722 258.256C98.5414 260.63 98.9821 262.972 99.2758 265.339C99.5823 267.695 99.686 270.072 99.5859 272.446C99.5467 273.629 99.4432 274.808 99.2758 275.979C98.9793 277.119 98.589 278.233 98.109 279.309C97.1669 281.38 96.3495 283.505 95.661 285.673C95.0665 287.822 94.6974 290.026 94.5594 292.25C94.3254 294.459 94.0915 296.635 93.8576 298.778C93.3843 303.071 93.0906 307.461 91.2872 311.337C90.3978 313.254 89.2554 314.976 88.4312 316.804C87.6303 318.605 87.1869 320.545 87.1256 322.516C86.9134 326.4 87.4602 330.325 86.3586 333.989C85.257 337.653 83.0211 340.517 81.9358 343.781C80.8506 347.045 81.2586 350.35 81.7482 353.426C82.2378 356.502 82.7682 359.587 82.0827 362.402C81.3973 365.217 79.447 367.298 78.2475 369.452C77.6378 370.463 77.2304 371.583 77.048 372.749C76.9112 373.851 76.8377 374.96 76.8277 376.07C76.8216 377.11 76.6649 378.143 76.3626 379.138C75.9961 380.02 75.419 380.799 74.6816 381.407C73.4556 382.386 72.0774 383.158 70.6016 383.691C69.5178 384.088 68.397 384.375 67.256 384.548C66.3239 384.739 65.3653 384.764 64.4245 384.622Z" fill="#263238"/>
<path d="M96.1832 263.47C96.1994 263.578 96.1994 263.688 96.1832 263.796C96.1342 264.041 96.0853 264.351 96.02 264.735C95.865 265.551 95.6773 266.767 95.3264 268.333C94.9755 269.9 94.0698 271.655 93.3272 273.768C92.5846 275.881 91.7523 278.321 91.0261 281.063C90.2998 283.805 89.647 286.832 88.9616 290.104C88.2762 293.376 87.5336 296.942 85.7384 300.304C84.9224 301.993 83.984 303.683 83.2904 305.486C82.5857 307.34 82.1169 309.276 81.895 311.247C81.4058 315.444 80.6922 319.611 79.7571 323.732L74.0451 347.494L69.1491 366.841C67.7374 372.3 66.595 376.739 65.7954 379.897L64.808 383.406C64.7019 383.773 64.6203 384.075 64.5469 384.32C64.4734 384.565 64.449 384.63 64.4326 384.622C64.4384 384.514 64.4548 384.408 64.4816 384.303C64.536 384.059 64.6013 383.749 64.6774 383.373C64.8814 382.508 65.1589 381.317 65.4934 379.807L68.6514 366.751C70.0059 361.219 71.6216 354.658 73.4086 347.371C75.1957 340.084 77.0643 332.039 79.0798 323.617C80.0115 319.513 80.7252 315.362 81.2178 311.182C81.4524 309.163 81.9376 307.181 82.6621 305.282C83.4046 303.43 84.343 301.732 85.1754 300.06C86.9542 296.796 87.6805 293.27 88.4394 290.015C89.1982 286.759 89.8266 283.707 90.5936 280.965C91.3606 278.223 92.1766 275.775 92.9926 273.67C93.8086 271.565 94.6981 269.81 95.0898 268.293C95.4814 266.775 95.7018 265.543 95.9058 264.735L96.1261 263.805C96.1347 263.692 96.1539 263.58 96.1832 263.47Z" fill="#263238"/>
<path d="M66.2442 384.646C72.9272 380.623 74.7795 368.506 71.9562 361.243C69.1328 353.981 64.1878 347.371 63.3882 339.587C62.768 333.622 64.6938 327.477 63.2658 321.635C61.3482 313.776 53.6206 307.722 53.6696 299.603C53.6696 295.057 56.2482 290.765 56.0197 286.236C55.7341 280.671 51.4419 276.281 48.7654 271.393C44.6854 263.911 44.359 255.073 42.9229 246.636C41.4867 238.199 38.2146 229.296 30.74 225.216C29.6792 232.364 27.8269 237.268 28.4715 246.946C28.7 250.414 32.78 257.048 33.3675 264.661C33.7266 269.207 33.9795 273.768 34.2814 278.321C34.5752 282.752 34.8853 287.297 36.501 291.377C37.7413 294.552 39.7078 297.432 40.6299 300.704C42.368 306.865 40.173 313.564 41.5846 319.815C42.776 325.111 46.4806 329.648 47.2477 335.017C48.3411 342.557 43.5022 350.431 46.0482 357.62C47.3048 361.186 50.2587 364.034 51.1155 367.722C51.7765 370.578 51.1155 373.614 51.6949 376.486C52.6659 381.121 61.4869 384.646 66.2442 384.352" fill="#189AB4"/>
<path d="M32.625 232.266C32.6692 232.394 32.7019 232.525 32.7229 232.658C32.78 232.952 32.8534 233.335 32.9432 233.817C33.1472 234.837 33.3757 236.363 33.7592 238.288C34.1427 240.214 35.228 242.368 36.093 245.077C37.114 248.092 37.9828 251.156 38.696 254.257C39.512 257.701 40.2056 261.512 40.9237 265.6C41.6418 269.688 42.4006 274.07 44.4488 278.264C45.4035 280.386 46.4888 282.532 47.313 284.866C48.1215 287.241 48.6287 289.708 48.8226 292.21C49.251 297.444 49.9565 302.652 50.936 307.812C53.0331 318.379 55.016 328.448 56.8438 337.612C58.6717 346.776 60.4098 354.984 61.8378 361.912C63.2658 368.84 64.3592 374.397 65.1507 378.314C65.5179 380.223 65.8117 381.717 66.0157 382.777C66.1054 383.259 66.1707 383.642 66.2278 383.944C66.2551 384.076 66.2715 384.21 66.2768 384.344C66.2231 384.222 66.1848 384.093 66.1626 383.961C66.0891 383.667 65.9994 383.283 65.8851 382.802C65.6485 381.749 65.3221 380.264 64.8978 378.363L61.3808 362.043C59.9202 355.115 58.1821 346.898 56.2563 337.767L50.2914 307.958C49.3289 302.793 48.6425 297.579 48.235 292.34C48.0581 289.876 47.5701 287.444 46.7826 285.102C45.9666 282.817 44.9058 280.68 43.9592 278.574C41.8947 274.323 41.1603 269.827 40.4422 265.763C39.7242 261.699 39.0877 257.864 38.3043 254.429C37.521 250.993 36.6723 247.901 35.791 245.257C34.9098 242.613 33.9387 240.361 33.547 238.403C33.1554 236.444 33.0085 234.935 32.8453 233.906L32.6902 232.731C32.6511 232.579 32.6292 232.423 32.625 232.266Z" fill="#263238"/>
<path d="M284.443 339.733C285.458 340.217 286.366 340.9 287.113 341.741C287.86 342.582 288.431 343.564 288.792 344.629C289.49 346.779 289.688 349.059 289.371 351.296C288.873 355.621 286.417 359.987 283.773 363.446C280.126 360.272 279.285 354.723 279.041 351.876C278.649 347.388 280.673 339.032 284.443 339.701" fill="#05445E"/>
<path d="M288.009 370.627C287.758 369.39 287.84 368.109 288.246 366.913C288.651 365.718 289.366 364.651 290.318 363.822C291.282 363.01 292.399 362.398 293.602 362.023C294.806 361.647 296.072 361.516 297.327 361.635C297.909 361.628 298.486 361.748 299.017 361.986C299.548 362.224 300.021 362.575 300.404 363.014C300.686 363.48 300.839 364.013 300.847 364.558C300.856 365.103 300.72 365.64 300.453 366.115C299.897 367.057 299.103 367.836 298.151 368.375C294.993 370.358 291.574 371.696 288.009 370.627Z" fill="#05445E"/>
<path d="M283.333 383.895C283.345 383.595 283.389 383.297 283.463 383.006C283.578 382.378 283.725 381.57 283.904 380.599C284.302 377.924 285.129 375.331 286.352 372.92C287.639 370.518 289.54 368.499 291.86 367.069C292.567 366.652 293.32 366.318 294.104 366.074C294.319 366.008 294.536 365.953 294.757 365.911C294.832 365.898 294.91 365.898 294.985 365.911C293.938 366.268 292.929 366.73 291.974 367.29C289.731 368.748 287.892 370.749 286.629 373.108C285.411 375.492 284.556 378.044 284.092 380.68C283.871 381.684 283.692 382.5 283.553 383.063C283.507 383.347 283.434 383.626 283.333 383.895Z" fill="#263238"/>
<path d="M283.496 346.237C283.508 346.364 283.508 346.493 283.496 346.62C283.496 346.906 283.537 347.281 283.561 347.738C283.618 348.709 283.676 350.113 283.733 351.818C283.839 355.286 283.928 360.076 283.904 365.372C283.88 370.668 283.757 375.458 283.61 378.926C283.545 380.656 283.472 382.059 283.414 383.006C283.414 383.463 283.357 383.822 283.333 384.124C283.331 384.253 283.318 384.381 283.292 384.507C283.274 384.377 283.274 384.246 283.292 384.116C283.292 383.83 283.292 383.455 283.292 382.998C283.292 381.994 283.349 380.599 283.39 378.918C283.472 375.45 283.569 370.66 283.594 365.372C283.618 360.084 283.594 355.295 283.504 351.827C283.504 350.121 283.455 348.726 283.439 347.747V346.629C283.445 346.496 283.464 346.365 283.496 346.237Z" fill="#263238"/>
<path d="M281.701 373.255C281.257 370.636 280.197 368.161 278.607 366.032C277.018 363.904 274.946 362.184 272.562 361.015C271.346 360.427 269.755 360.052 268.751 360.958C267.747 361.863 267.976 363.487 268.465 364.752C269.536 367.364 271.356 369.6 273.695 371.18C276.034 372.76 278.788 373.612 281.611 373.63" fill="#05445E"/>
<path d="M273.149 365.103C273.418 365.188 273.678 365.3 273.924 365.437C274.223 365.577 274.515 365.733 274.797 365.903C275.124 366.107 275.524 366.311 275.915 366.604C276.356 366.901 276.78 367.219 277.188 367.559C277.66 367.947 278.112 368.358 278.543 368.791C279.52 369.794 280.382 370.902 281.113 372.096C281.824 373.305 282.393 374.592 282.811 375.931C282.984 376.516 283.126 377.11 283.235 377.71C283.339 378.233 283.413 378.762 283.455 379.293C283.497 379.727 283.516 380.163 283.512 380.599C283.539 380.93 283.539 381.263 283.512 381.594C283.51 381.869 283.477 382.143 283.414 382.41C283.349 382.41 283.472 381.211 283.259 379.293C283.194 378.82 283.137 378.298 283.006 377.743C282.876 377.188 282.729 376.609 282.558 376.005C282.128 374.695 281.562 373.434 280.868 372.243C280.15 371.068 279.307 369.974 278.355 368.979C277.94 368.544 277.502 368.133 277.041 367.747C276.625 367.363 276.225 367.061 275.809 366.768C274.218 365.666 273.125 365.16 273.149 365.103Z" fill="#263238"/>
<path d="M202.785 384.564L85.7874 384.026C79.0293 383.993 72.5607 381.279 67.8035 376.479C63.0462 371.679 60.3897 365.186 60.4179 358.428L61.6582 65.1168C61.6721 61.7689 62.3456 58.4564 63.6402 55.3689C64.9347 52.2813 66.825 49.4791 69.2029 47.1223C71.5809 44.7656 74.4 42.9005 77.499 41.6337C80.5981 40.3668 83.9164 39.7231 87.2643 39.7392L204.262 40.2778C207.61 40.2917 210.921 40.9649 214.008 42.2589C217.095 43.5529 219.897 45.4425 222.254 47.8196C224.611 50.1967 226.476 53.0148 227.743 56.1129C229.01 59.211 229.655 62.5284 229.64 65.8757L228.4 359.187C228.386 362.535 227.712 365.849 226.417 368.937C225.122 372.025 223.231 374.827 220.852 377.184C218.473 379.541 215.653 381.406 212.553 382.672C209.453 383.939 206.134 384.582 202.785 384.564Z" fill="#455A64"/>
<path d="M204.091 50.4043L181.406 50.2982C179.916 50.3261 178.498 50.9426 177.462 52.0129C176.425 53.0832 175.854 54.5203 175.874 56.0102V60.0902C175.896 61.5808 175.325 63.0191 174.288 64.0899C173.251 65.1607 171.832 65.7765 170.341 65.8022L126.13 65.5982C125.39 65.5792 124.661 65.4144 123.985 65.1132C123.308 64.812 122.698 64.3803 122.189 63.8429C121.679 63.3055 121.281 62.673 121.016 61.9814C120.752 61.2899 120.626 60.5529 120.647 59.8128V55.7328C120.682 54.2398 120.125 52.7935 119.098 51.7096C118.07 50.6257 116.656 49.9922 115.163 49.9474H107.183L87.3296 49.8576C84.9836 49.8447 82.6581 50.2943 80.4859 51.1807C78.3137 52.0671 76.3376 53.3728 74.6704 55.0234C73.0031 56.6739 71.6776 58.6369 70.7694 60.8C69.8612 62.9631 69.3883 65.2841 69.3776 67.6301L68.1862 353.932C68.1734 356.277 68.6227 358.602 69.5085 360.774C70.3944 362.945 71.6995 364.921 73.3491 366.588C74.9988 368.255 76.9608 369.581 79.123 370.49C81.2852 371.398 83.6052 371.872 85.9506 371.884L202.72 372.422C205.066 372.435 207.392 371.986 209.564 371.099C211.736 370.213 213.712 368.907 215.379 367.257C217.047 365.606 218.372 363.643 219.28 361.48C220.189 359.317 220.661 356.996 220.672 354.65L221.88 68.3482C221.893 66.0012 221.443 63.6747 220.555 61.5019C219.668 59.3292 218.36 57.3528 216.708 55.686C215.055 54.0193 213.09 52.6948 210.926 51.7885C208.761 50.8822 206.438 50.4118 204.091 50.4043Z" fill="#FAFAFA"/>
<path d="M146.082 267.738C146.196 267.738 146.294 274.935 146.294 283.805C146.294 292.675 146.196 299.88 146.082 299.88C145.967 299.88 145.869 292.683 145.869 283.805C145.869 274.927 145.967 267.738 146.082 267.738Z" fill="#05445E"/>
<path d="M141.896 271.271C142.01 271.271 142.108 276.763 142.108 283.511C142.108 290.259 142.01 295.751 141.896 295.751C141.781 295.751 141.683 290.259 141.683 283.511C141.683 276.763 141.773 271.271 141.896 271.271Z" fill="#05445E"/>
<path d="M137.179 274.78C137.293 274.78 137.391 278.754 137.391 283.658C137.391 288.562 137.293 292.544 137.179 292.544C137.065 292.544 136.967 288.57 136.967 283.658C136.967 278.746 137.065 274.78 137.179 274.78Z" fill="#05445E"/>
<path d="M133.066 277.799C133.36 281.095 133.36 284.41 133.066 287.705C132.784 284.409 132.784 281.095 133.066 277.799Z" fill="#05445E"/>
<path d="M129.443 280.214C129.726 282.018 129.726 283.854 129.443 285.657C129.161 283.854 129.161 282.018 129.443 280.214Z" fill="#05445E"/>
<path d="M125.339 277.318C125.622 280.614 125.622 283.928 125.339 287.224C125.045 283.928 125.045 280.613 125.339 277.318Z" fill="#05445E"/>
<path d="M121.471 273.36C121.585 273.36 121.683 277.522 121.683 282.662C121.683 287.803 121.585 291.973 121.471 291.973C121.357 291.973 121.251 287.803 121.251 282.662C121.251 277.522 121.349 273.36 121.471 273.36Z" fill="#05445E"/>
<path d="M170.513 274.78C170.627 274.78 170.725 278.754 170.725 283.658C170.725 288.562 170.627 292.544 170.513 292.544C170.398 292.544 170.3 288.57 170.3 283.658C170.3 278.746 170.398 274.78 170.513 274.78Z" fill="#05445E"/>
<path d="M166.4 277.799C166.683 281.095 166.683 284.409 166.4 287.705C166.117 284.409 166.117 281.095 166.4 277.799Z" fill="#05445E"/>
<path d="M162.777 280.214C163.06 282.018 163.06 283.854 162.777 285.657C162.494 283.854 162.494 282.018 162.777 280.214Z" fill="#05445E"/>
<path d="M158.648 275.865C158.868 277.993 158.942 280.133 158.868 282.271C158.942 284.408 158.868 286.549 158.648 288.676C158.438 286.548 158.367 284.408 158.436 282.271C158.367 280.133 158.438 277.993 158.648 275.865Z" fill="#05445E"/>
<path d="M154.796 273.36C154.919 273.36 155.017 277.522 155.017 282.662C155.017 287.803 154.919 291.973 154.796 291.973C154.674 291.973 154.584 287.803 154.584 282.662C154.584 277.522 154.682 273.36 154.796 273.36Z" fill="#05445E"/>
<path d="M150.088 271.393C150.202 271.393 150.3 276.697 150.3 283.234C150.3 289.77 150.202 295.082 150.088 295.082C149.974 295.082 149.876 289.778 149.876 283.234C149.876 276.689 149.966 271.393 150.088 271.393Z" fill="#05445E"/>
<path d="M174.903 287.232C174.62 283.936 174.62 280.622 174.903 277.326C175.186 280.622 175.186 283.936 174.903 287.232Z" fill="#05445E"/>
<path d="M178.534 284.784C178.251 282.981 178.251 281.144 178.534 279.341C178.817 281.144 178.817 282.981 178.534 284.784Z" fill="#05445E"/>
<path d="M117.685 277.318C117.968 280.614 117.968 283.928 117.685 287.224C117.402 283.928 117.402 280.614 117.685 277.318Z" fill="#05445E"/>
<path d="M114.054 279.733C114.337 281.533 114.337 283.367 114.054 285.168C113.771 283.367 113.771 281.533 114.054 279.733Z" fill="#05445E"/>
<path d="M110.439 277.318C110.722 280.614 110.722 283.928 110.439 287.224C110.156 283.928 110.156 280.614 110.439 277.318Z" fill="#05445E"/>
<path d="M106.571 273.36C106.685 273.36 106.783 277.522 106.783 282.662C106.783 287.803 106.685 291.973 106.571 291.973C106.457 291.973 106.359 287.803 106.359 282.662C106.359 277.522 106.424 273.36 106.571 273.36Z" fill="#05445E"/>
<path d="M102.785 277.318C103.067 280.614 103.067 283.928 102.785 287.224C102.502 283.928 102.502 280.614 102.785 277.318Z" fill="#05445E"/>
<path d="M99.1616 279.733C99.4446 281.533 99.4446 283.367 99.1616 285.168C98.8787 283.367 98.8787 281.533 99.1616 279.733Z" fill="#05445E"/>
<path d="M190.023 277.318C190.306 280.614 190.306 283.928 190.023 287.224C189.74 283.928 189.74 280.614 190.023 277.318Z" fill="#05445E"/>
<path d="M186.155 273.36C186.278 273.36 186.367 277.522 186.367 282.662C186.367 287.803 186.278 291.973 186.155 291.973C186.033 291.973 185.943 287.803 185.943 282.662C185.943 277.522 186.041 273.36 186.155 273.36Z" fill="#05445E"/>
<path d="M182.377 277.318C182.66 280.614 182.66 283.928 182.377 287.224C182.084 283.928 182.084 280.613 182.377 277.318Z" fill="#05445E"/>
<path d="M178.746 279.733C179.029 281.533 179.029 283.367 178.746 285.168C178.463 283.367 178.463 281.533 178.746 279.733Z" fill="#05445E"/>
<path d="M194.748 279.733C195.031 281.533 195.031 283.367 194.748 285.168C194.465 283.367 194.465 281.533 194.748 279.733Z" fill="#05445E"/>
<g opacity="0.3">
<path d="M209.101 165.844C209.101 165.844 209.101 165.501 209.052 164.832C209.003 164.163 209.052 163.2 208.922 161.87C208.666 158.081 208.068 154.323 207.135 150.642C206.459 147.982 205.606 145.37 204.581 142.825C203.379 139.795 201.936 136.867 200.264 134.069C196.163 127.238 190.802 121.249 184.466 116.419C176.768 110.567 167.81 106.594 158.305 104.815C153.029 103.831 147.647 103.537 142.295 103.942C139.501 104.141 136.723 104.529 133.98 105.101C131.162 105.71 128.388 106.503 125.673 107.475C114.13 111.683 104.091 119.212 96.8197 129.116C94.9217 131.699 93.2301 134.427 91.7605 137.276C90.9934 138.696 90.3406 140.181 89.6715 141.666C89.0024 143.151 88.4557 144.685 87.9661 146.252C85.8696 152.569 84.7953 159.18 84.7837 165.836C84.8044 169.183 85.0772 172.525 85.5997 175.832C86.1182 179.093 86.907 182.305 87.9579 185.436C88.4557 187.003 89.0677 188.512 89.6715 190.022C90.2754 191.532 90.9853 192.992 91.7523 194.412C98.9227 208.247 111.03 218.884 125.673 224.212C128.388 225.185 131.162 225.978 133.98 226.587C141.997 228.25 150.26 228.347 158.313 226.873C167.816 225.096 176.772 221.122 184.466 215.269C190.805 210.436 196.166 204.44 200.264 197.603C201.944 194.807 203.393 191.879 204.597 188.847C205.626 186.304 206.482 183.696 207.159 181.038C208.086 177.356 208.682 173.598 208.938 169.81C209.052 168.512 209.028 167.517 209.069 166.848C209.109 166.178 209.118 165.844 209.118 165.844C209.118 165.844 209.118 166.178 209.118 166.848C209.118 167.517 209.118 168.48 209.028 169.818C208.811 173.616 208.24 177.386 207.322 181.079C205.855 186.929 203.549 192.535 200.476 197.725C196.382 204.6 191.015 210.632 184.662 215.497C180.972 218.327 176.972 220.727 172.74 222.654C168.163 224.761 163.342 226.291 158.387 227.207C153.08 228.207 147.665 228.511 142.279 228.113C139.466 227.913 136.669 227.526 133.907 226.954C131.073 226.345 128.282 225.552 125.551 224.58C113.924 220.35 103.81 212.772 96.4851 202.801C94.5767 200.204 92.8742 197.462 91.3933 194.6C90.5773 193.164 89.9653 191.67 89.288 190.177C88.6107 188.684 88.064 187.133 87.5662 185.558C86.5101 182.405 85.7133 179.172 85.1835 175.889C84.661 172.56 84.3883 169.197 84.3675 165.828C84.3805 159.125 85.4603 152.468 87.5662 146.105C88.064 144.53 88.6923 143.012 89.2962 141.486C89.9 139.96 90.6262 138.508 91.3933 137.072C92.8759 134.222 94.5812 131.493 96.4933 128.912C103.816 118.943 113.927 111.368 125.551 107.141C128.282 106.168 131.073 105.375 133.907 104.766C136.669 104.194 139.466 103.807 142.279 103.608C147.651 103.189 153.055 103.472 158.354 104.448C167.907 106.241 176.906 110.249 184.629 116.149C190.983 121.017 196.352 127.048 200.452 133.922C202.128 136.734 203.572 139.679 204.768 142.727C205.785 145.284 206.631 147.906 207.298 150.577C208.216 154.269 208.787 158.039 209.003 161.837C209.109 163.143 209.069 164.138 209.093 164.808C209.118 165.477 209.101 165.844 209.101 165.844Z" fill="#05445E"/>
</g>
<path d="M201.211 164.497C201.211 164.497 201.211 164.204 201.211 163.624C201.211 163.045 201.211 162.188 201.088 161.07C200.57 153.412 198.417 145.954 194.774 139.197C191.131 132.441 186.083 126.544 179.97 121.902C173.331 116.858 165.605 113.435 157.408 111.906C152.857 111.059 148.217 110.804 143.601 111.147C141.188 111.323 138.789 111.658 136.42 112.151C133.993 112.678 131.602 113.362 129.264 114.199C116.64 118.801 106.201 127.97 100.01 139.895C98.7116 142.38 97.6199 144.967 96.7462 147.631C93.1014 158.602 93.1014 170.458 96.7462 181.429C97.6128 184.099 98.7048 186.689 100.01 189.173C101.278 191.627 102.738 193.976 104.376 196.199C110.647 204.745 119.306 211.244 129.264 214.877C131.603 215.711 133.993 216.392 136.42 216.917C138.788 217.414 141.187 217.749 143.601 217.921C148.217 218.273 152.858 218.018 157.408 217.162C165.605 215.634 173.331 212.211 179.97 207.166C186.095 202.518 191.15 196.608 194.792 189.836C198.434 183.064 200.578 175.589 201.08 167.916C201.186 166.799 201.162 165.942 201.202 165.362C201.243 164.783 201.202 164.497 201.202 164.497C201.202 164.497 201.202 165.681 201.129 167.925C200.652 176.43 198.133 184.695 193.785 192.021C190.251 197.954 185.621 203.16 180.141 207.362C173.474 212.459 165.704 215.921 157.457 217.472C150.467 218.772 143.291 218.697 136.33 217.252C133.884 216.725 131.475 216.041 129.117 215.204C119.083 211.564 110.351 205.033 104.025 196.436C102.37 194.196 100.896 191.827 99.6186 189.353C98.3119 186.849 97.2199 184.24 96.3546 181.552C92.677 170.496 92.677 158.547 96.3546 147.492C97.2201 144.804 98.312 142.194 99.6186 139.691C100.898 137.222 102.369 134.857 104.017 132.616C110.342 124.018 119.074 117.487 129.109 113.848C131.465 113.007 133.875 112.323 136.322 111.8C138.703 111.3 141.116 110.964 143.544 110.796C148.184 110.466 152.847 110.74 157.416 111.612C165.66 113.163 173.426 116.623 180.092 121.715C185.565 125.889 190.195 131.064 193.736 136.966C198.084 144.291 200.603 152.557 201.08 161.062C201.243 163.314 201.211 164.497 201.211 164.497Z" fill="#05445E"/>
<path d="M146.832 210.079C171.263 210.079 191.068 190.274 191.068 165.844C191.068 141.413 171.263 121.608 146.832 121.608C122.402 121.608 102.597 141.413 102.597 165.844C102.597 190.274 122.402 210.079 146.832 210.079Z" fill="#189AB4"/>
<path d="M147.191 152.412H146.335C143.342 152.412 140.916 154.838 140.916 157.831V165.558C140.916 168.551 143.342 170.976 146.335 170.976H147.191C150.184 170.976 152.61 168.551 152.61 165.558V157.831C152.61 154.838 150.184 152.412 147.191 152.412Z" fill="#FAFAFA"/>
<path d="M146.759 174.518C144.475 174.514 142.286 173.604 140.671 171.989C139.055 170.374 138.146 168.185 138.142 165.901C138.142 165.793 138.185 165.689 138.261 165.612C138.338 165.536 138.442 165.493 138.55 165.493C138.658 165.493 138.762 165.536 138.838 165.612C138.915 165.689 138.958 165.793 138.958 165.901C138.96 167.969 139.783 169.952 141.245 171.415C142.708 172.877 144.691 173.7 146.759 173.702C147.796 173.749 148.832 173.58 149.801 173.205C150.769 172.83 151.649 172.257 152.383 171.523C153.118 170.789 153.692 169.91 154.068 168.942C154.444 167.974 154.614 166.938 154.568 165.901C154.568 165.793 154.611 165.689 154.687 165.612C154.764 165.536 154.868 165.493 154.976 165.493C155.084 165.493 155.188 165.536 155.264 165.612C155.341 165.689 155.384 165.793 155.384 165.901C155.384 170.968 151.834 174.51 146.759 174.518Z" fill="#FAFAFA"/>
<path d="M147.167 174.102H146.351V178.329H147.167V174.102Z" fill="white"/>
<path d="M151.867 178.557H141.659C141.551 178.557 141.447 178.514 141.37 178.438C141.294 178.361 141.251 178.257 141.251 178.149C141.251 178.041 141.294 177.937 141.37 177.861C141.447 177.784 141.551 177.741 141.659 177.741H151.867C151.975 177.741 152.079 177.784 152.156 177.861C152.232 177.937 152.275 178.041 152.275 178.149C152.273 178.257 152.229 178.359 152.153 178.435C152.077 178.511 151.975 178.555 151.867 178.557Z" fill="white"/>
<path d="M138.248 155.791C138.199 155.897 137.579 155.676 136.844 155.366C136.11 155.056 135.523 154.754 135.555 154.64C135.588 154.526 136.257 154.64 137.008 154.975C137.758 155.309 138.248 155.685 138.248 155.791Z" fill="white"/>
<path d="M141.512 151.417C141.422 151.49 140.892 150.927 140.329 150.168C139.766 149.41 139.39 148.732 139.513 148.667C139.635 148.602 140.133 149.157 140.696 149.916C141.259 150.674 141.594 151.352 141.512 151.417Z" fill="white"/>
<path d="M146.792 149.85C146.669 149.85 146.588 149.14 146.596 148.218C146.604 147.296 146.71 146.586 146.824 146.586C147.107 147.637 147.107 148.743 146.824 149.793L146.792 149.85Z" fill="white"/>
<path d="M153.581 148.7C153.679 148.765 153.426 149.369 152.952 150.005C152.479 150.642 151.957 151.05 151.875 150.968C151.794 150.887 152.144 150.364 152.61 149.744C153.075 149.124 153.475 148.643 153.581 148.7Z" fill="white"/>
<path d="M158.142 154.224C158.199 154.33 157.652 154.746 156.926 155.162C156.2 155.579 155.564 155.823 155.506 155.725C155.449 155.628 155.988 155.203 156.714 154.787C157.44 154.371 158.085 154.126 158.142 154.224Z" fill="white"/>
<path d="M112.789 252.854L111.483 250.969H110.039V252.854H108.464V246.073H111.402C113.213 246.073 114.347 247.019 114.347 248.521C114.37 248.981 114.248 249.437 113.997 249.823C113.747 250.21 113.381 250.508 112.952 250.675L114.47 252.854H112.789ZM111.32 247.354H110.047V249.696H111.32C112.283 249.696 112.764 249.247 112.764 248.513C112.764 247.778 112.275 247.354 111.32 247.354Z" fill="#263238"/>
<path d="M120.557 250.675H116.616C116.695 251.002 116.89 251.288 117.165 251.482C117.439 251.676 117.775 251.763 118.109 251.728C118.35 251.736 118.589 251.695 118.814 251.608C119.038 251.521 119.242 251.39 119.415 251.222L120.231 252.095C119.951 252.378 119.614 252.597 119.243 252.738C118.871 252.879 118.473 252.938 118.076 252.911C117.701 252.949 117.322 252.907 116.964 252.789C116.606 252.672 116.276 252.48 115.996 252.227C115.716 251.974 115.493 251.666 115.339 251.321C115.186 250.976 115.107 250.604 115.106 250.226C115.101 249.865 115.171 249.506 115.309 249.172C115.448 248.838 115.654 248.537 115.914 248.285C116.174 248.034 116.482 247.838 116.82 247.71C117.159 247.582 117.519 247.525 117.881 247.542C118.241 247.522 118.602 247.578 118.94 247.706C119.277 247.835 119.584 248.033 119.84 248.288C120.096 248.542 120.296 248.848 120.427 249.185C120.557 249.521 120.616 249.882 120.598 250.243C120.59 250.39 120.565 250.553 120.557 250.675ZM116.6 249.794H119.162C119.113 249.489 118.957 249.212 118.722 249.012C118.488 248.812 118.189 248.702 117.881 248.702C117.572 248.702 117.274 248.812 117.039 249.012C116.804 249.212 116.648 249.489 116.6 249.794Z" fill="#263238"/>
<path d="M126.065 249.884V252.854H124.645V252.209C124.471 252.461 124.232 252.662 123.953 252.79C123.675 252.918 123.367 252.968 123.062 252.936C121.838 252.936 121.112 252.258 121.112 251.352C121.112 250.447 121.765 249.794 123.348 249.794H124.547C124.547 249.149 124.164 248.766 123.348 248.766C122.808 248.764 122.282 248.936 121.846 249.255L121.308 248.195C121.979 247.771 122.759 247.553 123.552 247.566C125.143 247.566 126.065 248.309 126.065 249.884ZM124.547 251.214V250.675H123.511C122.809 250.675 122.581 250.936 122.581 251.287C122.581 251.638 122.907 251.916 123.397 251.916C123.639 251.942 123.884 251.888 124.092 251.761C124.3 251.634 124.46 251.442 124.547 251.214Z" fill="#263238"/>
<path d="M132.797 245.673V252.854H131.353V252.258C131.151 252.489 130.899 252.67 130.616 252.788C130.333 252.905 130.027 252.956 129.721 252.936C129.009 252.936 128.326 252.653 127.822 252.149C127.319 251.646 127.036 250.963 127.036 250.251C127.036 249.539 127.319 248.856 127.822 248.353C128.326 247.849 129.009 247.566 129.721 247.566C130.011 247.553 130.3 247.602 130.569 247.71C130.838 247.819 131.08 247.984 131.279 248.195V245.673H132.797ZM131.312 250.251C131.291 249.991 131.195 249.743 131.035 249.537C130.876 249.331 130.659 249.176 130.413 249.091C130.166 249.007 129.9 248.996 129.648 249.06C129.395 249.124 129.167 249.261 128.991 249.454C128.815 249.646 128.699 249.885 128.657 250.143C128.615 250.4 128.65 250.664 128.756 250.902C128.862 251.14 129.035 251.342 129.254 251.483C129.474 251.624 129.729 251.698 129.99 251.695C130.174 251.696 130.357 251.658 130.526 251.584C130.695 251.51 130.846 251.402 130.971 251.266C131.095 251.13 131.19 250.969 131.249 250.794C131.308 250.62 131.329 250.434 131.312 250.251Z" fill="#263238"/>
<path d="M139.366 247.648L137.008 253.18C136.891 253.659 136.614 254.083 136.221 254.38C135.829 254.677 135.346 254.83 134.853 254.812C134.329 254.826 133.816 254.659 133.401 254.339L133.948 253.262C134.186 253.469 134.489 253.588 134.804 253.596C135.221 253.596 135.449 253.409 135.62 252.944V252.895L133.36 247.648H134.984L136.445 251.181L137.922 247.648H139.366Z" fill="#263238"/>
<path d="M146.09 252.609C145.721 252.838 145.292 252.951 144.858 252.936C144.601 252.971 144.339 252.948 144.092 252.868C143.845 252.788 143.619 252.653 143.432 252.473C143.245 252.293 143.102 252.073 143.012 251.83C142.923 251.586 142.89 251.325 142.916 251.067V248.929H142.1V247.762H142.916V246.489H144.425V247.762H145.723V248.929H144.425V251.042C144.413 251.132 144.421 251.224 144.448 251.31C144.475 251.396 144.522 251.475 144.583 251.542C144.645 251.608 144.721 251.66 144.805 251.694C144.889 251.727 144.979 251.742 145.07 251.736C145.289 251.737 145.504 251.669 145.682 251.54L146.09 252.609Z" fill="#263238"/>
<path d="M146.408 250.251C146.37 249.676 146.506 249.103 146.799 248.606C147.091 248.11 147.526 247.713 148.047 247.466C148.568 247.22 149.151 247.136 149.72 247.226C150.289 247.315 150.818 247.574 151.238 247.968C151.659 248.362 151.951 248.873 152.077 249.435C152.203 249.997 152.157 250.585 151.945 251.12C151.733 251.656 151.365 252.116 150.888 252.439C150.411 252.763 149.848 252.936 149.272 252.936C148.905 252.96 148.536 252.909 148.19 252.785C147.843 252.661 147.525 252.467 147.257 252.216C146.988 251.964 146.774 251.659 146.628 251.321C146.482 250.983 146.407 250.619 146.408 250.251ZM150.602 250.251C150.582 249.991 150.486 249.743 150.326 249.538C150.167 249.332 149.951 249.177 149.705 249.092C149.459 249.007 149.193 248.996 148.941 249.059C148.689 249.123 148.46 249.259 148.284 249.45C148.107 249.642 147.991 249.881 147.948 250.137C147.905 250.394 147.939 250.658 148.043 250.896C148.148 251.134 148.32 251.337 148.539 251.479C148.757 251.621 149.012 251.696 149.272 251.695C149.456 251.695 149.637 251.656 149.805 251.582C149.973 251.507 150.124 251.399 150.248 251.263C150.371 251.127 150.465 250.967 150.523 250.792C150.582 250.618 150.603 250.434 150.586 250.251H150.602Z" fill="#263238"/>
<path d="M155.865 245.673H157.375V252.854H155.865V245.673Z" fill="#263238"/>
<path d="M158.599 246.073C158.605 245.957 158.635 245.844 158.685 245.739C158.736 245.635 158.808 245.542 158.895 245.466C158.983 245.39 159.085 245.332 159.195 245.296C159.305 245.26 159.422 245.247 159.537 245.257C159.654 245.239 159.774 245.247 159.887 245.28C160.001 245.313 160.106 245.37 160.195 245.448C160.285 245.526 160.356 245.622 160.404 245.73C160.453 245.838 160.477 245.955 160.476 246.073C160.476 246.322 160.377 246.561 160.201 246.737C160.025 246.912 159.786 247.011 159.537 247.011C159.289 247.011 159.05 246.912 158.874 246.737C158.698 246.561 158.599 246.322 158.599 246.073ZM158.787 247.648H160.28V252.854H158.77L158.787 247.648Z" fill="#263238"/>
<path d="M161.194 252.372L161.7 251.287C162.247 251.615 162.873 251.79 163.511 251.793C164.213 251.793 164.474 251.605 164.474 251.32C164.474 250.463 161.324 251.32 161.324 249.255C161.324 248.268 162.214 247.566 163.732 247.566C164.428 247.551 165.118 247.708 165.739 248.023L165.233 249.1C164.776 248.838 164.258 248.703 163.732 248.709C163.054 248.709 162.769 248.929 162.769 249.198C162.769 250.088 165.91 249.198 165.91 251.279C165.91 252.25 165.013 252.911 163.462 252.911C162.672 252.933 161.89 252.747 161.194 252.372Z" fill="#263238"/>
<path d="M170.211 252.609C169.842 252.838 169.413 252.951 168.979 252.936C168.721 252.971 168.459 252.948 168.212 252.868C167.965 252.788 167.739 252.653 167.551 252.473C167.364 252.293 167.219 252.074 167.128 251.83C167.038 251.586 167.004 251.326 167.028 251.067V248.929H166.212V247.762H167.028V246.489H168.538V247.762H169.835V248.929H168.538V251.042C168.525 251.133 168.533 251.225 168.561 251.312C168.589 251.399 168.636 251.479 168.699 251.545C168.761 251.612 168.838 251.663 168.923 251.696C169.008 251.729 169.1 251.743 169.191 251.736C169.41 251.735 169.624 251.667 169.803 251.54L170.211 252.609Z" fill="#263238"/>
<path d="M175.972 250.675H172.03C172.11 251.002 172.305 251.288 172.579 251.482C172.854 251.676 173.19 251.763 173.524 251.728C173.764 251.736 174.004 251.695 174.228 251.608C174.452 251.521 174.657 251.39 174.829 251.222L175.645 252.095C175.368 252.379 175.033 252.598 174.662 252.739C174.291 252.88 173.895 252.939 173.499 252.911C171.696 252.911 170.521 251.777 170.521 250.226C170.516 249.864 170.585 249.505 170.725 249.17C170.864 248.836 171.07 248.534 171.331 248.282C171.592 248.03 171.901 247.835 172.241 247.708C172.58 247.58 172.942 247.524 173.303 247.542C173.664 247.522 174.025 247.578 174.362 247.706C174.7 247.835 175.007 248.033 175.263 248.288C175.519 248.542 175.719 248.848 175.85 249.185C175.98 249.521 176.038 249.882 176.021 250.243C176.004 250.39 175.98 250.553 175.972 250.675ZM172.006 249.794H174.576C174.522 249.492 174.364 249.219 174.129 249.023C173.894 248.826 173.598 248.718 173.291 248.718C172.985 248.718 172.688 248.826 172.453 249.023C172.218 249.219 172.06 249.492 172.006 249.794Z" fill="#263238"/>
<path d="M182.312 249.876V252.854H180.802V250.104C180.802 249.288 180.411 248.88 179.75 248.88C179.089 248.88 178.493 249.321 178.493 250.284V252.854H177.008V247.648H178.452V248.26C178.675 248.03 178.943 247.849 179.239 247.73C179.536 247.61 179.854 247.554 180.174 247.566C180.474 247.551 180.774 247.601 181.052 247.714C181.33 247.827 181.58 248 181.784 248.22C181.988 248.441 182.141 248.703 182.232 248.989C182.323 249.275 182.351 249.578 182.312 249.876Z" fill="#263238"/>
<path d="M132.92 332.846C132.915 332.475 132.986 332.106 133.129 331.762C133.272 331.419 133.484 331.109 133.751 330.85C134.019 330.592 134.337 330.391 134.685 330.26C135.033 330.129 135.404 330.07 135.776 330.088C136.155 330.071 136.535 330.134 136.888 330.275C137.241 330.416 137.56 330.63 137.824 330.904L137.318 331.394C137.126 331.185 136.893 331.02 136.632 330.909C136.372 330.798 136.091 330.743 135.808 330.749C135.258 330.749 134.731 330.968 134.343 331.356C133.954 331.745 133.736 332.272 133.736 332.822C133.736 333.372 133.954 333.899 134.343 334.288C134.731 334.676 135.258 334.895 135.808 334.895C136.092 334.899 136.373 334.843 136.633 334.731C136.893 334.618 137.127 334.451 137.318 334.242L137.824 334.731C137.559 335.006 137.238 335.221 136.884 335.362C136.529 335.503 136.148 335.566 135.767 335.547C135.401 335.564 135.036 335.506 134.692 335.378C134.349 335.25 134.035 335.054 133.769 334.802C133.504 334.55 133.291 334.247 133.145 333.911C132.999 333.575 132.922 333.213 132.92 332.846Z" fill="#263238"/>
<path d="M141.993 333.075V335.523H141.292V334.984C141.136 335.187 140.932 335.347 140.698 335.45C140.464 335.552 140.208 335.594 139.953 335.572C139.031 335.572 138.444 335.074 138.444 334.372C138.444 333.671 138.868 333.173 140.076 333.173H141.243V333.026C141.243 332.406 140.884 332.047 140.149 332.047C139.682 332.043 139.228 332.199 138.86 332.487L138.55 331.932C139.039 331.574 139.633 331.391 140.239 331.41C141.357 331.427 141.993 331.965 141.993 333.075ZM141.251 334.291V333.744H140.117C139.382 333.744 139.178 334.03 139.178 334.38C139.178 334.731 139.513 335.041 140.076 335.041C140.326 335.058 140.575 334.994 140.787 334.859C140.998 334.724 141.161 334.525 141.251 334.291Z" fill="#263238"/>
<path d="M147.224 333.189V335.539H146.481V333.279C146.481 332.463 146.082 332.088 145.388 332.088C145.209 332.073 145.029 332.098 144.861 332.162C144.693 332.226 144.541 332.326 144.417 332.456C144.292 332.586 144.199 332.741 144.142 332.912C144.086 333.083 144.068 333.264 144.091 333.442V335.539H143.356V331.459H144.058V332.112C144.234 331.893 144.46 331.719 144.717 331.606C144.974 331.492 145.254 331.442 145.535 331.459C145.765 331.441 145.996 331.474 146.212 331.555C146.428 331.636 146.623 331.764 146.784 331.929C146.945 332.094 147.068 332.292 147.144 332.51C147.22 332.728 147.247 332.96 147.224 333.189Z" fill="#263238"/>
<path d="M148.244 333.499C148.239 333.218 148.292 332.939 148.4 332.679C148.508 332.419 148.669 332.185 148.872 331.99C149.075 331.795 149.316 331.645 149.58 331.548C149.844 331.451 150.126 331.41 150.406 331.427C150.731 331.41 151.054 331.482 151.342 331.634C151.629 331.786 151.87 332.014 152.038 332.292L151.475 332.651C151.357 332.467 151.194 332.317 151.001 332.216C150.808 332.114 150.592 332.065 150.374 332.071C149.993 332.071 149.628 332.222 149.358 332.492C149.089 332.761 148.938 333.126 148.938 333.507C148.938 333.888 149.089 334.254 149.358 334.523C149.628 334.792 149.993 334.944 150.374 334.944C150.592 334.948 150.809 334.897 151.002 334.794C151.194 334.691 151.358 334.54 151.475 334.356L152.038 334.707C151.871 334.987 151.631 335.217 151.344 335.372C151.056 335.527 150.733 335.602 150.406 335.588C150.125 335.604 149.842 335.561 149.578 335.463C149.313 335.364 149.072 335.212 148.869 335.016C148.666 334.82 148.505 334.584 148.398 334.323C148.29 334.062 148.238 333.781 148.244 333.499Z" fill="#263238"/>
<path d="M156.624 333.744H153.32C153.365 334.095 153.543 334.416 153.818 334.639C154.093 334.863 154.443 334.972 154.796 334.944C155.017 334.951 155.236 334.91 155.439 334.824C155.642 334.738 155.824 334.609 155.972 334.446L156.38 334.927C156.077 335.231 155.693 335.442 155.274 335.533C154.855 335.624 154.418 335.593 154.017 335.442C153.615 335.291 153.266 335.027 153.01 334.683C152.755 334.338 152.604 333.927 152.577 333.499C152.567 333.226 152.613 332.954 152.712 332.7C152.811 332.446 152.961 332.214 153.153 332.02C153.345 331.826 153.574 331.673 153.828 331.571C154.081 331.469 154.352 331.42 154.625 331.427C154.899 331.419 155.171 331.469 155.424 331.573C155.678 331.677 155.907 331.832 156.096 332.03C156.286 332.227 156.433 332.462 156.526 332.719C156.62 332.976 156.659 333.25 156.641 333.524C156.639 333.597 156.634 333.671 156.624 333.744ZM153.32 333.214H155.931C155.895 332.892 155.742 332.596 155.501 332.381C155.26 332.165 154.948 332.046 154.625 332.046C154.302 332.046 153.99 332.165 153.749 332.381C153.509 332.596 153.355 332.892 153.32 333.214Z" fill="#263238"/>
<path d="M157.669 329.827H158.403V335.539H157.669V329.827Z" fill="#263238"/>
<path d="M183.055 346.661C183.055 346.661 183.259 346.661 183.65 346.604L184.376 346.555L185.38 346.392C188.23 345.828 190.791 344.282 192.616 342.022C194.442 339.763 195.416 336.934 195.368 334.03C195.393 332.962 195.358 331.894 195.262 330.831C195.118 329.71 194.827 328.612 194.397 327.567C193.917 326.469 193.295 325.441 192.545 324.507C191.728 323.549 190.78 322.711 189.729 322.018C187.427 320.568 184.725 319.886 182.01 320.068H173.124H153.54H108.66C106.685 320.088 104.743 320.58 102.997 321.504C101.287 322.39 99.8125 323.671 98.6965 325.241C97.5816 326.781 96.8539 328.567 96.5749 330.447C96.4951 330.908 96.4514 331.375 96.4443 331.843C96.4443 332.308 96.4443 332.789 96.4443 333.263C96.4148 334.193 96.4639 335.123 96.5912 336.045C96.8506 337.864 97.5203 339.599 98.5496 341.121C99.5719 342.603 100.902 343.847 102.45 344.768C103.968 345.667 105.664 346.224 107.42 346.4L108.717 346.457H112.634L149.297 346.498L174.013 346.563H180.737L174.013 346.604L149.297 346.669L112.634 346.71H108.717L107.379 346.645C105.566 346.465 103.814 345.892 102.246 344.964C100.645 344.014 99.2677 342.732 98.2069 341.202C97.1447 339.628 96.4503 337.835 96.175 335.955C96.0489 335.012 95.9997 334.059 96.0282 333.107C96.0282 332.626 96.0282 332.161 96.0282 331.671C96.0311 331.187 96.0748 330.704 96.1587 330.227C96.4493 328.284 97.199 326.437 98.3456 324.841C99.505 323.217 101.031 321.889 102.801 320.965C104.599 320.043 106.59 319.557 108.611 319.546H153.491H173.075H181.961C183.989 319.4 186.023 319.741 187.893 320.538C189.763 321.336 191.417 322.568 192.716 324.131C194.239 325.977 195.194 328.225 195.466 330.602C195.553 331.688 195.583 332.778 195.556 333.866C195.604 335.684 195.256 337.491 194.536 339.161C193.816 340.83 192.741 342.324 191.386 343.536C189.697 345.047 187.625 346.063 185.396 346.474L184.385 346.612C184.099 346.612 183.846 346.612 183.65 346.612L183.055 346.661Z" fill="#263238"/>
<path d="M209.101 82.0325C207.007 82.2631 204.899 82.3395 202.794 82.261C200.686 82.3396 198.575 82.2633 196.478 82.0325C198.575 81.8066 200.686 81.7303 202.794 81.804C204.899 81.7304 207.007 81.8068 209.101 82.0325Z" fill="#263238"/>
<path d="M209.101 78.7359C207.007 78.9665 204.899 79.0428 202.794 78.9643C200.686 79.043 198.575 78.9666 196.478 78.7359C198.575 78.51 200.686 78.4336 202.794 78.5074C204.899 78.4338 207.007 78.5101 209.101 78.7359Z" fill="#263238"/>
<path d="M209.101 75.4392C207.007 75.6698 204.899 75.7462 202.794 75.6677C200.686 75.7464 198.575 75.67 196.478 75.4392C198.575 75.2133 200.686 75.137 202.794 75.2107C204.899 75.1371 207.007 75.2135 209.101 75.4392Z" fill="#263238"/>
<path d="M83.3067 84.1622C83.3961 84.151 83.4866 84.151 83.576 84.1622H84.3349L87.1174 84.097L87.044 84.1786C87.044 83.5584 87.044 82.8893 87.044 82.1549C87.044 81.7795 87.044 81.4286 87.044 80.9962C87.0958 80.7793 87.2141 80.584 87.3823 80.4377C87.5506 80.2913 87.7604 80.2013 87.9824 80.1802C88.4312 80.1802 88.7984 80.1802 89.3125 80.1802C89.5683 80.2211 89.8011 80.3521 89.9687 80.5497C90.1363 80.7472 90.2277 80.9982 90.2264 81.2573C90.2264 82.1957 90.2264 83.183 90.2264 84.203L90.0958 84.0725H93.6128L93.4741 84.203C93.4741 82.7914 93.4741 81.3307 93.4741 79.8293C93.4741 79.4539 93.4741 79.0786 93.4741 78.7114C93.4564 78.548 93.4035 78.3904 93.319 78.2495C93.2345 78.1086 93.1203 77.9878 92.9845 77.8954L91.4504 76.3858L89.9653 74.9251L89.2472 74.2152C89.0024 73.9786 88.8066 73.7256 88.521 73.6685C88.3821 73.6306 88.2364 73.6248 88.095 73.6517C87.9536 73.6786 87.8202 73.7373 87.705 73.8235C87.4928 74.003 87.2643 74.256 87.0522 74.4682C86.6197 74.9006 86.2362 75.2842 85.7955 75.7411C84.9795 76.5571 84.1635 77.316 83.5678 78.0259C83.391 78.4398 83.3318 78.8943 83.3965 79.3397C83.3965 79.7722 83.3965 80.1557 83.3965 80.58C83.3965 81.3389 83.3965 81.9998 83.3965 82.571C83.3965 83.1422 83.3965 83.5013 83.3965 83.844C83.408 83.9988 83.408 84.1543 83.3965 84.3091C83.385 84.1679 83.385 84.026 83.3965 83.8848C83.3965 83.5421 83.3965 83.1341 83.3965 82.6282C83.3965 82.1222 83.3965 81.3797 83.3475 80.6208C83.3475 80.221 83.3475 79.8048 83.3475 79.356C83.3475 79.1275 83.3475 78.899 83.3475 78.6624C83.3487 78.4049 83.4162 78.152 83.5434 77.928C84.1962 77.112 84.9714 76.4266 85.771 75.5779L86.84 74.1499C87.0685 73.9296 87.248 73.7093 87.5173 73.4808C87.6608 73.3719 87.8272 73.2969 88.0038 73.2616C88.1805 73.2263 88.3629 73.2315 88.5373 73.2768C88.8602 73.3982 89.1428 73.6073 89.3533 73.8806L90.0795 74.5906L91.5646 76.043L93.0987 77.5608C93.248 77.6863 93.3822 77.8286 93.4986 77.9851C93.6113 78.1607 93.6734 78.364 93.6781 78.5726C93.6781 78.948 93.6781 79.3152 93.6781 79.6987C93.6781 81.192 93.6781 82.6608 93.6781 84.0725V84.2112H93.5394H90.0224H89.9V84.0806C89.9 83.0606 89.9 82.0733 89.9 81.1349C89.9017 80.9356 89.8304 80.7427 89.6997 80.5924C89.5689 80.442 89.3876 80.3448 89.1901 80.3189C88.7821 80.3189 88.3088 80.3189 87.909 80.3189C87.727 80.338 87.556 80.4149 87.421 80.5382C87.2859 80.6616 87.1938 80.8249 87.1582 81.0043C87.1582 81.3552 87.1582 81.7632 87.1582 82.1222V84.2194H87.0766H84.2451H83.5107L83.3067 84.1622Z" fill="#263238"/>
<path d="M304.288 129.948C304.402 133.775 301.693 134.142 299.824 134.297C297.956 134.452 295.818 133.604 294.112 132.796C290.652 131.164 287.299 129.467 285.903 125.648" fill="#FFBE9D"/>
<path d="M346.736 94.2317C346.85 94.2317 346.948 99.9437 346.948 106.92C346.948 113.897 346.85 119.601 346.736 119.601C346.622 119.601 346.524 113.889 346.524 106.92C346.524 99.9518 346.622 94.2317 346.736 94.2317Z" fill="#05445E"/>
<path d="M350.041 97.0224C350.155 97.0224 350.253 101.355 350.253 106.708C350.253 112.061 350.155 116.386 350.041 116.386C349.927 116.386 349.829 112.053 349.829 106.708C349.829 101.364 349.927 97.0224 350.041 97.0224Z" fill="#05445E"/>
<path d="M353.762 99.7886C353.972 102.119 354.043 104.459 353.974 106.798C354.043 109.139 353.972 111.483 353.762 113.816C353.547 111.483 353.476 109.139 353.55 106.798C353.476 104.459 353.547 102.119 353.762 99.7886Z" fill="#05445E"/>
<path d="M357.001 102.171C357.216 103.465 357.287 104.779 357.213 106.088C357.286 107.395 357.215 108.706 357.001 109.997C356.792 108.705 356.721 107.395 356.789 106.088C356.721 104.779 356.792 103.466 357.001 102.171Z" fill="#05445E"/>
<path d="M359.865 104.081C360.148 105.498 360.148 106.956 359.865 108.373C359.583 106.956 359.583 105.498 359.865 104.081Z" fill="#05445E"/>
<path d="M363.113 101.788C363.322 103.082 363.394 104.395 363.325 105.705C363.394 107.011 363.323 108.322 363.113 109.613C362.899 108.322 362.827 107.011 362.901 105.705C362.828 104.395 362.899 103.082 363.113 101.788Z" fill="#05445E"/>
<path d="M366.165 98.6462C366.375 101.088 366.446 103.54 366.377 105.99C366.446 108.44 366.375 110.892 366.165 113.334C365.95 110.893 365.879 108.44 365.953 105.99C365.879 103.54 365.95 101.088 366.165 98.6462Z" fill="#05445E"/>
<path d="M327.454 99.7886C327.664 102.119 327.735 104.459 327.666 106.798C327.735 109.139 327.664 111.483 327.454 113.816C327.239 111.483 327.168 109.139 327.242 106.798C327.168 104.459 327.239 102.119 327.454 99.7886Z" fill="#05445E"/>
<path d="M330.693 102.171C330.908 103.465 330.979 104.779 330.906 106.088C330.979 107.395 330.907 108.706 330.693 109.997C330.484 108.705 330.413 107.395 330.481 106.088C330.413 104.779 330.484 103.466 330.693 102.171Z" fill="#05445E"/>
<path d="M333.558 104.081C333.841 105.498 333.841 106.956 333.558 108.373C333.346 107.679 333.274 106.949 333.345 106.227C333.274 105.505 333.346 104.775 333.558 104.081Z" fill="#05445E"/>
<path d="M336.797 100.645C337.012 102.323 337.083 104.015 337.009 105.705C337.083 107.391 337.012 109.081 336.797 110.756C336.587 109.081 336.516 107.391 336.585 105.705C336.517 104.015 336.587 102.323 336.797 100.645Z" fill="#05445E"/>
<path d="M339.849 98.6462C340.069 101.088 340.143 103.54 340.069 105.99C340.143 108.44 340.069 110.893 339.849 113.334C339.639 110.892 339.568 108.44 339.637 105.99C339.568 103.54 339.639 101.088 339.849 98.6462Z" fill="#05445E"/>
<path d="M343.57 97.104C343.692 97.104 343.782 101.29 343.782 106.447C343.782 111.604 343.692 115.799 343.57 115.799C343.447 115.799 343.358 111.612 343.358 106.447C343.358 101.282 343.456 97.104 343.57 97.104Z" fill="#05445E"/>
<path d="M323.986 109.613C323.771 108.322 323.7 107.011 323.774 105.705C323.701 104.395 323.772 103.082 323.986 101.788C324.195 103.082 324.266 104.395 324.198 105.705C324.267 107.011 324.196 108.322 323.986 109.613Z" fill="#05445E"/>
<path d="M321.122 107.712C320.839 106.295 320.839 104.837 321.122 103.42C321.405 104.837 321.405 106.295 321.122 107.712Z" fill="#05445E"/>
<path d="M369.176 101.788C369.385 103.082 369.456 104.395 369.388 105.705C369.457 107.011 369.386 108.322 369.176 109.613C368.962 108.322 368.89 107.011 368.964 105.705C368.891 104.395 368.962 103.082 369.176 101.788Z" fill="#05445E"/>
<path d="M372.016 103.697C372.299 105.114 372.299 106.573 372.016 107.989C371.803 107.295 371.731 106.566 371.803 105.843C371.732 105.121 371.804 104.392 372.016 103.697Z" fill="#05445E"/>
<path d="M343.235 351.753L349.184 369.003C349.184 369.003 368.719 368.759 370.123 371.843L337.091 384.564L326.744 358.061L343.235 351.753Z" fill="#05445E"/>
<path d="M338.413 371.509C338.132 371.728 337.943 372.044 337.881 372.395C337.819 372.746 337.89 373.107 338.078 373.41C338.287 373.697 338.597 373.894 338.947 373.96C339.296 374.025 339.657 373.954 339.955 373.761C340.251 373.527 340.451 373.192 340.516 372.82C340.58 372.448 340.506 372.065 340.306 371.745C340.056 371.467 339.709 371.296 339.336 371.268C338.963 371.241 338.594 371.359 338.307 371.598" fill="#E0E0E0"/>
<g opacity="0.6">
<path d="M337.091 384.565L336.144 381.888L368.172 370.701C368.172 370.701 369.894 370.774 370.123 371.876L337.091 384.565Z" fill="white"/>
</g>
<path d="M349.657 368.628C349.714 368.791 348.931 369.175 348.335 369.999C347.74 370.823 347.585 371.672 347.413 371.631C347.242 371.59 347.12 370.595 347.854 369.615C348.588 368.636 349.633 368.473 349.657 368.628Z" fill="#263238"/>
<path d="M353.672 368.726C353.77 368.873 353.174 369.411 352.856 370.309C352.538 371.207 352.693 371.982 352.53 372.039C352.366 372.096 351.909 371.223 352.285 370.113C352.66 369.003 353.607 368.579 353.672 368.726Z" fill="#263238"/>
<path d="M357.238 372.096C357.107 372.186 356.569 371.468 356.642 370.464C356.716 369.46 357.336 368.775 357.458 368.889C357.581 369.003 357.287 369.648 357.246 370.521C357.205 371.394 357.393 372.039 357.238 372.096Z" fill="#263238"/>
<path d="M347.862 364.85C347.862 365.021 347.046 365.087 346.14 365.495C345.235 365.903 344.647 366.474 344.508 366.368C344.37 366.262 344.827 365.421 345.879 364.948C346.932 364.475 347.895 364.695 347.862 364.85Z" fill="#263238"/>
<path d="M217.547 345.535L217.172 346.025L210.056 355.36L201.202 361.431L213.059 384.279H226.115C226.115 384.279 225.168 381.137 218.893 379.513L218.477 366.971L229.754 354.585" fill="#05445E"/>
<g opacity="0.6">
<path d="M201.17 361.431L213.026 384.271L226.082 384.287L224.613 382.32L213.997 381.725L203.055 360.133L201.17 361.431Z" fill="white"/>
</g>
<path d="M218.779 373.777C218.681 373.908 217.963 373.483 216.919 373.508C215.874 373.532 215.164 373.956 215.066 373.826C214.968 373.695 215.678 372.945 216.91 372.936C218.143 372.928 218.901 373.671 218.779 373.777Z" fill="#263238"/>
<path d="M218.567 370.668C218.436 370.758 217.857 369.991 216.812 369.787C215.768 369.583 214.944 370.056 214.862 369.917C214.781 369.779 214.968 369.64 215.336 369.444C215.827 369.193 216.388 369.116 216.928 369.224C217.469 369.332 217.957 369.62 218.314 370.04C218.575 370.366 218.632 370.627 218.567 370.668Z" fill="#263238"/>
<path d="M218.657 366.67C218.51 366.743 218.069 365.992 217.163 365.674C216.258 365.356 215.433 365.674 215.368 365.511C215.303 365.348 215.499 365.258 215.858 365.127C216.341 364.955 216.868 364.955 217.351 365.127C217.833 365.298 218.244 365.626 218.518 366.058C218.714 366.384 218.722 366.645 218.657 366.67Z" fill="#263238"/>
<path d="M222.149 363.577C221.994 363.634 221.635 362.892 220.819 362.361C220.003 361.831 219.187 361.757 219.187 361.594C219.187 361.431 220.158 361.227 221.137 361.888C222.116 362.549 222.296 363.561 222.149 363.577Z" fill="#263238"/>
<g opacity="0.6">
<path d="M211.582 361.039C211.582 361.346 211.491 361.646 211.321 361.901C211.15 362.155 210.908 362.354 210.625 362.472C210.342 362.589 210.03 362.62 209.729 362.56C209.428 362.5 209.152 362.352 208.935 362.135C208.718 361.919 208.571 361.642 208.511 361.342C208.451 361.041 208.482 360.729 208.599 360.446C208.716 360.163 208.915 359.92 209.17 359.75C209.425 359.58 209.725 359.489 210.032 359.489C210.443 359.489 210.837 359.652 211.128 359.943C211.419 360.234 211.582 360.628 211.582 361.039Z" fill="white"/>
</g>
<path d="M286.026 241.691C289.11 242.833 274.332 303.634 274.332 303.634L229.722 357.269L214.854 344.458L248.22 293.14L258.69 210.446L282.745 211.752L286.026 241.691Z" fill="#263238"/>
<path d="M306.515 210.446C306.94 211.621 331.73 297.024 331.73 297.024L345.512 355.262L327.56 361.113C327.56 361.113 304.01 306.612 301.179 297.465C298.347 288.317 291.656 274.992 291.656 274.992L278.6 240.475C278.6 240.475 257.727 228.945 259.261 209.467L306.515 210.446Z" fill="#263238"/>
<path d="M347.625 359.432L346.565 352.422L324.957 359.44L327.47 366.849L347.625 359.432Z" fill="#263238"/>
<path d="M259.432 210.446C259.432 210.446 259.473 210.675 259.53 211.132L259.783 213.139C260.079 215.689 260.556 218.214 261.211 220.695C261.696 222.461 262.378 224.166 263.243 225.779C264.278 227.671 265.551 229.423 267.029 230.993C270.648 234.732 274.91 237.789 279.612 240.018L279.685 240.059V240.132C280.501 243.233 281.57 246.44 282.737 249.753C283.904 253.066 285.185 256.485 286.507 260.01C289.167 267.052 292.105 274.494 295.148 282.189C299.392 292.797 303.308 302.989 307.119 312.161C310.93 321.333 314.398 329.55 317.336 336.453C320.273 343.357 322.664 348.938 324.247 352.822C325.063 354.764 325.642 356.282 326.034 357.31L326.475 358.493C326.573 358.754 326.613 358.893 326.613 358.893C326.613 358.893 326.548 358.763 326.434 358.501L325.961 357.343L324.1 352.887C322.468 349.02 320.02 343.446 317.058 336.567C314.096 329.688 310.53 321.471 306.752 312.3C302.974 303.128 299 292.944 294.765 282.336C291.721 274.641 288.792 267.199 286.14 260.141C284.81 256.624 283.553 253.188 282.394 249.867C281.236 246.546 280.167 243.339 279.359 240.214L279.449 240.328C274.721 238.066 270.441 234.967 266.817 231.181C265.332 229.586 264.054 227.809 263.014 225.893C262.159 224.257 261.488 222.53 261.015 220.744C260.378 218.25 259.93 215.71 259.677 213.147C259.587 212.274 259.522 211.605 259.473 211.132C259.424 210.659 259.432 210.446 259.432 210.446Z" fill="#455A64"/>
<path d="M296.038 244.155C295.858 244.31 295.65 244.429 295.426 244.506C294.837 244.754 294.211 244.9 293.574 244.939C291.436 245.024 289.347 244.292 287.731 242.891C286.17 241.48 284.951 239.733 284.165 237.782C283.855 237.048 283.643 236.436 283.504 236.012C283.411 235.797 283.359 235.568 283.349 235.334C283.414 235.334 283.757 236.232 284.443 237.652C285.286 239.509 286.499 241.175 288.008 242.548C289.551 243.88 291.519 244.615 293.557 244.62C294.401 244.572 295.234 244.416 296.038 244.155Z" fill="#455A64"/>
<path d="M258.959 296.208C257.367 295.284 255.699 294.497 253.973 293.858C252.202 293.358 250.393 293.008 248.563 292.813C249.097 292.687 249.65 292.657 250.195 292.724C252.862 292.863 255.444 293.708 257.678 295.172C258.162 295.439 258.596 295.79 258.959 296.208Z" fill="#455A64"/>
<path d="M346.328 352.512C346.328 352.618 341.612 354.307 335.72 356.282C329.829 358.257 325.022 359.766 324.981 359.652C324.941 359.538 329.69 357.849 335.589 355.882C341.489 353.916 346.328 352.381 346.328 352.512Z" fill="#455A64"/>
<path d="M210.293 349.452L214.267 342.459L231.762 357.277L226.384 363.144L210.293 349.452Z" fill="#263238"/>
<path d="M231.762 357.277C231.499 357.125 231.257 356.938 231.044 356.723L229.191 355.091C227.633 353.72 225.478 351.827 223.006 349.868C220.533 347.91 218.355 346.033 216.772 344.687C215.956 344.017 215.344 343.463 214.911 343.055C214.479 342.647 214.242 342.443 214.267 342.418C214.533 342.561 214.785 342.731 215.017 342.924C215.482 343.275 216.143 343.789 216.959 344.425C218.591 345.715 220.827 347.51 223.275 349.517C225.723 351.525 227.886 353.418 229.395 354.846C230.154 355.556 230.75 356.143 231.158 356.559C231.388 356.773 231.591 357.014 231.762 357.277Z" fill="#455A64"/>
<path d="M296.552 79.968C297.303 77.1773 299.4 75.8064 302.125 74.8762C303.5 74.4204 304.965 74.3041 306.394 74.5371C307.824 74.7701 309.175 75.3456 310.334 76.2144C311.868 77.3813 313.068 79.0786 314.888 79.7069C317.89 80.7514 321.416 78.5074 324.288 79.8538C325.166 80.2423 325.88 80.9285 326.302 81.7914C326.725 82.6543 326.829 83.6385 326.597 84.5708C326.365 85.5031 325.811 86.3236 325.033 86.8877C324.256 87.4518 323.304 87.7235 322.346 87.6547C324.304 88.3728 324.908 91.1635 323.766 92.9098C322.623 94.656 320.273 95.3088 318.225 94.9253C316.188 94.4287 314.326 93.3847 312.839 91.9061C311.289 90.5189 309.902 88.9358 308.245 87.671C306.635 86.3134 304.599 85.5653 302.492 85.5576C299.677 85.7126 297.262 87.8342 296.005 90.3638C294.749 92.8934 294.455 95.7821 294.3 98.5973C294.145 101.412 294.096 104.309 293.255 106.978C293.157 107.296 293.011 107.647 292.692 107.745C292.235 107.883 291.876 107.402 291.623 106.978C289.05 102.206 287.441 96.9734 286.891 91.5797C286.572 88.4544 286.654 85.5005 288.368 82.8729C290.081 80.2454 294.422 78.3034 296.528 79.968" fill="#263238"/>
<path d="M291.117 93.024L289.681 124.636C289.428 130.013 290.171 137.961 298.657 137.961C306.042 137.406 308.229 130.503 308.449 125.484C308.555 123.102 308.653 121.119 308.678 120.874C308.678 120.874 316.764 120.482 317.703 112.543C318.16 108.707 318.462 100.735 318.641 93.5136C318.737 89.7793 317.424 86.1456 314.965 83.3339C312.505 80.5223 309.079 78.7382 305.365 78.336L304.598 78.2544C296.275 77.8382 291.289 84.6845 291.117 93.024Z" fill="#FFBE9D"/>
<path d="M308.735 120.768C305.055 120.439 301.557 119.019 298.69 116.688C298.69 116.688 300.526 122.669 308.539 122.8L308.735 120.768Z" fill="#EB996E"/>
<path d="M315.793 98.5728C315.764 98.8687 315.621 99.1416 315.394 99.3336C315.167 99.5256 314.874 99.6215 314.577 99.6009C314.432 99.5968 314.288 99.5635 314.156 99.5031C314.023 99.4427 313.904 99.3563 313.805 99.2491C313.706 99.1419 313.629 99.016 313.58 98.8789C313.53 98.7417 313.509 98.596 313.517 98.4504C313.546 98.1545 313.689 97.8816 313.916 97.6896C314.143 97.4976 314.436 97.4017 314.732 97.4222C314.878 97.4264 315.022 97.4596 315.154 97.5201C315.287 97.5805 315.406 97.6668 315.505 97.774C315.604 97.8812 315.681 98.0071 315.73 98.1443C315.779 98.2815 315.801 98.4272 315.793 98.5728Z" fill="#263238"/>
<path d="M316.552 97.2101C316.397 97.3488 315.606 96.6144 314.382 96.492C313.158 96.3696 312.203 96.8837 312.08 96.7205C311.958 96.5573 312.195 96.3941 312.619 96.1493C313.187 95.8382 313.836 95.7099 314.48 95.7821C315.113 95.8523 315.709 96.1175 316.185 96.541C316.528 96.8755 316.634 97.153 316.552 97.2101Z" fill="#263238"/>
<path d="M303.765 97.7078C303.738 98.0052 303.596 98.2802 303.369 98.4739C303.142 98.6676 302.847 98.7646 302.55 98.7442C302.404 98.7389 302.261 98.7049 302.129 98.6441C301.997 98.5834 301.878 98.497 301.779 98.39C301.681 98.283 301.604 98.1576 301.554 98.0209C301.505 97.8842 301.482 97.739 301.489 97.5936C301.518 97.2977 301.661 97.0248 301.888 96.8328C302.115 96.6408 302.408 96.5449 302.705 96.5654C302.85 96.5685 302.993 96.6008 303.126 96.6603C303.259 96.7199 303.378 96.8054 303.477 96.912C303.576 97.0186 303.652 97.1439 303.702 97.2806C303.752 97.4174 303.773 97.5626 303.765 97.7078Z" fill="#263238"/>
<path d="M304.524 96.1656C304.361 96.2961 303.57 95.5699 302.354 95.4393C301.138 95.3088 300.167 95.831 300.053 95.6678C299.938 95.5046 300.167 95.3414 300.583 95.0966C301.151 94.7883 301.801 94.6629 302.444 94.7376C303.081 94.8024 303.681 95.0681 304.157 95.4965C304.5 95.8229 304.598 96.1003 304.524 96.1656Z" fill="#263238"/>
<path d="M307.976 105.696C308.641 105.56 309.322 105.51 310 105.55C310.31 105.55 310.612 105.55 310.685 105.313C310.749 104.994 310.712 104.663 310.579 104.366C310.367 103.55 310.147 102.734 309.91 101.918C308.988 98.3933 308.36 95.5209 308.498 95.4801C308.637 95.4393 309.502 98.2709 310.424 101.788C310.644 102.653 310.856 103.477 311.052 104.236C311.2 104.636 311.2 105.076 311.052 105.476C310.994 105.581 310.914 105.673 310.816 105.743C310.719 105.814 310.607 105.862 310.489 105.884C310.31 105.904 310.13 105.904 309.951 105.884C309.287 105.902 308.624 105.839 307.976 105.696Z" fill="#263238"/>
<path d="M305.348 91.392C305.193 91.7102 303.986 91.392 302.533 91.4491C301.081 91.5062 299.881 91.7347 299.726 91.4491C299.653 91.2941 299.889 91.0085 300.395 90.731C301.058 90.3966 301.791 90.2259 302.533 90.2333C303.274 90.2183 304.008 90.3835 304.671 90.7147C305.177 90.9677 305.414 91.2533 305.348 91.392Z" fill="#263238"/>
<path d="M316.479 93.6278C316.234 93.8808 315.426 93.5054 314.414 93.383C313.402 93.2606 312.529 93.383 312.358 93.0648C312.284 92.9097 312.456 92.6486 312.856 92.4283C313.388 92.1542 313.994 92.057 314.586 92.1509C315.18 92.2239 315.736 92.4807 316.177 92.8853C316.503 93.2035 316.593 93.5054 316.479 93.6278Z" fill="#263238"/>
<path d="M291.142 98.9645C291.011 98.891 285.854 96.7694 285.43 102.228C285.006 107.688 290.587 106.961 290.603 106.806C290.62 106.651 291.142 98.9645 291.142 98.9645Z" fill="#FFBE9D"/>
<path d="M289.11 104.611C289.11 104.611 289.012 104.668 288.841 104.734C288.613 104.825 288.359 104.825 288.131 104.734C287.794 104.486 287.53 104.152 287.367 103.767C287.203 103.383 287.146 102.961 287.201 102.547C287.221 102.07 287.35 101.604 287.576 101.184C287.638 101.016 287.74 100.867 287.874 100.748C288.008 100.63 288.169 100.547 288.343 100.507C288.455 100.484 288.572 100.502 288.672 100.557C288.772 100.612 288.849 100.702 288.89 100.809C288.947 100.964 288.89 101.07 288.89 101.086C288.89 101.102 289.012 100.996 288.988 100.768C288.967 100.633 288.901 100.509 288.8 100.417C288.731 100.353 288.65 100.305 288.562 100.274C288.473 100.243 288.379 100.231 288.286 100.237C288.059 100.264 287.843 100.348 287.659 100.482C287.474 100.617 287.328 100.797 287.233 101.004C286.964 101.461 286.81 101.976 286.784 102.506C286.721 102.989 286.802 103.479 287.019 103.915C287.236 104.351 287.577 104.713 288 104.954C288.144 105.007 288.298 105.027 288.45 105.013C288.603 104.999 288.75 104.951 288.882 104.872C289.086 104.742 289.126 104.619 289.11 104.611Z" fill="#EB996E"/>
<path d="M320.534 92.0203C318.726 92.286 316.88 92.1182 315.15 91.5309C313.419 90.9435 311.852 89.9534 310.579 88.6421C308.825 86.7898 307.584 84.2765 305.234 83.2728C304.431 82.9646 303.574 82.8195 302.713 82.8462C301.853 82.8728 301.007 83.0705 300.224 83.4278C298.67 84.1488 297.281 85.1821 296.144 86.4634C297.246 90.6658 295.736 95.0722 294.243 99.1522C294.127 99.6214 293.857 100.038 293.476 100.335C292.782 100.76 291.844 100.278 291.362 99.6254C290.642 98.5278 290.261 97.2419 290.269 95.929C290.01 92.9549 290.346 89.9592 291.256 87.1162C292.18 84.2662 293.919 81.7498 296.258 79.8782C299.277 77.6359 303.048 76.6529 306.776 77.1365C310.49 77.6447 313.948 79.3125 316.658 81.9019C317.968 83.0385 318.974 84.4825 319.588 86.1043" fill="#263238"/>
<path d="M308.368 109.148C308.202 109.639 307.965 110.104 307.666 110.527C307.515 110.739 307.32 110.916 307.095 111.047C306.87 111.178 306.619 111.259 306.36 111.286C306.084 111.288 305.811 111.219 305.569 111.086C305.326 110.953 305.121 110.761 304.973 110.527C304.679 110.054 304.541 109.5 304.581 108.944C304.581 108.446 304.834 107.851 305.332 107.794C305.541 107.785 305.749 107.83 305.936 107.924L308.539 108.977" fill="#EB996E"/>
<path d="M307.331 111.286C306.86 111.319 306.386 111.261 305.936 111.115C305.483 110.938 305.111 110.601 304.892 110.168C304.77 109.9 304.707 109.61 304.707 109.315C304.707 109.021 304.77 108.731 304.892 108.463C304.948 108.324 305.022 108.192 305.112 108.071C305.218 107.965 305.202 107.965 305.308 107.981L305.732 108.144L306.156 108.324C306.711 108.544 307.217 108.748 307.641 108.903C308.088 109.122 308.568 109.265 309.061 109.328C308.671 109.022 308.236 108.777 307.772 108.601C307.364 108.406 306.874 108.177 306.328 107.932L305.903 107.736C305.748 107.679 305.634 107.606 305.43 107.541C305.303 107.501 305.166 107.501 305.038 107.541C304.924 107.59 304.826 107.669 304.753 107.769C304.635 107.919 304.536 108.084 304.459 108.259C304.319 108.59 304.253 108.949 304.268 109.308C304.282 109.668 304.375 110.02 304.541 110.34C304.677 110.598 304.865 110.826 305.092 111.009C305.319 111.193 305.581 111.329 305.863 111.408C306.226 111.528 306.616 111.545 306.989 111.457C307.217 111.4 307.34 111.319 307.331 111.286Z" fill="#263238"/>
<path d="M334.129 152.984L319.041 185.232C318.336 186.739 317.262 188.043 315.918 189.023C314.574 190.003 313.004 190.627 311.354 190.838C309.238 191.109 307.091 190.687 305.234 189.635C303.378 188.583 301.912 186.958 301.056 185.004L289.796 159.21L309.38 136.158L311.289 163.845L323.668 146.309L334.129 152.984Z" fill="#05445E"/>
<path d="M306.883 174.722C307.392 172.773 308.044 170.864 308.833 169.01C309.484 167.116 310.267 165.27 311.175 163.486C310.664 165.421 310.012 167.316 309.224 169.157C308.575 171.064 307.792 172.924 306.883 174.722Z" fill="#263238"/>
<path d="M306.515 210.446L310.04 206.521C310.649 205.848 311.112 205.056 311.4 204.195C311.688 203.335 311.795 202.423 311.713 201.519L309.845 196.787L312.342 140.605C312.595 136.052 312.537 129.491 308.262 127.647L289.779 122.18C289.779 122.18 277.18 124.864 274.202 131.449C271.86 136.615 268.212 171.54 268.212 171.54L262.908 185.713C262.296 188.504 258.249 204.139 258.012 207.745L258.714 210.463L306.515 210.446Z" fill="#05445E"/>
<path d="M309.845 196.787C309.845 196.787 309.845 196.689 309.845 196.493C309.845 196.297 309.845 195.987 309.845 195.677C309.845 194.861 309.845 193.808 309.845 192.478C309.845 189.696 309.902 185.828 309.934 181.291C310.196 178.125 310.416 174.6 310.628 170.887C311.028 163.73 311.338 157.251 311.672 152.559C311.836 150.217 311.999 148.324 312.121 147.019C312.195 146.399 312.244 145.901 312.284 145.509C312.298 145.333 312.328 145.158 312.374 144.987C312.395 145.163 312.395 145.341 312.374 145.517C312.374 145.909 312.325 146.407 312.293 147.027C312.211 148.39 312.105 150.291 311.974 152.584C311.738 157.317 311.411 163.779 311.052 170.911C310.84 174.624 310.604 178.157 310.318 181.332C310.22 185.868 310.138 189.728 310.073 192.519C310.032 193.849 309.992 194.918 309.967 195.709C309.967 196.044 309.967 196.321 309.926 196.525C309.906 196.615 309.879 196.702 309.845 196.787Z" fill="#263238"/>
<path d="M276.446 221.577L293.141 215.783L278.673 176.868L288.572 143.102C290.081 137.276 287.445 129.083 281.619 127.598C281.366 127.533 280.909 125.444 280.656 125.55C278.363 126.488 272.643 130.364 270.277 134.191C268.481 137.139 267.18 140.362 266.425 143.73L260.42 169.548C259.245 174.597 259.652 179.885 261.586 184.693L276.446 221.577Z" fill="#05445E"/>
<path d="M260.648 181.968C260.688 182.022 260.719 182.083 260.738 182.148L260.974 182.702L261.848 184.857L265.112 192.976L276.34 221.487L276.087 221.373L293.019 215.563L293.133 215.971C292.945 215.819 292.799 215.623 292.709 215.4L292.537 214.951C292.423 214.657 292.309 214.355 292.186 214.053C291.958 213.449 291.729 212.837 291.493 212.225C291.019 210.993 290.546 209.736 290.065 208.472C285.732 196.933 281.66 186.113 278.2 176.909V176.86V176.803C280.526 166.725 282.468 158.312 283.839 152.388C284.524 149.459 285.071 147.149 285.471 145.55C285.658 144.775 285.805 144.179 285.911 143.755C285.96 143.559 286.001 143.412 286.026 143.29L286.075 143.135C286.084 143.189 286.084 143.244 286.075 143.298C286.075 143.42 286.017 143.567 285.985 143.763C285.887 144.195 285.764 144.799 285.601 145.574C285.242 147.206 284.736 149.499 284.092 152.437L278.6 176.917V176.811C282.068 186.007 286.156 196.819 290.514 208.357L291.933 212.103L292.635 213.939L292.978 214.836L293.149 215.277C293.161 215.294 293.168 215.314 293.168 215.334C293.168 215.355 293.161 215.375 293.149 215.391C293.143 215.418 293.143 215.446 293.149 215.473V215.53V215.571L293.19 215.767L293.264 215.979L276.152 221.756L275.972 221.821L275.907 221.642L264.826 193.082L261.692 184.922L260.876 182.751C260.795 182.515 260.73 182.327 260.672 182.188C260.615 182.05 260.648 181.968 260.648 181.968Z" fill="#263238"/>
<path d="M269.502 178.002C269.82 177.656 270.206 177.378 270.636 177.186C271.634 176.662 272.717 176.316 273.835 176.166C274.951 176.011 276.087 176.055 277.188 176.297C277.653 176.357 278.099 176.518 278.494 176.77C276.974 176.51 275.427 176.447 273.892 176.582C272.374 176.869 270.899 177.346 269.502 178.002Z" fill="#263238"/>
<g opacity="0.3">
<path d="M314.137 159.863L315.508 189.312C314.063 190.405 312.064 190.838 309.796 190.944C309.836 190.022 311.354 163.877 311.354 163.877L314.137 159.863Z" fill="black"/>
</g>
<path d="M312.325 136.158C312.227 136.238 312.121 136.306 312.007 136.362C311.694 136.547 311.369 136.713 311.036 136.86C309.809 137.409 308.522 137.812 307.201 138.059C302.828 138.811 298.338 138.512 294.104 137.186C289.848 135.888 285.968 133.581 282.794 130.462C281.837 129.524 280.956 128.512 280.159 127.435C279.873 127.059 279.677 126.741 279.538 126.537C279.464 126.433 279.401 126.32 279.351 126.203C279.664 126.551 279.958 126.916 280.232 127.296C281.068 128.327 281.973 129.301 282.941 130.209C286.13 133.223 289.973 135.457 294.169 136.737C298.365 138.065 302.808 138.417 307.16 137.765C308.47 137.549 309.753 137.193 310.987 136.704C311.424 136.5 311.87 136.318 312.325 136.158Z" fill="#FAFAFA"/>
<path d="M283.635 152.347C283.364 152.39 283.089 152.39 282.819 152.347C282.09 152.286 281.365 152.182 280.648 152.037C278.279 151.552 276 150.701 273.892 149.516C271.795 148.315 269.889 146.808 268.237 145.044C267.736 144.524 267.263 143.979 266.817 143.412C266.642 143.209 266.494 142.984 266.376 142.743C266.433 142.694 267.152 143.559 268.449 144.864C270.138 146.543 272.039 147.994 274.104 149.181C276.178 150.344 278.402 151.217 280.713 151.776C282.509 152.151 283.643 152.274 283.635 152.347Z" fill="#FAFAFA"/>
<path d="M310.701 159.863C310.368 160.03 310.018 160.164 309.657 160.262C308.691 160.599 307.705 160.871 306.703 161.078C305.222 161.403 303.719 161.615 302.207 161.715C300.352 161.83 298.492 161.8 296.642 161.625C293.284 161.244 289.992 160.421 286.85 159.177C285.65 158.704 284.687 158.28 284.051 157.953C283.705 157.806 283.374 157.626 283.064 157.415C283.425 157.51 283.778 157.639 284.116 157.798C284.777 158.084 285.748 158.459 286.956 158.892C290.096 160.033 293.362 160.797 296.683 161.168C298.508 161.343 300.343 161.387 302.174 161.299C303.672 161.207 305.162 161.025 306.638 160.752C309.167 160.295 310.677 159.781 310.701 159.863Z" fill="#FAFAFA"/>
<path d="M309.608 182.107C309.244 182.308 308.861 182.475 308.466 182.604C308.012 182.789 307.549 182.95 307.078 183.086C306.532 183.249 305.92 183.469 305.21 183.624C304.5 183.78 303.749 183.975 302.909 184.106C302.068 184.236 301.171 184.359 300.224 184.465C298.16 184.64 296.086 184.64 294.022 184.465C291.963 184.247 289.926 183.851 287.935 183.282C287.021 182.996 286.156 182.735 285.373 182.417C284.589 182.099 283.855 181.797 283.202 181.495C282.549 181.193 281.978 180.875 281.464 180.613C280.95 180.352 280.542 180.091 280.199 179.871C279.837 179.666 279.493 179.432 279.171 179.169C279.561 179.32 279.936 179.508 280.289 179.732C280.632 179.928 281.064 180.165 281.578 180.401C282.092 180.638 282.656 180.956 283.325 181.217C283.994 181.478 284.696 181.813 285.495 182.082C286.295 182.352 287.127 182.637 288.041 182.898C290.029 183.431 292.056 183.802 294.104 184.008C296.142 184.196 298.191 184.218 300.232 184.073C301.171 183.975 302.06 183.91 302.892 183.755C303.725 183.6 304.484 183.486 305.185 183.331C305.887 183.176 306.507 183.004 307.054 182.857C307.601 182.711 308.074 182.572 308.449 182.449C308.823 182.297 309.211 182.182 309.608 182.107Z" fill="#FAFAFA"/>
<path d="M323.072 178.582C322.324 178.515 321.59 178.339 320.893 178.059C317.446 176.887 314.375 174.813 311.999 172.054C311.484 171.51 311.047 170.898 310.701 170.234C311.24 170.749 311.75 171.294 312.227 171.866C314.685 174.467 317.693 176.485 321.032 177.774C322.264 178.28 323.088 178.516 323.072 178.582Z" fill="#FAFAFA"/>
<path d="M330.008 161.511C329.342 161.42 328.693 161.23 328.082 160.948C326.569 160.358 325.136 159.582 323.815 158.639C322.49 157.7 321.284 156.604 320.224 155.375C319.759 154.889 319.366 154.34 319.057 153.743C320.589 155.405 322.263 156.931 324.059 158.304C325.944 159.546 327.935 160.619 330.008 161.511Z" fill="#FAFAFA"/>
<path d="M278.894 172.176C278.659 172.268 278.411 172.323 278.159 172.339C277.484 172.441 276.802 172.501 276.119 172.519C271.567 172.664 267.07 171.482 263.178 169.116C262.591 168.762 262.027 168.373 261.488 167.949C261.113 167.647 260.909 167.476 260.925 167.451C260.942 167.427 261.831 168.023 263.373 168.855C267.281 171.035 271.677 172.191 276.152 172.217C277.825 172.225 278.886 172.103 278.894 172.176Z" fill="#FAFAFA"/>
<path d="M280.713 184.702C280.713 184.775 279.718 184.759 278.143 184.946C274.011 185.433 270.101 187.079 266.866 189.696C265.626 190.691 264.948 191.417 264.899 191.368C264.85 191.319 265.022 191.148 265.316 190.813C265.734 190.332 266.186 189.882 266.67 189.467C269.861 186.673 273.867 184.982 278.094 184.644C278.73 184.602 279.368 184.602 280.004 184.644C280.242 184.625 280.481 184.644 280.713 184.702Z" fill="#FAFAFA"/>
<path d="M289.518 206.562C289.518 206.644 288.474 206.464 286.801 206.481C285.824 206.497 284.851 206.587 283.888 206.75C281.527 207.151 279.264 207.998 277.221 209.247C276.385 209.751 275.591 210.322 274.846 210.952C273.573 212.038 272.913 212.845 272.847 212.796C272.959 212.576 273.102 212.373 273.272 212.193C273.689 211.67 274.147 211.182 274.642 210.732C275.376 210.057 276.168 209.448 277.009 208.912C278.043 208.268 279.136 207.721 280.273 207.28C281.42 206.859 282.606 206.553 283.814 206.366C284.799 206.212 285.796 206.152 286.793 206.187C287.463 206.196 288.132 206.261 288.792 206.383C289.041 206.407 289.286 206.468 289.518 206.562Z" fill="#FAFAFA"/>
<path d="M267.715 200.671C264.984 200.62 262.266 200.289 259.604 199.683C260.969 199.632 262.337 199.725 263.684 199.961C265.048 200.06 266.399 200.297 267.715 200.671Z" fill="#FAFAFA"/>
<g opacity="0.3">
<path d="M261.978 189.606C262.112 193.4 262.762 197.158 263.912 200.777C264.728 203.453 261.913 207.68 265.226 210.446H271.754C268.58 202.637 265.552 194.445 262.631 187.092" fill="black"/>
</g>
<path d="M308.792 197.366C308.653 197.571 308.488 197.757 308.302 197.921C307.827 198.393 307.317 198.83 306.776 199.226C305.972 199.816 305.117 200.335 304.222 200.777C303.123 201.311 301.976 201.74 300.795 202.058C299.608 202.356 298.395 202.542 297.172 202.613C296.175 202.666 295.176 202.628 294.186 202.499C293.521 202.425 292.863 202.296 292.219 202.115C291.976 202.068 291.742 201.982 291.525 201.862C291.525 201.789 292.554 202.058 294.218 202.205C295.193 202.279 296.173 202.279 297.148 202.205C298.342 202.115 299.527 201.924 300.689 201.634C301.841 201.316 302.965 200.906 304.051 200.41C304.937 199.993 305.788 199.508 306.597 198.957C307.976 198.035 308.71 197.309 308.792 197.366Z" fill="#263238"/>
<path d="M300.134 201.993C299.656 202.331 299.127 202.59 298.568 202.76C297.24 203.24 295.854 203.536 294.447 203.641C293.043 203.742 291.632 203.676 290.244 203.445C289.664 203.391 289.094 203.251 288.555 203.029C288.555 202.882 291.191 203.445 294.414 203.217C296.356 202.995 298.272 202.586 300.134 201.993Z" fill="#FAFAFA"/>
<path d="M337.678 138.434L345.675 137.855C345.675 137.855 347.421 140.075 346.026 141.804C344.631 143.534 341.946 148.08 341.946 148.08L335.72 148.961L333.223 153.473L323.774 147.353L328.066 138.802L335.01 132.722L339.425 132.812L341.873 135.774C341.873 135.774 339.147 137.112 337.842 134.958L335.728 135.374V136.598C335.725 136.85 335.775 137.1 335.873 137.331C335.972 137.563 336.117 137.772 336.3 137.944C336.484 138.117 336.701 138.25 336.938 138.334C337.175 138.418 337.427 138.452 337.678 138.434Z" fill="#FFBE9D"/>
<path d="M345.577 138.157L351.02 136.59C351.357 136.549 351.699 136.591 352.016 136.712C352.333 136.833 352.616 137.029 352.84 137.284L353.003 137.847L346.328 140.735L345.577 138.157Z" fill="#FFBE9D"/>
<path d="M333.688 144.138C333.881 143.714 334.128 143.316 334.423 142.955C335.075 142.079 335.519 141.066 335.72 139.993C335.808 139.412 335.755 138.819 335.565 138.263C335.471 137.998 335.4 137.725 335.353 137.447C335.31 137.199 335.31 136.945 335.353 136.696C335.405 136.226 335.543 135.77 335.761 135.35C335.777 135.815 335.742 136.28 335.655 136.737C335.604 137.214 335.692 137.696 335.908 138.124C336.135 138.736 336.205 139.396 336.112 140.042C335.902 141.183 335.392 142.248 334.635 143.126C334.088 143.804 333.729 144.171 333.688 144.138Z" fill="#EB996E"/>
<path d="M355.9 131.645C355.9 131.8 356.716 133.53 356.716 133.53L334.578 144.522L333.468 142.449L355.9 131.645Z" fill="#263238"/>
<path d="M341.922 147.696C342.04 147.572 342.131 147.425 342.192 147.265C342.252 147.104 342.28 146.934 342.273 146.762C342.266 146.591 342.225 146.423 342.152 146.268C342.079 146.113 341.976 145.974 341.848 145.86C341.309 145.412 340.651 145.128 339.955 145.044C338.848 144.781 337.715 144.647 336.577 144.644C336.203 144.637 335.833 144.721 335.5 144.889C335.334 144.977 335.198 145.113 335.109 145.278C335.021 145.444 334.983 145.632 335.002 145.819C335.092 146.268 335.565 146.513 335.989 146.676C337.137 147.115 338.33 147.421 339.547 147.59" fill="#FFBE9D"/>
<path d="M339.547 147.639C338.812 147.66 338.079 147.561 337.376 147.345C337.05 147.264 336.691 147.157 336.316 147.035C335.88 146.922 335.472 146.722 335.116 146.448C335.011 146.352 334.927 146.234 334.871 146.104C334.814 145.973 334.787 145.831 334.79 145.689C334.814 145.397 334.948 145.126 335.165 144.93C335.605 144.592 336.155 144.432 336.707 144.481C337.685 144.488 338.66 144.603 339.612 144.824C340.427 144.91 341.205 145.211 341.864 145.697C342.082 145.887 342.24 146.136 342.32 146.414C342.4 146.692 342.397 146.987 342.313 147.264C342.166 147.655 341.922 147.737 341.922 147.72C341.922 147.704 342.077 147.565 342.158 147.223C342.198 146.981 342.174 146.734 342.088 146.504C342.002 146.275 341.858 146.073 341.669 145.917C341.027 145.511 340.296 145.267 339.539 145.207C338.61 145.016 337.664 144.914 336.716 144.905C336.268 144.858 335.819 144.974 335.451 145.232C335.377 145.283 335.317 145.35 335.273 145.428C335.229 145.507 335.203 145.594 335.198 145.683C335.192 145.772 335.207 145.862 335.241 145.945C335.275 146.028 335.327 146.102 335.394 146.162C335.701 146.406 336.053 146.589 336.43 146.7C336.797 146.839 337.14 146.953 337.458 147.051C338.731 147.443 339.555 147.565 339.547 147.639Z" fill="#EB996E"/>
<path d="M344.647 143.379C342.901 142.612 341.628 142.204 339.882 141.445C339.341 141.134 338.714 141.006 338.095 141.078C337.483 141.217 336.993 141.951 337.328 142.474C337.465 142.646 337.637 142.788 337.833 142.89L342.909 145.974" fill="#FFBE9D"/>
<path d="M342.909 145.974C342.207 145.692 341.535 145.342 340.902 144.93L338.78 143.698L337.523 142.947C337.387 142.865 337.27 142.753 337.181 142.621C337.092 142.488 337.033 142.338 337.009 142.18C337.003 142.02 337.028 141.86 337.084 141.71C337.14 141.56 337.226 141.423 337.336 141.307C337.546 141.065 337.835 140.906 338.152 140.858C338.421 140.805 338.698 140.805 338.968 140.858C339.442 140.998 339.903 141.178 340.347 141.396L342.607 142.351C343.322 142.599 344.005 142.933 344.639 143.347C343.907 143.159 343.19 142.919 342.493 142.629C341.84 142.392 341.048 142.115 340.192 141.756C339.765 141.556 339.323 141.393 338.87 141.266C338.659 141.194 338.433 141.182 338.217 141.233C338 141.283 337.802 141.394 337.646 141.552C337.503 141.704 337.424 141.906 337.425 142.115C337.441 142.211 337.478 142.302 337.535 142.382C337.591 142.461 337.666 142.526 337.752 142.572L338.976 143.33L341.048 144.644C341.709 145.028 342.332 145.473 342.909 145.974Z" fill="#EB996E"/>
<path d="M346.328 140.735L341.546 138.981C340.984 138.709 340.349 138.623 339.735 138.736C339.139 138.908 338.69 139.675 339.057 140.172C339.203 140.341 339.384 140.474 339.588 140.564L344.851 143.314" fill="#FFBE9D"/>
<path d="M344.843 143.314C344.128 143.073 343.437 142.767 342.778 142.4L340.616 141.307L339.319 140.646C339.176 140.578 339.051 140.479 338.952 140.356C338.853 140.233 338.783 140.089 338.747 139.936C338.724 139.776 338.733 139.613 338.775 139.457C338.818 139.302 338.891 139.156 338.992 139.03C339.175 138.777 339.441 138.595 339.743 138.516C340.012 138.463 340.29 138.463 340.559 138.516C341.044 138.613 341.517 138.76 341.971 138.957L344.255 139.838C344.973 140.074 345.665 140.383 346.32 140.76C345.579 140.611 344.853 140.398 344.149 140.124L341.84 139.308C341.404 139.134 340.954 139 340.494 138.908C340.279 138.853 340.053 138.86 339.843 138.928C339.632 138.995 339.445 139.122 339.302 139.291C338.601 140.181 340.069 140.507 340.771 140.972L342.917 142.147C343.595 142.473 344.24 142.864 344.843 143.314Z" fill="#EB996E"/>
<path d="M345.977 132.192C345.928 132.192 346.067 131.711 346.532 131.09C347.153 130.293 347.983 129.686 348.931 129.336C349.881 128.985 350.911 128.911 351.901 129.124C352.652 129.295 353.06 129.556 353.036 129.605C353.011 129.654 352.579 129.507 351.852 129.426C350.916 129.309 349.965 129.416 349.078 129.736C348.197 130.068 347.404 130.598 346.76 131.286C346.271 131.817 346.034 132.192 345.977 132.192Z" fill="#263238"/>
<path d="M344.084 131.188C344.252 130.595 344.566 130.053 344.998 129.613C345.984 128.488 347.282 127.682 348.727 127.296C350.166 126.916 351.676 126.894 353.125 127.231C353.728 127.332 354.306 127.545 354.831 127.859C354.831 127.924 354.153 127.704 353.068 127.533C351.663 127.292 350.222 127.35 348.841 127.704C347.468 128.075 346.218 128.805 345.218 129.817C344.459 130.601 344.149 131.229 344.084 131.188Z" fill="#263238"/>
<path d="M341.342 130.291C341.342 130.291 341.424 130.062 341.66 129.711C341.995 129.217 342.375 128.756 342.795 128.332C344.183 126.906 345.905 125.848 347.805 125.256C349.707 124.677 351.722 124.576 353.672 124.962C354.258 125.077 354.831 125.246 355.386 125.468C355.598 125.529 355.797 125.629 355.973 125.762C355.973 125.835 355.084 125.484 353.623 125.256C351.723 124.953 349.779 125.09 347.94 125.656C346.101 126.222 344.416 127.202 343.015 128.52C341.922 129.556 341.432 130.332 341.342 130.291Z" fill="#263238"/>
<path d="M339.4 129.369C339.447 129.098 339.535 128.837 339.661 128.593C339.97 127.915 340.377 127.285 340.869 126.725C341.595 125.89 342.442 125.17 343.382 124.587C344.531 123.875 345.757 123.297 347.038 122.865C349.372 122.054 351.881 121.891 354.3 122.392C355.027 122.534 355.739 122.739 356.43 123.004C356.692 123.076 356.94 123.192 357.164 123.347C357.164 123.42 356.063 122.988 354.243 122.686C351.876 122.284 349.447 122.484 347.177 123.265C344.881 123.972 342.792 125.227 341.089 126.921C340.441 127.674 339.874 128.495 339.4 129.369Z" fill="#263238"/>
<path d="M293.933 222.964C292.301 222.376 292.439 223.527 293.035 224.881C289.869 226.881 286.409 229.369 282.664 229.394L278.682 220.483L290.024 216.615L290.228 217.187C291.371 218.274 292.611 219.255 293.933 220.116C294.609 220.568 295.356 220.902 296.144 221.103C297.114 221.389 298.119 221.54 299.131 221.552C299.322 221.523 299.518 221.554 299.691 221.642C299.864 221.729 300.005 221.869 300.095 222.04C300.184 222.212 300.218 222.407 300.192 222.599C300.165 222.791 300.08 222.97 299.947 223.111C299.294 223.666 296.748 223.959 293.933 222.964Z" fill="#FFBE9D"/>
<path d="M294.259 223.968C293.867 224.501 293.397 224.971 292.864 225.363C291.634 226.385 290.283 227.251 288.841 227.941C287.4 228.634 285.879 229.144 284.312 229.459C283.671 229.627 283.008 229.701 282.345 229.68C286.724 228.785 290.813 226.823 294.251 223.968H294.259Z" fill="#455A64"/>
</svg>
