<svg width="393" height="500" viewBox="0 0 393 500" fill="none" xmlns="http://www.w3.org/2000/svg">
<path d="M353.86 199.5C351.416 186.597 348.292 173.833 344.5 161.26C333.1 124.87 310.41 88.05 271.44 75.67C242.67 66.54 211.62 72.84 187.31 91.45C149.18 120.63 121.43 160.45 79.71 185.72C44.88 206.83 26.65 240.93 38.36 289.13C50.07 337.33 89.19 365.41 132 362C167.58 359.13 204.78 362.2 235.54 379.47C263.03 394.9 311.6 381.47 351.78 339.32C375.19 314.75 372.92 283.51 365.29 254.32C360.57 236.24 357.51 217.8 353.86 199.5Z" fill="#189AB4"/>
<path opacity="0.7" d="M353.86 199.5C351.416 186.597 348.292 173.833 344.5 161.26C333.1 124.87 310.41 88.05 271.44 75.67C242.67 66.54 211.62 72.84 187.31 91.45C149.18 120.63 121.43 160.45 79.71 185.72C44.88 206.83 26.65 240.93 38.36 289.13C50.07 337.33 89.19 365.41 132 362C167.58 359.13 204.78 362.2 235.54 379.47C263.03 394.9 311.6 381.47 351.78 339.32C375.19 314.75 372.92 283.51 365.29 254.32C360.57 236.24 357.51 217.8 353.86 199.5Z" fill="white"/>
<path d="M394.41 423.48C394.41 426.6 309.41 429.14 204.59 429.14C99.77 429.14 14.76 426.6 14.76 423.48C14.76 420.36 99.76 417.82 204.59 417.82C309.42 417.82 394.41 420.36 394.41 423.48Z" fill="#189AB4"/>
<path opacity="0.3" d="M394.41 423.48C394.41 426.6 309.41 429.14 204.59 429.14C99.77 429.14 14.76 426.6 14.76 423.48C14.76 420.36 99.76 417.82 204.59 417.82C309.42 417.82 394.41 420.36 394.41 423.48Z" fill="white"/>
<path d="M358.07 314.51C358.07 314.56 360.64 311.86 360.78 311.67C362.41 309.49 364.28 304.31 362.51 301.82C362.205 301.416 361.818 301.08 361.375 300.835C360.932 300.59 360.442 300.441 359.938 300.398C359.433 300.354 358.925 300.417 358.446 300.583C357.968 300.749 357.53 301.014 357.16 301.36C355.54 302.78 355.16 305.41 355.3 307.44C355.47 309.82 358.07 314.5 358.07 314.51Z" fill="#189AB4"/>
<path d="M381.43 305.21C378.93 303.46 373.77 305.37 371.6 307.01C371.41 307.16 368.73 309.72 368.78 309.74H368.84C368.02 310.04 367.15 310.36 366.2 310.74C364.46 311.44 362.5 312.26 360.42 313.28C358.175 314.372 355.991 315.587 353.88 316.92C351.514 318.405 349.285 320.099 347.22 321.98C347.194 322.001 347.171 322.024 347.15 322.05C347.59 321.28 348.76 319.05 348.83 318.89C349.83 316.35 350.26 310.89 347.9 308.94C347.496 308.632 347.032 308.413 346.538 308.296C346.044 308.179 345.531 308.167 345.032 308.261C344.533 308.356 344.06 308.554 343.643 308.843C343.225 309.132 342.873 309.506 342.61 309.94C341.43 311.74 341.75 314.37 342.43 316.29C343.19 318.46 346.64 322.04 346.92 322.29C344.861 324.255 342.936 326.356 341.16 328.58C340.16 329.87 339.11 331.2 338.16 332.58C338.52 331.9 338.84 331.28 338.87 331.19C339.87 328.66 340.3 323.19 337.94 321.24C337.537 320.932 337.074 320.713 336.581 320.596C336.087 320.479 335.575 320.468 335.077 320.562C334.579 320.656 334.106 320.854 333.69 321.144C333.273 321.433 332.922 321.806 332.66 322.24C331.47 324.03 331.8 326.67 332.47 328.58C333.14 330.49 336.04 333.65 336.81 334.46L335.64 336C333.84 338.51 332.06 341 330.23 343.42C329.59 344.27 328.93 345.09 328.23 345.9C328.55 345.29 328.82 344.78 328.85 344.7C329.85 342.16 330.28 336.7 327.92 334.7C327.517 334.391 327.053 334.17 326.559 334.052C326.064 333.934 325.551 333.922 325.051 334.016C324.552 334.111 324.078 334.31 323.661 334.6C323.244 334.89 322.892 335.265 322.63 335.7C321.44 337.5 321.77 340.13 322.45 342.05C323.13 343.97 325.73 346.81 326.64 347.78C325.94 348.6 325.24 349.41 324.52 350.17C324.02 350.68 323.58 351.17 323.04 351.68L321.51 353.12C320.51 354 319.51 354.92 318.46 355.76C317.76 356.35 317.09 356.89 316.46 357.44C317.1 356.61 318.34 354.94 318.46 354.79C319.587 352.675 320.151 350.306 320.1 347.91C320.233 347.68 320.347 347.439 320.44 347.19C320.627 346.718 320.713 346.213 320.692 345.706C320.671 345.199 320.543 344.702 320.318 344.248C320.093 343.794 319.774 343.392 319.384 343.068C318.993 342.744 318.539 342.507 318.05 342.37C315.05 341.64 310.95 345.27 309.52 347.59C309.44 347.73 308.68 349.31 308.23 350.32C308.4 349.69 308.59 349.07 308.76 348.42C309.12 347.13 309.44 345.83 309.76 344.42C309.9 343.74 310.05 343.05 310.2 342.36C310.35 341.67 310.44 340.93 310.57 340.21C310.82 338.53 311 336.82 311.15 335.09C312.28 335.4 316.31 336.45 318.33 336.09C320.35 335.73 322.82 334.83 323.84 332.94C324.098 332.503 324.261 332.017 324.319 331.513C324.376 331.009 324.326 330.498 324.172 330.015C324.018 329.531 323.764 329.086 323.426 328.708C323.088 328.329 322.673 328.027 322.21 327.82C319.39 326.64 314.76 329.61 312.99 331.68C312.88 331.81 311.78 333.44 311.19 334.35C311.27 333.35 311.35 332.27 311.4 331.21C311.52 328.21 311.56 325.08 311.61 322C311.61 321.06 311.61 320.12 311.67 319.18C312.07 319.29 316.84 320.64 319.1 320.29C321.1 319.99 323.59 319.04 324.62 317.14C324.875 316.702 325.035 316.215 325.09 315.711C325.145 315.208 325.093 314.698 324.939 314.215C324.784 313.733 324.53 313.288 324.192 312.91C323.855 312.532 323.442 312.228 322.98 312.02C320.17 310.85 315.53 313.82 313.76 315.89C313.63 316.04 312.05 318.39 311.67 319.01C311.72 316.94 311.79 314.87 311.94 312.84C312.133 310.096 312.5 307.367 313.04 304.67C313.23 304.67 318.2 306.15 320.52 305.79C322.52 305.49 325 304.54 326.03 302.64C326.285 302.203 326.446 301.716 326.501 301.213C326.557 300.71 326.506 300.2 326.353 299.718C326.199 299.235 325.946 298.79 325.609 298.412C325.273 298.033 324.861 297.729 324.4 297.52C321.58 296.35 316.94 299.31 315.18 301.39C315.06 301.52 313.85 303.31 313.3 304.17L313.14 304.11C313.758 301.408 314.618 298.768 315.71 296.22C316.29 294.81 316.92 293.5 317.57 292.22C318.47 292.58 322.57 294.22 324.71 294.1C326.85 293.98 329.31 293.34 330.54 291.57C330.842 291.163 331.055 290.697 331.166 290.203C331.276 289.708 331.282 289.196 331.182 288.699C331.082 288.203 330.879 287.732 330.586 287.319C330.292 286.906 329.916 286.559 329.48 286.3C326.81 284.83 321.87 287.3 319.89 289.13C319.78 289.23 318.8 290.38 318.09 291.23C318.39 290.67 318.69 290.08 318.99 289.54C320.11 287.54 321.25 285.74 322.28 284.17C322.87 283.29 323.42 282.5 323.95 281.76C325.01 281.66 329.31 281.17 331.12 280.14C332.93 279.11 334.85 277.35 335.12 275.21C335.202 274.71 335.178 274.198 335.049 273.708C334.92 273.218 334.689 272.76 334.37 272.366C334.052 271.971 333.654 271.648 333.203 271.418C332.751 271.188 332.256 271.056 331.75 271.03C328.7 270.95 325.45 275.38 324.55 277.95C324.47 278.18 323.65 281.79 323.7 281.78H323.77C323.25 282.447 322.7 283.207 322.12 284.06C321.05 285.61 319.86 287.37 318.7 289.37C317.424 291.515 316.272 293.732 315.25 296.01C314.098 298.558 313.172 301.201 312.48 303.91C312.486 303.943 312.486 303.977 312.48 304.01C312.48 303.12 312.18 300.63 312.14 300.44C311.58 297.78 308.91 292.96 305.88 292.66C305.374 292.622 304.866 292.691 304.389 292.862C303.912 293.033 303.476 293.303 303.11 293.654C302.744 294.005 302.456 294.429 302.264 294.899C302.073 295.368 301.983 295.873 302 296.38C302 298.53 303.73 300.55 305.35 301.77C307.18 303.16 312.03 304.25 312.42 304.33C311.793 307.108 311.348 309.924 311.09 312.76C310.94 314.41 310.83 316.07 310.74 317.76C310.67 316.99 310.6 316.3 310.58 316.21C310.01 313.54 307.34 308.73 304.31 308.42C303.804 308.382 303.296 308.451 302.819 308.622C302.342 308.793 301.906 309.063 301.54 309.414C301.174 309.765 300.886 310.189 300.694 310.659C300.503 311.128 300.413 311.633 300.43 312.14C300.43 314.29 302.16 316.31 303.78 317.54C305.4 318.77 309.55 319.79 310.64 320.05C310.64 320.69 310.58 321.33 310.56 321.97C310.44 325.05 310.34 328.13 310.15 331.14C310.08 332.2 309.97 333.25 309.87 334.29C309.81 333.61 309.74 333.03 309.73 332.95C309.16 330.28 306.49 325.47 303.46 325.16C302.954 325.122 302.446 325.191 301.969 325.362C301.492 325.533 301.056 325.803 300.69 326.154C300.324 326.505 300.036 326.929 299.844 327.399C299.653 327.868 299.563 328.373 299.58 328.88C299.58 331.04 301.31 333.05 302.93 334.28C304.55 335.51 308.3 336.44 309.59 336.74C309.46 337.81 309.32 338.88 309.14 339.9C309 340.6 308.92 341.29 308.74 341.98L308.26 343.98C307.9 345.27 307.55 346.61 307.17 347.86C306.91 348.73 306.65 349.56 306.39 350.4C306.47 349.34 306.58 347.27 306.57 347.09C306.42 344.38 304.51 339.21 301.57 338.45C301.077 338.337 300.565 338.329 300.068 338.427C299.571 338.524 299.101 338.726 298.687 339.017C298.273 339.308 297.925 339.684 297.665 340.118C297.405 340.553 297.24 341.037 297.18 341.54C296.85 343.67 298.25 345.92 299.67 347.38C301.09 348.84 305.67 350.75 306.23 350.97C305.79 352.35 305.36 353.68 304.93 354.97C303.44 359.32 302.04 362.89 301.03 365.37C301.03 365.46 300.96 365.54 300.92 365.62L302.74 366.62C302.8 366.46 302.87 366.3 302.93 366.13C303.93 363.6 305.24 359.96 306.64 355.53C307.09 354.13 307.54 352.63 307.99 351.08C309.516 351.271 311.052 351.371 312.59 351.38C313.14 353.61 315.69 357.27 316.02 357.74C314.9 358.65 313.8 359.53 312.75 360.34C309.11 363.15 305.97 365.34 303.75 366.86L303.49 367.04L305.49 368.14C307.65 366.59 310.49 364.44 313.86 361.76C315 360.84 316.21 359.83 317.43 358.76C317.88 359.14 321.53 362.24 323.69 362.86C325.64 363.42 328.29 363.6 330.01 362.31C330.426 362.02 330.776 361.646 331.037 361.213C331.299 360.779 331.466 360.295 331.528 359.792C331.591 359.289 331.546 358.779 331.398 358.295C331.251 357.81 331.002 357.362 330.67 356.98C328.61 354.73 323.16 355.48 320.67 356.62C320.53 356.69 319.03 357.62 318.09 358.18C318.59 357.75 319.09 357.34 319.58 356.89C320.58 356.02 321.58 355.11 322.64 354.13L324.14 352.66C324.65 352.17 325.14 351.6 325.64 351.07C326.78 349.81 327.87 348.48 328.94 347.12C329.72 348 332.51 351.12 334.36 351.96C336.21 352.8 338.8 353.38 340.7 352.37C341.154 352.145 341.555 351.828 341.879 351.439C342.202 351.049 342.441 350.597 342.578 350.109C342.716 349.622 342.75 349.111 342.678 348.61C342.606 348.109 342.429 347.629 342.16 347.2C340.46 344.67 334.96 344.58 332.34 345.33C332.17 345.38 330.34 346.13 329.34 346.56C329.97 345.74 330.62 344.92 331.23 344.06C333.02 341.59 334.75 339.06 336.49 336.5L338.1 334.18C338.37 334.49 341.61 338.25 343.69 339.18C345.53 340.03 348.12 340.61 350.02 339.59C350.476 339.368 350.88 339.052 351.205 338.663C351.531 338.274 351.77 337.82 351.908 337.332C352.046 336.844 352.079 336.332 352.005 335.83C351.931 335.328 351.752 334.848 351.48 334.42C349.78 331.89 344.28 331.8 341.66 332.56C341.47 332.61 338.85 333.7 338.2 334.01C339.38 332.31 340.58 330.62 341.83 329.01C343.497 326.822 345.307 324.747 347.25 322.8C347.38 322.95 350.74 326.88 352.86 327.86C354.71 328.72 357.3 329.29 359.2 328.28C359.655 328.057 360.058 327.74 360.382 327.351C360.707 326.961 360.945 326.508 361.083 326.021C361.221 325.533 361.254 325.022 361.181 324.52C361.109 324.019 360.931 323.538 360.66 323.11C358.96 320.57 353.46 320.49 350.84 321.24C350.67 321.29 348.68 322.12 347.74 322.53L347.64 322.38C349.647 320.475 351.819 318.751 354.13 317.23C355.4 316.37 356.65 315.62 357.89 314.93C358.44 315.72 360.99 319.33 362.81 320.43C364.63 321.53 367.06 322.34 369.06 321.54C369.538 321.366 369.974 321.094 370.339 320.74C370.704 320.387 370.99 319.96 371.179 319.488C371.368 319.016 371.455 318.509 371.434 318.001C371.414 317.493 371.286 316.995 371.06 316.54C369.65 313.83 364.19 313.15 361.51 313.61C361.36 313.61 359.9 314.05 358.85 314.37L360.53 313.45C362.58 312.39 364.53 311.53 366.24 310.79C367.24 310.38 368.12 310.02 368.96 309.7C369.91 310.2 373.75 312.17 375.83 312.3C377.91 312.43 380.49 312.03 381.89 310.4C382.21 310.033 382.453 309.606 382.604 309.143C382.754 308.68 382.81 308.192 382.767 307.707C382.724 307.222 382.583 306.751 382.353 306.322C382.124 305.893 381.81 305.515 381.43 305.21Z" fill="#189AB4"/>
<path d="M311.19 287.36C312.64 289.26 317.39 291.73 317.4 291.73C317.41 291.73 318.08 288.11 318.09 287.87C318.25 285.15 316.95 279.81 314.09 278.71C313.612 278.54 313.104 278.473 312.599 278.513C312.093 278.553 311.602 278.699 311.156 278.942C310.711 279.184 310.322 279.518 310.014 279.921C309.706 280.323 309.487 280.787 309.37 281.28C308.81 283.35 310 285.75 311.19 287.36Z" fill="#189AB4"/>
<g opacity="0.5">
<path d="M358.07 314.51C358.07 314.56 360.64 311.86 360.78 311.67C362.41 309.49 364.28 304.31 362.51 301.82C362.205 301.416 361.818 301.08 361.375 300.835C360.932 300.59 360.442 300.441 359.938 300.398C359.433 300.354 358.925 300.417 358.446 300.583C357.968 300.749 357.53 301.014 357.16 301.36C355.54 302.78 355.16 305.41 355.3 307.44C355.47 309.82 358.07 314.5 358.07 314.51Z" fill="white"/>
<path d="M381.43 305.21C378.93 303.46 373.77 305.37 371.6 307.01C371.41 307.16 368.73 309.72 368.78 309.74H368.84C368.02 310.04 367.15 310.36 366.2 310.74C364.46 311.44 362.5 312.26 360.42 313.28C358.175 314.372 355.991 315.587 353.88 316.92C351.514 318.405 349.285 320.099 347.22 321.98C347.194 322.001 347.171 322.024 347.15 322.05C347.59 321.28 348.76 319.05 348.83 318.89C349.83 316.35 350.26 310.89 347.9 308.94C347.496 308.632 347.032 308.413 346.538 308.296C346.044 308.179 345.531 308.167 345.032 308.261C344.533 308.356 344.06 308.554 343.643 308.843C343.225 309.132 342.873 309.506 342.61 309.94C341.43 311.74 341.75 314.37 342.43 316.29C343.19 318.46 346.64 322.04 346.92 322.29C344.861 324.255 342.936 326.356 341.16 328.58C340.16 329.87 339.11 331.2 338.16 332.58C338.52 331.9 338.84 331.28 338.87 331.19C339.87 328.66 340.3 323.19 337.94 321.24C337.537 320.932 337.074 320.713 336.581 320.596C336.087 320.479 335.575 320.468 335.077 320.562C334.579 320.656 334.106 320.854 333.69 321.144C333.273 321.433 332.922 321.806 332.66 322.24C331.47 324.03 331.8 326.67 332.47 328.58C333.14 330.49 336.04 333.65 336.81 334.46L335.64 336C333.84 338.51 332.06 341 330.23 343.42C329.59 344.27 328.93 345.09 328.23 345.9C328.55 345.29 328.82 344.78 328.85 344.7C329.85 342.16 330.28 336.7 327.92 334.7C327.517 334.391 327.053 334.17 326.559 334.052C326.064 333.934 325.551 333.922 325.051 334.016C324.552 334.111 324.078 334.31 323.661 334.6C323.244 334.89 322.892 335.265 322.63 335.7C321.44 337.5 321.77 340.13 322.45 342.05C323.13 343.97 325.73 346.81 326.64 347.78C325.94 348.6 325.24 349.41 324.52 350.17C324.02 350.68 323.58 351.17 323.04 351.68L321.51 353.12C320.51 354 319.51 354.92 318.46 355.76C317.76 356.35 317.09 356.89 316.46 357.44C317.1 356.61 318.34 354.94 318.46 354.79C319.587 352.675 320.151 350.306 320.1 347.91C320.233 347.68 320.347 347.439 320.44 347.19C320.627 346.718 320.713 346.213 320.692 345.706C320.671 345.199 320.543 344.702 320.318 344.248C320.093 343.794 319.774 343.392 319.384 343.068C318.993 342.744 318.539 342.507 318.05 342.37C315.05 341.64 310.95 345.27 309.52 347.59C309.44 347.73 308.68 349.31 308.23 350.32C308.4 349.69 308.59 349.07 308.76 348.42C309.12 347.13 309.44 345.83 309.76 344.42C309.9 343.74 310.05 343.05 310.2 342.36C310.35 341.67 310.44 340.93 310.57 340.21C310.82 338.53 311 336.82 311.15 335.09C312.28 335.4 316.31 336.45 318.33 336.09C320.35 335.73 322.82 334.83 323.84 332.94C324.098 332.503 324.261 332.017 324.319 331.513C324.376 331.009 324.326 330.498 324.172 330.015C324.018 329.531 323.764 329.086 323.426 328.708C323.088 328.329 322.673 328.027 322.21 327.82C319.39 326.64 314.76 329.61 312.99 331.68C312.88 331.81 311.78 333.44 311.19 334.35C311.27 333.35 311.35 332.27 311.4 331.21C311.52 328.21 311.56 325.08 311.61 322C311.61 321.06 311.61 320.12 311.67 319.18C312.07 319.29 316.84 320.64 319.1 320.29C321.1 319.99 323.59 319.04 324.62 317.14C324.875 316.702 325.035 316.215 325.09 315.711C325.145 315.208 325.093 314.698 324.939 314.215C324.784 313.733 324.53 313.288 324.192 312.91C323.855 312.532 323.442 312.228 322.98 312.02C320.17 310.85 315.53 313.82 313.76 315.89C313.63 316.04 312.05 318.39 311.67 319.01C311.72 316.94 311.79 314.87 311.94 312.84C312.133 310.096 312.5 307.367 313.04 304.67C313.23 304.67 318.2 306.15 320.52 305.79C322.52 305.49 325 304.54 326.03 302.64C326.285 302.203 326.446 301.716 326.501 301.213C326.557 300.71 326.506 300.2 326.353 299.718C326.199 299.235 325.946 298.79 325.609 298.412C325.273 298.033 324.861 297.729 324.4 297.52C321.58 296.35 316.94 299.31 315.18 301.39C315.06 301.52 313.85 303.31 313.3 304.17L313.14 304.11C313.758 301.408 314.618 298.768 315.71 296.22C316.29 294.81 316.92 293.5 317.57 292.22C318.47 292.58 322.57 294.22 324.71 294.1C326.85 293.98 329.31 293.34 330.54 291.57C330.842 291.163 331.055 290.697 331.166 290.203C331.276 289.708 331.282 289.196 331.182 288.699C331.082 288.203 330.879 287.732 330.586 287.319C330.292 286.906 329.916 286.559 329.48 286.3C326.81 284.83 321.87 287.3 319.89 289.13C319.78 289.23 318.8 290.38 318.09 291.23C318.39 290.67 318.69 290.08 318.99 289.54C320.11 287.54 321.25 285.74 322.28 284.17C322.87 283.29 323.42 282.5 323.95 281.76C325.01 281.66 329.31 281.17 331.12 280.14C332.93 279.11 334.85 277.35 335.12 275.21C335.202 274.71 335.178 274.198 335.049 273.708C334.92 273.218 334.689 272.76 334.37 272.366C334.052 271.971 333.654 271.648 333.203 271.418C332.751 271.188 332.256 271.056 331.75 271.03C328.7 270.95 325.45 275.38 324.55 277.95C324.47 278.18 323.65 281.79 323.7 281.78H323.77C323.25 282.447 322.7 283.207 322.12 284.06C321.05 285.61 319.86 287.37 318.7 289.37C317.424 291.515 316.272 293.732 315.25 296.01C314.098 298.558 313.172 301.201 312.48 303.91C312.486 303.943 312.486 303.977 312.48 304.01C312.48 303.12 312.18 300.63 312.14 300.44C311.58 297.78 308.91 292.96 305.88 292.66C305.374 292.622 304.866 292.691 304.389 292.862C303.912 293.033 303.476 293.303 303.11 293.654C302.744 294.005 302.456 294.429 302.264 294.899C302.073 295.368 301.983 295.873 302 296.38C302 298.53 303.73 300.55 305.35 301.77C307.18 303.16 312.03 304.25 312.42 304.33C311.793 307.108 311.348 309.924 311.09 312.76C310.94 314.41 310.83 316.07 310.74 317.76C310.67 316.99 310.6 316.3 310.58 316.21C310.01 313.54 307.34 308.73 304.31 308.42C303.804 308.382 303.296 308.451 302.819 308.622C302.342 308.793 301.906 309.063 301.54 309.414C301.174 309.765 300.886 310.189 300.694 310.659C300.503 311.128 300.413 311.633 300.43 312.14C300.43 314.29 302.16 316.31 303.78 317.54C305.4 318.77 309.55 319.79 310.64 320.05C310.64 320.69 310.58 321.33 310.56 321.97C310.44 325.05 310.34 328.13 310.15 331.14C310.08 332.2 309.97 333.25 309.87 334.29C309.81 333.61 309.74 333.03 309.73 332.95C309.16 330.28 306.49 325.47 303.46 325.16C302.954 325.122 302.446 325.191 301.969 325.362C301.492 325.533 301.056 325.803 300.69 326.154C300.324 326.505 300.036 326.929 299.844 327.399C299.653 327.868 299.563 328.373 299.58 328.88C299.58 331.04 301.31 333.05 302.93 334.28C304.55 335.51 308.3 336.44 309.59 336.74C309.46 337.81 309.32 338.88 309.14 339.9C309 340.6 308.92 341.29 308.74 341.98L308.26 343.98C307.9 345.27 307.55 346.61 307.17 347.86C306.91 348.73 306.65 349.56 306.39 350.4C306.47 349.34 306.58 347.27 306.57 347.09C306.42 344.38 304.51 339.21 301.57 338.45C301.077 338.337 300.565 338.329 300.068 338.427C299.571 338.524 299.101 338.726 298.687 339.017C298.273 339.308 297.925 339.684 297.665 340.118C297.405 340.553 297.24 341.037 297.18 341.54C296.85 343.67 298.25 345.92 299.67 347.38C301.09 348.84 305.67 350.75 306.23 350.97C305.79 352.35 305.36 353.68 304.93 354.97C303.44 359.32 302.04 362.89 301.03 365.37C301.03 365.46 300.96 365.54 300.92 365.62L302.74 366.62C302.8 366.46 302.87 366.3 302.93 366.13C303.93 363.6 305.24 359.96 306.64 355.53C307.09 354.13 307.54 352.63 307.99 351.08C309.516 351.271 311.052 351.371 312.59 351.38C313.14 353.61 315.69 357.27 316.02 357.74C314.9 358.65 313.8 359.53 312.75 360.34C309.11 363.15 305.97 365.34 303.75 366.86L303.49 367.04L305.49 368.14C307.65 366.59 310.49 364.44 313.86 361.76C315 360.84 316.21 359.83 317.43 358.76C317.88 359.14 321.53 362.24 323.69 362.86C325.64 363.42 328.29 363.6 330.01 362.31C330.426 362.02 330.776 361.646 331.037 361.213C331.299 360.779 331.466 360.295 331.528 359.792C331.591 359.289 331.546 358.779 331.398 358.295C331.251 357.81 331.002 357.362 330.67 356.98C328.61 354.73 323.16 355.48 320.67 356.62C320.53 356.69 319.03 357.62 318.09 358.18C318.59 357.75 319.09 357.34 319.58 356.89C320.58 356.02 321.58 355.11 322.64 354.13L324.14 352.66C324.65 352.17 325.14 351.6 325.64 351.07C326.78 349.81 327.87 348.48 328.94 347.12C329.72 348 332.51 351.12 334.36 351.96C336.21 352.8 338.8 353.38 340.7 352.37C341.154 352.145 341.555 351.828 341.879 351.439C342.202 351.049 342.441 350.597 342.578 350.109C342.716 349.622 342.75 349.111 342.678 348.61C342.606 348.109 342.429 347.629 342.16 347.2C340.46 344.67 334.96 344.58 332.34 345.33C332.17 345.38 330.34 346.13 329.34 346.56C329.97 345.74 330.62 344.92 331.23 344.06C333.02 341.59 334.75 339.06 336.49 336.5L338.1 334.18C338.37 334.49 341.61 338.25 343.69 339.18C345.53 340.03 348.12 340.61 350.02 339.59C350.476 339.368 350.88 339.052 351.205 338.663C351.531 338.274 351.77 337.82 351.908 337.332C352.046 336.844 352.079 336.332 352.005 335.83C351.931 335.328 351.752 334.848 351.48 334.42C349.78 331.89 344.28 331.8 341.66 332.56C341.47 332.61 338.85 333.7 338.2 334.01C339.38 332.31 340.58 330.62 341.83 329.01C343.497 326.822 345.307 324.747 347.25 322.8C347.38 322.95 350.74 326.88 352.86 327.86C354.71 328.72 357.3 329.29 359.2 328.28C359.655 328.057 360.058 327.74 360.382 327.351C360.707 326.961 360.945 326.508 361.083 326.021C361.221 325.533 361.254 325.022 361.181 324.52C361.109 324.019 360.931 323.538 360.66 323.11C358.96 320.57 353.46 320.49 350.84 321.24C350.67 321.29 348.68 322.12 347.74 322.53L347.64 322.38C349.647 320.475 351.819 318.751 354.13 317.23C355.4 316.37 356.65 315.62 357.89 314.93C358.44 315.72 360.99 319.33 362.81 320.43C364.63 321.53 367.06 322.34 369.06 321.54C369.538 321.366 369.974 321.094 370.339 320.74C370.704 320.387 370.99 319.96 371.179 319.488C371.368 319.016 371.455 318.509 371.434 318.001C371.414 317.493 371.286 316.995 371.06 316.54C369.65 313.83 364.19 313.15 361.51 313.61C361.36 313.61 359.9 314.05 358.85 314.37L360.53 313.45C362.58 312.39 364.53 311.53 366.24 310.79C367.24 310.38 368.12 310.02 368.96 309.7C369.91 310.2 373.75 312.17 375.83 312.3C377.91 312.43 380.49 312.03 381.89 310.4C382.21 310.033 382.453 309.606 382.604 309.143C382.754 308.68 382.81 308.192 382.767 307.707C382.724 307.222 382.583 306.751 382.353 306.322C382.124 305.893 381.81 305.515 381.43 305.21Z" fill="white"/>
<path d="M311.19 287.36C312.64 289.26 317.39 291.73 317.4 291.73C317.41 291.73 318.08 288.11 318.09 287.87C318.25 285.15 316.95 279.81 314.09 278.71C313.612 278.54 313.104 278.473 312.599 278.513C312.093 278.553 311.602 278.699 311.156 278.942C310.711 279.184 310.322 279.518 310.014 279.921C309.706 280.323 309.487 280.787 309.37 281.28C308.81 283.35 310 285.75 311.19 287.36Z" fill="white"/>
</g>
<path d="M116 236.8C116.06 236.8 115.22 232.61 115.13 232.36C114.13 229.36 110.53 224.15 107.01 224.16C106.425 224.178 105.851 224.319 105.325 224.574C104.798 224.829 104.331 225.192 103.954 225.639C103.576 226.086 103.297 226.607 103.135 227.169C102.972 227.731 102.93 228.321 103.01 228.9C103.27 231.37 105.49 233.48 107.5 234.69C109.84 236.12 116 236.8 116 236.8Z" fill="#189AB4"/>
<path d="M122.81 208.59C119.49 209.78 117.81 215.92 117.95 219.06C117.95 219.33 118.58 223.56 118.64 223.53H118.71C118.44 224.53 118.17 225.53 117.89 226.68C117.39 228.79 116.89 231.18 116.43 233.82C115.955 236.663 115.641 239.531 115.49 242.41C115.314 245.63 115.425 248.859 115.82 252.06C115.825 252.1 115.825 252.14 115.82 252.18C115.39 251.24 114.09 248.67 113.96 248.48C112.24 245.85 107.36 241.78 103.96 242.72C103.401 242.893 102.885 243.181 102.445 243.566C102.004 243.951 101.65 244.424 101.404 244.955C101.158 245.486 101.026 246.062 101.017 246.647C101.007 247.232 101.121 247.812 101.35 248.35C102.25 250.66 104.95 252.11 107.21 252.75C109.76 253.48 115.44 252.62 115.89 252.55C116.37 255.8 117.069 259.014 117.98 262.17C118.5 264.01 119.08 265.85 119.69 267.69C119.29 266.89 118.92 266.18 118.86 266.09C117.13 263.46 112.26 259.39 108.86 260.33C108.301 260.5 107.784 260.787 107.343 261.171C106.901 261.554 106.546 262.027 106.3 262.557C106.054 263.087 105.922 263.664 105.913 264.248C105.905 264.833 106.019 265.413 106.25 265.95C107.15 268.27 109.85 269.72 112.11 270.36C114.37 271 119.25 270.36 120.54 270.19C120.78 270.89 121.01 271.6 121.25 272.3C122.41 275.66 123.59 279.02 124.64 282.3C125.01 283.47 125.33 284.64 125.64 285.8C125.28 285.09 124.98 284.5 124.92 284.42C123.2 281.79 118.32 277.72 114.92 278.66C114.361 278.83 113.844 279.117 113.403 279.501C112.961 279.884 112.606 280.357 112.36 280.887C112.114 281.417 111.982 281.994 111.973 282.578C111.965 283.163 112.079 283.743 112.31 284.28C113.21 286.6 115.91 288.05 118.17 288.69C120.43 289.33 124.84 288.77 126.37 288.55C126.67 289.76 126.97 290.96 127.2 292.14C127.35 292.95 127.54 293.72 127.64 294.55C127.74 295.38 127.86 296.16 127.98 296.95C128.14 298.49 128.31 300.08 128.43 301.59C128.52 302.59 128.58 303.59 128.65 304.59C128.3 303.42 127.55 301.14 127.47 300.96C126.225 298.488 124.37 296.375 122.08 294.82C121.952 294.539 121.798 294.272 121.62 294.02C121.303 293.528 120.886 293.107 120.397 292.786C119.907 292.465 119.355 292.25 118.778 292.156C118.2 292.062 117.608 292.09 117.042 292.239C116.476 292.388 115.947 292.654 115.49 293.02C112.83 295.33 113.49 301.64 114.72 304.54C114.79 304.71 115.79 306.47 116.43 307.54C115.95 306.95 115.5 306.37 115 305.76C114 304.57 113 303.4 111.92 302.14L110.27 300.35C109.73 299.74 109.09 299.17 108.49 298.57C107.09 297.21 105.59 295.9 104.06 294.57C105.06 293.71 108.78 290.57 109.84 288.5C110.9 286.43 111.64 283.43 110.54 281.2C110.299 280.667 109.949 280.19 109.512 279.802C109.075 279.413 108.561 279.121 108.003 278.944C107.445 278.768 106.856 278.711 106.275 278.777C105.694 278.844 105.133 279.032 104.63 279.33C101.63 281.2 101.35 287.54 102.12 290.59C102.17 290.78 102.97 292.9 103.43 294.06C102.5 293.3 101.58 292.53 100.62 291.78C97.83 289.63 94.95 287.54 92.08 285.44C91.2 284.8 90.33 284.14 89.46 283.5C89.84 283.19 94.29 279.6 95.46 277.24C96.51 275.14 97.27 272.17 96.17 269.94C95.9295 269.407 95.5792 268.93 95.142 268.542C94.7048 268.153 94.1906 267.861 93.6329 267.684C93.0752 267.508 92.4865 267.451 91.9053 267.517C91.3241 267.584 90.7635 267.772 90.26 268.07C87.26 269.94 86.97 276.28 87.75 279.33C87.75 279.56 88.96 282.62 89.29 283.38C87.37 281.95 85.48 280.51 83.66 279.01C81.1908 277.002 78.8526 274.837 76.66 272.53C76.84 272.39 81.5 268.66 82.66 266.24C83.71 264.14 84.47 261.17 83.37 258.94C83.1295 258.407 82.7792 257.93 82.342 257.542C81.9048 257.153 81.3906 256.861 80.8329 256.684C80.2752 256.508 79.6865 256.451 79.1053 256.517C78.5241 256.584 77.9635 256.772 77.46 257.07C74.46 258.94 74.17 265.28 74.95 268.33C74.95 268.53 75.88 270.86 76.32 271.96L76.15 272.06C74.0165 269.677 72.1021 267.107 70.43 264.38C69.49 262.9 68.68 261.38 67.92 259.97C68.85 259.36 73.12 256.55 74.45 254.49C75.78 252.43 76.8 249.65 75.95 247.32C75.7695 246.763 75.4738 246.251 75.0821 245.816C74.6905 245.381 74.2117 245.033 73.6769 244.796C73.1421 244.558 72.5632 244.435 71.978 244.436C71.3927 244.437 70.8142 244.561 70.28 244.8C67.11 246.34 66.12 252.61 66.55 255.72C66.55 255.89 67 257.59 67.33 258.82C67 258.16 66.65 257.48 66.33 256.82C65.17 254.42 64.26 252.16 63.46 250.14C63.02 248.99 62.65 247.95 62.31 246.96C62.92 245.89 65.31 241.52 65.55 239.13C65.79 236.74 65.42 233.75 63.55 232.07C63.133 231.66 62.6344 231.342 62.0867 231.137C61.5389 230.932 60.9541 230.845 60.3703 230.881C59.7866 230.917 59.2169 231.075 58.6982 231.345C58.1796 231.616 57.7237 231.992 57.36 232.45C55.26 235.27 57.27 241.3 59.09 243.86C59.24 244.08 62.09 247.27 62.09 247.21V247.14C62.4 248.14 62.74 249.14 63.09 250.22C63.84 252.22 64.71 254.55 65.82 256.98C66.9842 259.616 68.3031 262.18 69.77 264.66C71.4034 267.445 73.2772 270.082 75.37 272.54L75.45 272.62C74.57 272.08 72.07 270.62 71.86 270.56C68.97 269.32 62.66 268.62 60.34 271.27C59.9687 271.723 59.6966 272.248 59.5414 272.813C59.3862 273.377 59.3513 273.968 59.439 274.547C59.5267 275.126 59.735 275.68 60.0504 276.173C60.3658 276.666 60.7813 277.088 61.27 277.41C63.27 278.84 66.35 278.56 68.58 277.85C71.11 277.05 75.37 273.2 75.71 272.85C77.8888 275.292 80.2273 277.587 82.71 279.72C84.16 280.97 85.66 282.19 87.18 283.38L85.61 282.5C82.72 281.26 76.41 280.56 74.09 283.22C73.7184 283.671 73.4459 284.195 73.29 284.759C73.1341 285.322 73.0983 285.912 73.1851 286.49C73.2718 287.068 73.4791 287.621 73.7935 288.114C74.1079 288.607 74.5224 289.028 75.01 289.35C77.01 290.79 80.09 290.5 82.33 289.79C84.57 289.08 88.33 285.87 89.27 285L91.03 286.37C93.86 288.53 96.69 290.68 99.4 292.87C100.35 293.64 101.26 294.44 102.18 295.23C101.49 294.84 100.91 294.51 100.81 294.47C97.93 293.23 91.61 292.53 89.3 295.18C88.9282 295.632 88.6555 296.157 88.4995 296.721C88.3436 297.285 88.3078 297.876 88.3945 298.455C88.4812 299.033 88.6885 299.588 89.003 300.081C89.3175 300.575 89.7321 300.997 90.22 301.32C92.22 302.75 95.3 302.47 97.54 301.76C99.78 301.05 103.15 298.14 104.3 297.12C105.22 297.96 106.13 298.8 106.98 299.66C107.55 300.25 108.13 300.79 108.67 301.42L110.28 303.24C111.28 304.44 112.28 305.67 113.21 306.86C113.86 307.68 114.47 308.48 115.08 309.28C114.14 308.5 112.26 307.01 112.08 306.91C109.41 305.24 103.28 303.59 100.59 305.91C100.154 306.3 99.8051 306.778 99.5663 307.312C99.3275 307.846 99.2041 308.425 99.2041 309.01C99.2041 309.595 99.3275 310.174 99.5663 310.708C99.8051 311.242 100.154 311.72 100.59 312.11C102.38 313.84 105.44 314.02 107.76 313.66C110.31 313.26 114.94 310.24 115.51 309.86C116.51 311.19 117.51 312.49 118.38 313.74C121.5 318.04 123.93 321.74 125.59 324.35L125.76 324.62L127.91 323.57L127.57 323.06C125.83 320.46 123.3 316.77 120.06 312.5C119.06 311.14 117.93 309.72 116.77 308.27C117.96 306.954 119.076 305.572 120.11 304.13C122.58 305.13 127.74 305.13 128.4 305.13C128.51 306.8 128.6 308.42 128.66 309.95C128.88 315.25 128.87 319.68 128.81 322.78V323.14L131.17 321.99C131.17 318.91 131.06 314.76 130.74 309.84C130.64 308.15 130.5 306.34 130.33 304.49C130.99 304.33 136.33 302.95 138.33 301.34C140.16 299.87 142.09 297.49 142.03 295.01C142.034 294.424 141.915 293.844 141.681 293.308C141.446 292.771 141.101 292.29 140.668 291.896C140.235 291.501 139.724 291.203 139.167 291.019C138.611 290.835 138.023 290.771 137.44 290.83C133.95 291.28 131.02 296.91 130.44 300.01C130.44 300.19 130.26 302.21 130.18 303.48C130.11 302.73 130.05 301.99 129.97 301.21C129.81 299.68 129.61 298.14 129.4 296.5L129.01 294.09C128.9 293.29 128.68 292.46 128.51 291.63C128.09 289.71 127.57 287.8 127 285.87C128.34 285.74 133.12 285.17 135.17 284C137.22 282.83 139.47 280.77 139.78 278.3C139.874 277.722 139.844 277.132 139.694 276.566C139.544 276 139.276 275.473 138.907 275.018C138.539 274.563 138.079 274.191 137.558 273.926C137.036 273.661 136.464 273.509 135.88 273.48C132.36 273.39 128.61 278.48 127.58 281.48C127.51 281.66 127.01 283.88 126.75 285.1C126.4 283.95 126.06 282.8 125.67 281.64C124.53 278.31 123.28 274.98 122.04 271.64L120.93 268.58C121.41 268.53 127.11 267.99 129.4 266.67C131.4 265.5 133.7 263.44 134.01 260.98C134.103 260.402 134.074 259.81 133.924 259.244C133.774 258.678 133.506 258.15 133.138 257.695C132.77 257.239 132.31 256.866 131.788 256.6C131.267 256.334 130.695 256.18 130.11 256.15C126.59 256.07 122.84 261.15 121.81 264.15C121.73 264.38 121.01 267.56 120.86 268.38C120.05 266.13 119.26 263.88 118.58 261.63C117.631 258.599 116.883 255.509 116.34 252.38C116.56 252.38 122.51 251.82 124.86 250.47C126.86 249.3 129.16 247.24 129.47 244.77C129.562 244.193 129.531 243.602 129.38 243.037C129.229 242.473 128.961 241.946 128.594 241.491C128.226 241.037 127.767 240.665 127.246 240.399C126.725 240.134 126.154 239.981 125.57 239.95C122.05 239.86 118.3 244.95 117.27 247.95C117.2 248.15 116.65 250.57 116.41 251.73H116.21C115.751 248.565 115.574 245.366 115.68 242.17C115.68 240.41 115.85 238.73 116.01 237.1C117.13 237.1 122.24 237.1 124.48 236.1C126.72 235.1 129.12 233.37 129.7 230.95C129.857 230.386 129.892 229.795 129.805 229.216C129.717 228.637 129.509 228.083 129.193 227.591C128.876 227.098 128.46 226.678 127.97 226.357C127.48 226.036 126.928 225.823 126.35 225.73C122.86 225.25 118.57 229.94 117.22 232.73C117.14 232.89 116.57 234.54 116.16 235.73C116.25 234.99 116.33 234.23 116.42 233.53C116.78 230.89 117.27 228.53 117.72 226.38C117.99 225.18 118.25 224.1 118.51 223.09C119.61 222.53 124.03 220.22 125.51 218.34C126.99 216.46 128.36 213.78 127.76 211.34C127.432 210.343 126.741 209.506 125.823 208.996C124.906 208.486 123.83 208.341 122.81 208.59Z" fill="#189AB4"/>
<path d="M59.15 262.87C61.9 262.76 67.4 259.94 67.41 259.94C67.42 259.94 64.41 256.88 64.23 256.71C61.77 254.71 55.87 252.41 52.94 254.35C52.4606 254.686 52.0575 255.12 51.7571 255.622C51.4568 256.125 51.2659 256.685 51.197 257.267C51.1281 257.848 51.1827 258.438 51.3573 258.996C51.5318 259.555 51.8224 260.071 52.21 260.51C53.79 262.44 56.8 263 59.15 262.87Z" fill="#189AB4"/>
<g opacity="0.5">
<path d="M116 236.8C116.06 236.8 115.22 232.61 115.13 232.36C114.13 229.36 110.53 224.15 107.01 224.16C106.425 224.178 105.851 224.319 105.325 224.574C104.798 224.829 104.331 225.192 103.954 225.639C103.576 226.086 103.297 226.607 103.135 227.169C102.972 227.731 102.93 228.321 103.01 228.9C103.27 231.37 105.49 233.48 107.5 234.69C109.84 236.12 116 236.8 116 236.8Z" fill="white"/>
<path d="M122.81 208.59C119.49 209.78 117.81 215.92 117.95 219.06C117.95 219.33 118.58 223.56 118.64 223.53H118.71C118.44 224.53 118.17 225.53 117.89 226.68C117.39 228.79 116.89 231.18 116.43 233.82C115.955 236.663 115.641 239.531 115.49 242.41C115.314 245.63 115.425 248.859 115.82 252.06C115.825 252.1 115.825 252.14 115.82 252.18C115.39 251.24 114.09 248.67 113.96 248.48C112.24 245.85 107.36 241.78 103.96 242.72C103.401 242.893 102.885 243.181 102.445 243.566C102.004 243.951 101.65 244.424 101.404 244.955C101.158 245.486 101.026 246.062 101.017 246.647C101.007 247.232 101.121 247.812 101.35 248.35C102.25 250.66 104.95 252.11 107.21 252.75C109.76 253.48 115.44 252.62 115.89 252.55C116.37 255.8 117.069 259.014 117.98 262.17C118.5 264.01 119.08 265.85 119.69 267.69C119.29 266.89 118.92 266.18 118.86 266.09C117.13 263.46 112.26 259.39 108.86 260.33C108.301 260.5 107.784 260.787 107.343 261.171C106.901 261.554 106.546 262.027 106.3 262.557C106.054 263.087 105.922 263.664 105.913 264.248C105.905 264.833 106.019 265.413 106.25 265.95C107.15 268.27 109.85 269.72 112.11 270.36C114.37 271 119.25 270.36 120.54 270.19C120.78 270.89 121.01 271.6 121.25 272.3C122.41 275.66 123.59 279.02 124.64 282.3C125.01 283.47 125.33 284.64 125.64 285.8C125.28 285.09 124.98 284.5 124.92 284.42C123.2 281.79 118.32 277.72 114.92 278.66C114.361 278.83 113.844 279.117 113.403 279.501C112.961 279.884 112.606 280.357 112.36 280.887C112.114 281.417 111.982 281.994 111.973 282.578C111.965 283.163 112.079 283.743 112.31 284.28C113.21 286.6 115.91 288.05 118.17 288.69C120.43 289.33 124.84 288.77 126.37 288.55C126.67 289.76 126.97 290.96 127.2 292.14C127.35 292.95 127.54 293.72 127.64 294.55C127.74 295.38 127.86 296.16 127.98 296.95C128.14 298.49 128.31 300.08 128.43 301.59C128.52 302.59 128.58 303.59 128.65 304.59C128.3 303.42 127.55 301.14 127.47 300.96C126.225 298.488 124.37 296.375 122.08 294.82C121.952 294.539 121.798 294.272 121.62 294.02C121.303 293.528 120.886 293.107 120.397 292.786C119.907 292.465 119.355 292.25 118.778 292.156C118.2 292.062 117.608 292.09 117.042 292.239C116.476 292.388 115.947 292.654 115.49 293.02C112.83 295.33 113.49 301.64 114.72 304.54C114.79 304.71 115.79 306.47 116.43 307.54C115.95 306.95 115.5 306.37 115 305.76C114 304.57 113 303.4 111.92 302.14L110.27 300.35C109.73 299.74 109.09 299.17 108.49 298.57C107.09 297.21 105.59 295.9 104.06 294.57C105.06 293.71 108.78 290.57 109.84 288.5C110.9 286.43 111.64 283.43 110.54 281.2C110.299 280.667 109.949 280.19 109.512 279.802C109.075 279.413 108.561 279.121 108.003 278.944C107.445 278.768 106.857 278.711 106.275 278.777C105.694 278.844 105.134 279.032 104.63 279.33C101.63 281.2 101.35 287.54 102.12 290.59C102.17 290.78 102.97 292.9 103.43 294.06C102.5 293.3 101.58 292.53 100.62 291.78C97.83 289.63 94.95 287.54 92.08 285.44C91.2 284.8 90.33 284.14 89.46 283.5C89.84 283.19 94.29 279.6 95.46 277.24C96.51 275.14 97.27 272.17 96.17 269.94C95.9295 269.407 95.5792 268.93 95.142 268.542C94.7049 268.153 94.1906 267.861 93.6329 267.684C93.0752 267.508 92.4865 267.451 91.9053 267.517C91.3241 267.584 90.7635 267.772 90.26 268.07C87.26 269.94 86.97 276.28 87.75 279.33C87.75 279.56 88.96 282.62 89.29 283.38C87.37 281.95 85.48 280.51 83.66 279.01C81.1908 277.002 78.8527 274.837 76.66 272.53C76.84 272.39 81.5 268.66 82.66 266.24C83.71 264.14 84.47 261.17 83.37 258.94C83.1295 258.407 82.7792 257.93 82.342 257.542C81.9049 257.153 81.3906 256.861 80.8329 256.684C80.2752 256.508 79.6865 256.451 79.1053 256.517C78.5241 256.584 77.9635 256.772 77.46 257.07C74.46 258.94 74.17 265.28 74.95 268.33C74.95 268.53 75.88 270.86 76.32 271.96L76.15 272.06C74.0166 269.677 72.1022 267.107 70.43 264.38C69.49 262.9 68.68 261.38 67.92 259.97C68.85 259.36 73.12 256.55 74.45 254.49C75.78 252.43 76.8 249.65 75.95 247.32C75.7695 246.763 75.4738 246.251 75.0822 245.816C74.6906 245.381 74.2118 245.033 73.677 244.796C73.1421 244.558 72.5633 244.435 71.978 244.436C71.3928 244.437 70.8142 244.561 70.28 244.8C67.11 246.34 66.12 252.61 66.55 255.72C66.55 255.89 67 257.59 67.33 258.82C67 258.16 66.65 257.48 66.33 256.82C65.17 254.42 64.26 252.16 63.46 250.14C63.02 248.99 62.65 247.95 62.31 246.96C62.92 245.89 65.31 241.52 65.55 239.13C65.79 236.74 65.42 233.75 63.55 232.07C63.1331 231.66 62.6345 231.342 62.0867 231.137C61.5389 230.932 60.9541 230.845 60.3703 230.881C59.7866 230.917 59.2169 231.075 58.6983 231.345C58.1796 231.616 57.7237 231.992 57.36 232.45C55.26 235.27 57.27 241.3 59.09 243.86C59.24 244.08 62.09 247.27 62.09 247.21V247.14C62.4 248.14 62.74 249.14 63.09 250.22C63.84 252.22 64.71 254.55 65.82 256.98C66.9842 259.616 68.3032 262.18 69.77 264.66C71.4034 267.445 73.2772 270.082 75.37 272.54L75.45 272.62C74.57 272.08 72.07 270.62 71.86 270.56C68.97 269.32 62.66 268.62 60.34 271.27C59.9687 271.723 59.6967 272.248 59.5415 272.813C59.3863 273.377 59.3514 273.968 59.439 274.547C59.5267 275.126 59.735 275.68 60.0504 276.173C60.3658 276.666 60.7813 277.088 61.27 277.41C63.27 278.84 66.35 278.56 68.58 277.85C71.11 277.05 75.37 273.2 75.71 272.85C77.8889 275.292 80.2273 277.587 82.71 279.72C84.16 280.97 85.66 282.19 87.18 283.38L85.61 282.5C82.72 281.26 76.41 280.56 74.09 283.22C73.7185 283.671 73.4459 284.195 73.29 284.759C73.1341 285.322 73.0984 285.912 73.1851 286.49C73.2719 287.068 73.4792 287.621 73.7935 288.114C74.1079 288.607 74.5224 289.028 75.01 289.35C77.01 290.79 80.09 290.5 82.33 289.79C84.57 289.08 88.33 285.87 89.27 285L91.03 286.37C93.86 288.53 96.69 290.68 99.4 292.87C100.35 293.64 101.26 294.44 102.18 295.23C101.49 294.84 100.91 294.51 100.81 294.47C97.93 293.23 91.61 292.53 89.3 295.18C88.9283 295.632 88.6556 296.157 88.4996 296.721C88.3436 297.285 88.3078 297.876 88.3945 298.455C88.4813 299.033 88.6886 299.588 89.003 300.081C89.3175 300.575 89.7321 300.997 90.22 301.32C92.22 302.75 95.3 302.47 97.54 301.76C99.78 301.05 103.15 298.14 104.3 297.12C105.22 297.96 106.13 298.8 106.98 299.66C107.55 300.25 108.13 300.79 108.67 301.42L110.28 303.24C111.28 304.44 112.28 305.67 113.21 306.86C113.86 307.68 114.47 308.48 115.08 309.28C114.14 308.5 112.26 307.01 112.08 306.91C109.41 305.24 103.28 303.59 100.59 305.91C100.154 306.3 99.8052 306.778 99.5664 307.312C99.3276 307.846 99.2041 308.425 99.2041 309.01C99.2041 309.595 99.3276 310.174 99.5664 310.708C99.8052 311.242 100.154 311.72 100.59 312.11C102.38 313.84 105.44 314.02 107.76 313.66C110.31 313.26 114.94 310.24 115.51 309.86C116.51 311.19 117.51 312.49 118.38 313.74C121.5 318.04 123.93 321.74 125.59 324.35L125.76 324.62L127.91 323.57L127.57 323.06C125.83 320.46 123.3 316.77 120.06 312.5C119.06 311.14 117.93 309.72 116.77 308.27C117.961 306.954 119.076 305.572 120.11 304.13C122.58 305.13 127.74 305.13 128.4 305.13C128.51 306.8 128.6 308.42 128.66 309.95C128.88 315.25 128.87 319.68 128.81 322.78V323.14L131.17 321.99C131.17 318.91 131.06 314.76 130.74 309.84C130.64 308.15 130.5 306.34 130.33 304.49C130.99 304.33 136.33 302.95 138.33 301.34C140.16 299.87 142.09 297.49 142.03 295.01C142.034 294.424 141.915 293.844 141.681 293.308C141.446 292.771 141.101 292.29 140.668 291.896C140.235 291.501 139.724 291.203 139.167 291.019C138.611 290.835 138.023 290.771 137.44 290.83C133.95 291.28 131.02 296.91 130.44 300.01C130.44 300.19 130.26 302.21 130.18 303.48C130.11 302.73 130.05 301.99 129.97 301.21C129.81 299.68 129.61 298.14 129.4 296.5L129.01 294.09C128.9 293.29 128.68 292.46 128.51 291.63C128.09 289.71 127.57 287.8 127 285.87C128.34 285.74 133.12 285.17 135.17 284C137.22 282.83 139.47 280.77 139.78 278.3C139.874 277.722 139.844 277.132 139.694 276.566C139.544 276 139.276 275.473 138.908 275.018C138.539 274.563 138.08 274.191 137.558 273.926C137.036 273.661 136.464 273.509 135.88 273.48C132.36 273.39 128.61 278.48 127.58 281.48C127.51 281.66 127.01 283.88 126.75 285.1C126.4 283.95 126.06 282.8 125.67 281.64C124.53 278.31 123.28 274.98 122.04 271.64L120.93 268.58C121.41 268.53 127.11 267.99 129.4 266.67C131.4 265.5 133.7 263.44 134.01 260.98C134.103 260.402 134.074 259.81 133.924 259.244C133.774 258.678 133.506 258.15 133.138 257.695C132.77 257.239 132.31 256.866 131.788 256.6C131.267 256.334 130.695 256.18 130.11 256.15C126.59 256.07 122.84 261.15 121.81 264.15C121.73 264.38 121.01 267.56 120.86 268.38C120.05 266.13 119.26 263.88 118.58 261.63C117.631 258.599 116.883 255.509 116.34 252.38C116.56 252.38 122.51 251.82 124.86 250.47C126.86 249.3 129.16 247.24 129.47 244.77C129.562 244.193 129.531 243.602 129.38 243.037C129.229 242.473 128.961 241.946 128.594 241.491C128.226 241.037 127.767 240.665 127.246 240.399C126.725 240.134 126.154 239.981 125.57 239.95C122.05 239.86 118.3 244.95 117.27 247.95C117.2 248.15 116.65 250.57 116.41 251.73H116.21C115.751 248.565 115.574 245.366 115.68 242.17C115.68 240.41 115.85 238.73 116.01 237.1C117.13 237.1 122.24 237.1 124.48 236.1C126.72 235.1 129.12 233.37 129.7 230.95C129.857 230.386 129.892 229.795 129.805 229.216C129.717 228.637 129.509 228.083 129.193 227.591C128.876 227.098 128.46 226.678 127.97 226.357C127.48 226.036 126.928 225.823 126.35 225.73C122.86 225.25 118.57 229.94 117.22 232.73C117.14 232.89 116.57 234.54 116.16 235.73C116.25 234.99 116.33 234.23 116.42 233.53C116.78 230.89 117.27 228.53 117.72 226.38C117.99 225.18 118.25 224.1 118.51 223.09C119.61 222.53 124.03 220.22 125.51 218.34C126.99 216.46 128.36 213.78 127.76 211.34C127.432 210.343 126.741 209.506 125.823 208.996C124.906 208.486 123.83 208.341 122.81 208.59Z" fill="white"/>
<path d="M59.15 262.87C61.9 262.76 67.4 259.94 67.41 259.94C67.42 259.94 64.41 256.88 64.23 256.71C61.77 254.71 55.87 252.41 52.94 254.35C52.4606 254.686 52.0575 255.12 51.7571 255.622C51.4568 256.125 51.2659 256.685 51.197 257.267C51.1281 257.848 51.1827 258.438 51.3573 258.996C51.5318 259.555 51.8224 260.071 52.21 260.51C53.79 262.44 56.8 263 59.15 262.87Z" fill="white"/>
</g>
<path d="M92.76 338.39C92.76 338.39 109.46 298.14 118.81 299.89C128.16 301.64 102.81 364.06 102.81 364.06C102.81 364.06 132.19 308.64 152.23 308.64C172.27 308.64 144.88 369.89 119.51 390.31C119.51 390.31 159.57 347.14 182.94 356.48C206.31 365.82 136.2 409.56 136.2 409.56C136.2 409.56 176.93 396.73 172.26 406.65C167.59 416.57 154.9 418.31 154.9 418.31L200.97 420.65H40.68L76.74 417.15C76.74 417.15 39.34 398.48 49.36 390.9C59.38 383.32 81.41 399.65 81.41 399.65C81.41 399.65 43.35 357.65 50.69 341.89C58.03 326.13 90.76 370.48 90.76 370.48C90.76 370.48 64.05 313.89 69.39 304C74.73 294.11 92.76 338.39 92.76 338.39Z" fill="#189AB4"/>
<path opacity="0.5" d="M92.76 338.39C92.76 338.39 109.46 298.14 118.81 299.89C128.16 301.64 102.81 364.06 102.81 364.06C102.81 364.06 132.19 308.64 152.23 308.64C172.27 308.64 144.88 369.89 119.51 390.31C119.51 390.31 159.57 347.14 182.94 356.48C206.31 365.82 136.2 409.56 136.2 409.56C136.2 409.56 176.93 396.73 172.26 406.65C167.59 416.57 154.9 418.31 154.9 418.31L200.97 420.65H40.68L76.74 417.15C76.74 417.15 39.34 398.48 49.36 390.9C59.38 383.32 81.41 399.65 81.41 399.65C81.41 399.65 43.35 357.65 50.69 341.89C58.03 326.13 90.76 370.48 90.76 370.48C90.76 370.48 64.05 313.89 69.39 304C74.73 294.11 92.76 338.39 92.76 338.39Z" fill="white"/>
<path d="M87.42 340.51C102.11 383.92 102.11 414.64 102.11 414.64C102.11 414.64 84.75 415.3 66.72 401.95" stroke="#263238" stroke-linecap="round" stroke-linejoin="round"/>
<path d="M94.77 363.89C97.7899 350.912 101.802 338.184 106.77 325.82" stroke="#263238" stroke-linecap="round" stroke-linejoin="round"/>
<path d="M138.17 338.51L100.78 393.94C100.78 393.94 75.4 372.57 66.72 360.55" stroke="#263238" stroke-linecap="round" stroke-linejoin="round"/>
<path d="M101.45 407.29C101.45 407.29 140.84 388.59 156.87 377.91" stroke="#263238" stroke-linecap="round" stroke-linejoin="round"/>
<path d="M308.19 338.39C308.19 338.39 291.5 298.14 282.19 299.89C272.88 301.64 298.19 364.06 298.19 364.06C298.19 364.06 268.81 308.64 248.78 308.64C228.75 308.64 256.12 369.89 281.5 390.31C281.5 390.31 241.43 347.14 218.06 356.48C194.69 365.82 264.81 409.56 264.81 409.56C264.81 409.56 224.07 396.73 228.75 406.65C233.43 416.57 246.11 418.31 246.11 418.31L200 420.65H360.28L324.22 417.15C324.22 417.15 361.61 398.48 351.6 390.9C341.59 383.32 319.54 399.65 319.54 399.65C319.54 399.65 357.61 357.65 350.26 341.89C342.91 326.13 310.19 370.48 310.19 370.48C310.19 370.48 336.91 313.89 331.56 303.97C326.21 294.05 308.19 338.39 308.19 338.39Z" fill="#189AB4"/>
<path opacity="0.5" d="M308.19 338.39C308.19 338.39 291.5 298.14 282.19 299.89C272.88 301.64 298.19 364.06 298.19 364.06C298.19 364.06 268.81 308.64 248.78 308.64C228.75 308.64 256.12 369.89 281.5 390.31C281.5 390.31 241.43 347.14 218.06 356.48C194.69 365.82 264.81 409.56 264.81 409.56C264.81 409.56 224.07 396.73 228.75 406.65C233.43 416.57 246.11 418.31 246.11 418.31L200 420.65H360.28L324.22 417.15C324.22 417.15 361.61 398.48 351.6 390.9C341.59 383.32 319.54 399.65 319.54 399.65C319.54 399.65 357.61 357.65 350.26 341.89C342.91 326.13 310.19 370.48 310.19 370.48C310.19 370.48 336.91 313.89 331.56 303.97C326.21 294.05 308.19 338.39 308.19 338.39Z" fill="white"/>
<path d="M313.53 340.51C298.84 383.92 298.84 414.64 298.84 414.64C298.84 414.64 316.2 415.3 334.23 401.95" stroke="#263238" stroke-linecap="round" stroke-linejoin="round"/>
<path d="M306.19 363.89C303.17 350.912 299.158 338.184 294.19 325.82" stroke="#263238" stroke-linecap="round" stroke-linejoin="round"/>
<path d="M262.78 338.51L300.18 393.94C300.18 393.94 325.55 372.57 334.23 360.55" stroke="#263238" stroke-linecap="round" stroke-linejoin="round"/>
<path d="M299.51 407.29C299.51 407.29 260.11 388.59 244.08 377.91" stroke="#263238" stroke-linecap="round" stroke-linejoin="round"/>
<path d="M281.23 121.5H126.83C123.102 121.5 120.08 124.522 120.08 128.25V417.34C120.08 421.068 123.102 424.09 126.83 424.09H281.23C284.958 424.09 287.98 421.068 287.98 417.34V128.25C287.98 124.522 284.958 121.5 281.23 121.5Z" fill="#263238" stroke="#263238" stroke-miterlimit="10"/>
<path d="M215.64 139.58H194.74C194.458 139.58 194.178 139.524 193.917 139.416C193.656 139.308 193.419 139.15 193.22 138.95C193.02 138.751 192.862 138.514 192.754 138.253C192.646 137.992 192.59 137.712 192.59 137.43C192.59 137.148 192.646 136.869 192.754 136.609C192.862 136.348 193.021 136.112 193.22 135.913C193.42 135.714 193.657 135.557 193.918 135.45C194.179 135.343 194.458 135.289 194.74 135.29H215.64C216.208 135.29 216.752 135.515 217.153 135.917C217.555 136.318 217.78 136.862 217.78 137.43C217.781 137.712 217.727 137.991 217.62 138.252C217.513 138.513 217.356 138.75 217.157 138.95C216.958 139.149 216.722 139.308 216.461 139.416C216.201 139.524 215.922 139.58 215.64 139.58Z" fill="#189AB4"/>
<path d="M277.37 397.05H130.69V139.83H165.46L169.37 143.07C170.733 144.209 172.454 144.833 174.23 144.83H235.57C237.411 144.82 239.187 144.145 240.57 142.93L244.1 139.83H277.34L277.37 397.05Z" fill="white" stroke="#263238" stroke-width="0.938618" stroke-linecap="round" stroke-linejoin="round"/>
<path d="M189.27 158.79L187.27 152.07H137.35V158.79V383.39V390.12H271.16V158.79H189.27Z" fill="#189AB4"/>
<path d="M266.45 170.9H142.05V382.72H266.45V170.9Z" fill="white"/>
<path d="M208.72 405C208.722 404.339 208.528 403.692 208.162 403.142C207.796 402.591 207.275 402.161 206.665 401.907C206.055 401.653 205.383 401.585 204.735 401.713C204.086 401.841 203.49 402.158 203.022 402.625C202.554 403.091 202.235 403.687 202.105 404.335C201.975 404.983 202.041 405.655 202.293 406.266C202.546 406.877 202.974 407.399 203.523 407.766C204.073 408.134 204.719 408.33 205.38 408.33C206.263 408.327 207.11 407.976 207.735 407.352C208.361 406.729 208.715 405.883 208.72 405Z" fill="#189AB4"/>
<path d="M194.91 373.47C217.532 373.47 235.87 347.377 235.87 315.19C235.87 283.003 217.532 256.91 194.91 256.91C172.288 256.91 153.95 283.003 153.95 315.19C153.95 347.377 172.288 373.47 194.91 373.47Z" fill="#189AB4"/>
<path opacity="0.5" d="M194.91 373.47C217.532 373.47 235.87 347.377 235.87 315.19C235.87 283.003 217.532 256.91 194.91 256.91C172.288 256.91 153.95 283.003 153.95 315.19C153.95 347.377 172.288 373.47 194.91 373.47Z" fill="white"/>
<path d="M200.72 250.14C200.72 250.14 198.16 245.86 195.81 245.65C193.46 245.44 165.48 263 161.2 272.14C156.92 281.28 152.87 299.62 164.2 317.27C175.25 334.44 192.57 333.87 201.55 333.01C210.53 332.15 216.55 329.23 225.65 321.93C234.75 314.63 243.1 303.88 244.31 296.58C245.52 289.28 241.07 285.22 238.23 284.21C235.39 283.2 218.96 283.4 206.99 271.21C195.02 259.02 200.72 250.14 200.72 250.14Z" fill="#263238" stroke="#263238" stroke-linecap="round" stroke-linejoin="round"/>
<path d="M204.35 244.58C204.35 244.58 197.09 247.36 192.6 252.27C188.11 257.18 185.34 264.88 185.13 276.2C184.92 287.52 188.55 300.33 202.64 305.89C216.73 311.45 229.34 307.17 233.4 303.32C237.46 299.47 242.4 288.59 242.4 288.59C242.4 288.59 219.98 294.59 209.3 281.96C198.62 269.33 204.35 244.58 204.35 244.58Z" fill="white" stroke="#263238" stroke-linecap="round" stroke-linejoin="round"/>
<path d="M329.83 252.47C324.35 244.25 311.27 241.82 300.93 238.47C290.59 235.12 284.5 228.47 287.24 212.01C289.98 195.55 304.24 168.81 303.97 163.94C303.7 159.07 254.69 159.38 250.12 160.94C245.55 162.5 244.65 162.15 240.39 167.63C238.029 170.589 235.893 173.722 234 177L239.28 165.9H239.67C240.244 164.441 241.058 163.089 242.08 161.9C246.726 156.51 249.359 149.675 249.53 142.56C249.73 132.09 242.28 133.1 240.87 136.32C239.46 139.54 231.21 150.62 228.79 153.64C226.37 156.66 221.34 164.92 221.34 164.92L215.75 184.3C215.75 184.3 214.53 190.08 207.53 211.99C200.53 233.9 203.58 244 203.58 244C203.58 244 201.75 243.09 197.49 256.17C193.23 269.25 195.06 285.98 202.66 293.89C210.26 301.8 220.31 301.5 231.57 296.94C238.497 293.972 244.265 288.825 248 282.28C248 282.28 259.87 279.28 268.69 272.55C277.51 265.82 284.2 258.86 297 259.47C309.8 260.08 324.38 267.38 329.25 267.07C334.12 266.76 335.31 260.68 329.83 252.47Z" fill="white"/>
<mask id="mask0_155_2884" style="mask-type:luminance" maskUnits="userSpaceOnUse" x="195" y="134" width="139" height="167">
<path d="M329.83 252.47C324.35 244.25 311.27 241.82 300.93 238.47C290.59 235.12 284.5 228.47 287.24 212.01C289.98 195.55 304.24 168.81 303.97 163.94C303.7 159.07 254.69 159.38 250.12 160.94C245.55 162.5 244.65 162.15 240.39 167.63C238.029 170.589 235.893 173.722 234 177L239.28 165.9H239.67C240.244 164.441 241.058 163.089 242.08 161.9C246.726 156.51 249.359 149.675 249.53 142.56C249.73 132.09 242.28 133.1 240.87 136.32C239.46 139.54 231.21 150.62 228.79 153.64C226.37 156.66 221.34 164.92 221.34 164.92L215.75 184.3C215.75 184.3 214.53 190.08 207.53 211.99C200.53 233.9 203.58 244 203.58 244C203.58 244 201.75 243.09 197.49 256.17C193.23 269.25 195.06 285.98 202.66 293.89C210.26 301.8 220.31 301.5 231.57 296.94C238.497 293.972 244.265 288.825 248 282.28C248 282.28 259.87 279.28 268.69 272.55C277.51 265.82 284.2 258.86 297 259.47C309.8 260.08 324.38 267.38 329.25 267.07C334.12 266.76 335.31 260.68 329.83 252.47Z" fill="white"/>
</mask>
<g mask="url(#mask0_155_2884)">
<path d="M251.36 224C217.51 229.05 206.87 237.13 210.25 248.25C210.951 250.455 212.091 252.496 213.6 254.25C213.6 254.46 213.6 254.69 213.66 254.93C213.66 254.93 214.26 255.29 215.16 255.93C216.345 257.075 217.626 258.115 218.99 259.04C221.21 261.15 223.2 263.79 222.79 266.24C221.92 271.46 209.79 280.58 203.66 281.02C197.53 281.46 195.4 275.37 194.53 281.89C193.66 288.41 207.14 304.49 220.18 302.75C233.22 301.01 244.09 282.75 244.09 282.75C244.09 282.75 242.35 279.75 251.09 270.58C256.83 264.58 265.04 261.93 271.33 259.47C277.268 257.723 283.057 255.503 288.64 252.83C304.11 245.25 322.49 250.31 322.49 250.31C322.49 250.31 285.21 218.89 251.36 224Z" fill="#189AB4"/>
<path opacity="0.5" d="M251.36 224C217.51 229.05 206.87 237.13 210.25 248.25C210.951 250.455 212.091 252.496 213.6 254.25C213.6 254.46 213.6 254.69 213.66 254.93C213.66 254.93 214.26 255.29 215.16 255.93C216.345 257.075 217.626 258.115 218.99 259.04C221.21 261.15 223.2 263.79 222.79 266.24C221.92 271.46 209.79 280.58 203.66 281.02C197.53 281.46 195.4 275.37 194.53 281.89C193.66 288.41 207.14 304.49 220.18 302.75C233.22 301.01 244.09 282.75 244.09 282.75C244.09 282.75 242.35 279.75 251.09 270.58C256.83 264.58 265.04 261.93 271.33 259.47C277.268 257.723 283.057 255.503 288.64 252.83C304.11 245.25 322.49 250.31 322.49 250.31C322.49 250.31 285.21 218.89 251.36 224Z" fill="white"/>
</g>
<path d="M329.83 252.47C324.35 244.25 311.27 241.82 300.93 238.47C290.59 235.12 284.5 228.47 287.24 212.01C289.98 195.55 304.24 168.81 303.97 163.94C303.7 159.07 254.69 159.38 250.12 160.94C245.55 162.5 244.65 162.15 240.39 167.63C238.029 170.589 235.893 173.722 234 177L239.28 165.9H239.67C240.244 164.441 241.058 163.089 242.08 161.9C246.726 156.51 249.359 149.675 249.53 142.56C249.73 132.09 242.28 133.1 240.87 136.32C239.46 139.54 231.21 150.62 228.79 153.64C226.37 156.66 221.34 164.92 221.34 164.92L215.75 184.3C215.75 184.3 214.53 190.08 207.53 211.99C200.53 233.9 203.58 244 203.58 244C203.58 244 201.75 243.09 197.49 256.17C193.23 269.25 195.06 285.98 202.66 293.89C210.26 301.8 220.31 301.5 231.57 296.94C238.497 293.972 244.265 288.825 248 282.28C248 282.28 259.87 279.28 268.69 272.55C277.51 265.82 284.2 258.86 297 259.47C309.8 260.08 324.38 267.38 329.25 267.07C334.12 266.76 335.31 260.68 329.83 252.47Z" stroke="#263238" stroke-linecap="round" stroke-linejoin="round"/>
<path d="M330 267C330 267 330.64 264.44 323.38 261C316.12 257.56 313.13 259.93 313.13 261.64C313.13 263.35 328.88 267 330 267Z" fill="white" stroke="#263238" stroke-linecap="round" stroke-linejoin="round"/>
<path d="M261.21 149.83L242.89 163.93H267.46C267.46 163.93 267.46 146.61 261.21 149.83Z" fill="white" stroke="#263238" stroke-linecap="round" stroke-linejoin="round"/>
<path d="M238.23 251.53C240.832 248.589 244.076 246.287 247.71 244.8" stroke="#263238" stroke-linecap="round" stroke-linejoin="round"/>
<path d="M234.9 257C235.181 256.187 235.546 255.406 235.99 254.67" stroke="#263238" stroke-linecap="round" stroke-linejoin="round"/>
<path d="M227.6 276C226.62 275.138 225.704 274.205 224.86 273.21" stroke="#263238" stroke-linecap="round" stroke-linejoin="round"/>
<path d="M248 282.28C242.35 282.923 236.642 281.753 231.7 278.94" stroke="#263238" stroke-linecap="round" stroke-linejoin="round"/>
<path d="M316.5 162.72H224.18C211.43 162.72 201.1 172.59 201.1 184.72V228.22C201.1 238.8 208.91 247.64 219.33 249.77L214.46 264.18L237 250.3H316.5C329.24 250.3 339.58 240.43 339.58 228.3V184.8C339.58 172.59 329.24 162.72 316.5 162.72Z" fill="#D4F1F4" stroke="#263238" stroke-width="2" stroke-miterlimit="10"/>
<path d="M216.13 192.01H319.91" stroke="#263238" stroke-width="2.06409" stroke-miterlimit="10" stroke-linecap="round"/>
<path d="M216.13 202.7H319.91" stroke="#263238" stroke-width="2.06409" stroke-miterlimit="10" stroke-linecap="round"/>
<path d="M216.13 213.38H319.91" stroke="#263238" stroke-width="2.06409" stroke-miterlimit="10" stroke-linecap="round"/>
<path d="M216.13 224.06H319.91" stroke="#263238" stroke-width="2.06409" stroke-miterlimit="10" stroke-linecap="round"/>
<path d="M338.74 200.85C345.848 200.85 351.61 195.348 351.61 188.56C351.61 181.772 345.848 176.27 338.74 176.27C331.632 176.27 325.87 181.772 325.87 188.56C325.87 195.348 331.632 200.85 338.74 200.85Z" fill="#263238"/>
<path d="M337.74 197.24C337.317 196.395 337.127 195.453 337.19 194.51V184.51L334.93 185.77C334.687 185.911 334.411 185.986 334.13 185.99C333.919 185.992 333.71 185.95 333.517 185.865C333.324 185.781 333.151 185.656 333.01 185.5C332.716 185.194 332.554 184.784 332.56 184.36C332.553 184.072 332.637 183.788 332.8 183.55C333.033 183.271 333.31 183.031 333.62 182.84L338 180.6C338.489 180.249 339.061 180.032 339.66 179.97C341.15 179.97 341.89 181.09 341.89 183.33V194.86C341.89 197.05 341.11 198.14 339.54 198.14C339.186 198.171 338.83 198.104 338.513 197.945C338.195 197.786 337.927 197.542 337.74 197.24Z" fill="white"/>
<path d="M289.36 156.28C289.36 156.28 289.77 164.33 297.02 168.16C304.27 171.99 313.53 171.16 313.73 166.35C313.93 161.54 308.29 156.48 304.47 150.03C300.65 143.58 292.18 147.22 288.56 151.65" fill="white"/>
<path d="M289.36 156.28C289.36 156.28 289.77 164.33 297.02 168.16C304.27 171.99 313.53 171.16 313.73 166.35C313.93 161.54 308.29 156.48 304.47 150.03C300.65 143.58 292.18 147.22 288.56 151.65" stroke="#263238" stroke-linecap="round" stroke-linejoin="round"/>
<path d="M301.85 162.72C301.24 165.94 303.46 167.72 305.47 168.72C307.48 169.72 311.47 169.13 313.73 166.31C313.83 163.95 312.54 161.55 310.73 158.96C308.21 159.28 302.32 160.2 301.85 162.72Z" fill="white" stroke="#263238" stroke-linecap="round" stroke-linejoin="round"/>
<path d="M274.26 156.28C274.26 156.28 274.66 164.33 281.91 168.16C289.16 171.99 298.43 171.16 298.63 166.35C298.83 161.54 293.19 156.48 289.36 150.03C285.53 143.58 277.08 147.22 273.45 151.65" fill="white"/>
<path d="M274.26 156.28C274.26 156.28 274.66 164.33 281.91 168.16C289.16 171.99 298.43 171.16 298.63 166.35C298.83 161.54 293.19 156.48 289.36 150.03C285.53 143.58 277.08 147.22 273.45 151.65" stroke="#263238" stroke-linecap="round" stroke-linejoin="round"/>
<path d="M286.75 162.72C286.14 165.94 288.36 167.72 290.37 168.72C292.38 169.72 296.37 169.13 298.63 166.31C298.72 163.95 297.43 161.55 295.63 158.96C293.11 159.28 287.22 160.2 286.75 162.72Z" fill="white" stroke="#263238" stroke-linecap="round" stroke-linejoin="round"/>
<path d="M260.21 156.28C260.21 156.28 260.61 164.33 267.86 168.16C275.11 171.99 284.37 171.16 284.57 166.35C284.77 161.54 279.14 156.48 275.31 150.03C271.48 143.58 263.02 147.22 259.4 151.65" fill="white"/>
<path d="M260.21 156.28C260.21 156.28 260.61 164.33 267.86 168.16C275.11 171.99 284.37 171.16 284.57 166.35C284.77 161.54 279.14 156.48 275.31 150.03C271.48 143.58 263.02 147.22 259.4 151.65" stroke="#263238" stroke-linecap="round" stroke-linejoin="round"/>
<path d="M272.69 162.72C272.09 165.94 274.3 167.72 276.32 168.72C278.34 169.72 282.32 169.13 284.57 166.31C284.67 163.95 283.38 161.55 281.57 158.96C279.05 159.28 273.16 160.2 272.69 162.72Z" fill="white" stroke="#263238" stroke-linecap="round" stroke-linejoin="round"/>
<path d="M203.58 244C203.58 244 204.14 256.38 210.97 264.71" stroke="#263238" stroke-linecap="round" stroke-linejoin="round"/>
<path d="M183.7 295.67C183.7 298.19 182.02 300.23 179.95 300.23C177.88 300.23 176.2 298.23 176.2 295.67C176.2 293.11 177.88 291.11 179.95 291.11C182.02 291.11 183.7 293.15 183.7 295.67Z" fill="white"/>
<path d="M174.37 301.35C174.37 303.87 172.69 305.91 170.62 305.91C168.55 305.91 166.87 303.91 166.87 301.35C166.87 298.79 168.55 296.78 170.62 296.78C172.69 296.78 174.37 298.83 174.37 301.35Z" stroke="#263238" stroke-linecap="round" stroke-linejoin="round"/>
</svg>
