<svg width="24" height="24" viewBox="0 0 24 24" fill="none" xmlns="http://www.w3.org/2000/svg">
<path d="M12.0003 5.9999V6.03313M6.03325 12.0002H6.00002M16.243 7.75745L16.2195 7.78095M7.7812 16.2192L7.7577 16.2427M7.7812 7.78057L7.7577 7.75707M12 21.5999C6.69809 21.5999 2.40002 17.3018 2.40002 11.9999C2.40002 6.69797 6.69809 2.3999 12 2.3999C17.302 2.3999 21.6 6.69797 21.6 11.9999C21.6 13.614 20.1086 14.6879 18.4946 14.6879H17.868C17.5445 14.6879 17.2254 14.7632 16.936 14.9079C15.9066 15.4226 15.4893 16.6744 16.004 17.7039C16.1487 17.9932 16.224 18.3123 16.224 18.6359V18.825C16.224 19.9256 15.6064 20.9678 14.545 21.2589C13.7345 21.4812 12.8811 21.5999 12 21.5999Z" stroke="#282828" stroke-linecap="round" stroke-linejoin="round"/>
</svg>
